<?xml version="1.0" standalone="no"?> <!DOCTYPE svg PUBLIC "-//W3C//DTD SVG 1.0//EN" "http://www.w3.org/TR/2001/REC-SVG-20010904/DTD/svg10.dtd" > <svg xmlns="http://www.w3.org/2000/svg" width="100%" height="100%">
<defs >
<font horiz-adv-x="557" ><font-face
    font-family=""
    units-per-em="1000"
    panose-1="0 0 0 0 0 0 0 0 0 0"
    ascent="812"
    descent="-188"
    alphabetic="0" />
<missing-glyph horiz-adv-x="500" />
<glyph unicode=" " glyph-name="space" horiz-adv-x="239" />
<glyph unicode="!" glyph-name="exclam" horiz-adv-x="295" d="M178 788H330L194 241H93L178 788ZM23 0L50 140H202L175 0H23Z" />
<glyph unicode="&quot;" glyph-name="quotedbl" horiz-adv-x="427" d="M337 765H466L392 518H309L337 765ZM150 765H278L205 518H122L150 765Z" />
<glyph unicode="#" glyph-name="numbersign" horiz-adv-x="665" d="M404 373L452 515H333L285 373H404ZM163 285H56L73 373H193L240 515H130L147 603H270L324 765H417L363 603H480L535 765H629L573 603H684L667 515H544L497 373H609L592 285H466L405 99H311L373
285H255L193 99H100L163 285Z" />
<glyph unicode="$" glyph-name="dollar" horiz-adv-x="637" d="M361 651Q313 647 279 620T245 544Q245 506 264 487T323 454L361 651ZM319 91Q345 94 369 103T412 127T442 163T453 211Q453 247 433 269T361 309L319 91ZM212 -116L233 -8Q185 -3 145 13T78 56T37
124T27 218H161Q159 164 180 133T253 94L298 328L269 337Q185 360 148 407T110 520Q110 572 130 614T186 685T271 731T379 748L395 828H462L446 744Q488 738 523 723T584 682T621 619T631 533H502Q506 575 488 605T427 646L386 436L415 427Q464 412 497 393T551
350T581 296T590 228Q590 175 569 132T509 58T417 8T299 -11L279 -116H212Z" />
<glyph unicode="%" glyph-name="percent" horiz-adv-x="851" d="M734 781H843L170 -40H62L734 781ZM91 523Q91 567 104 606T142 675T203 722T284 740Q359 740 398 701T437 597Q437 553 424 514T386 445T325 398T244 380Q170 380 131 419T91 523ZM247 457Q273 457
290 471T319 506T334 551T339 598Q339 625 326 645T279 665Q256 665 239 652T210 619T193 574T186 524Q186 497 199 477T247 457ZM610 -7Q537 -7 497 32T457 136Q457 180 470 219T509 289T570 336T651 354Q725 354 764 314T803 210Q803 166 790 127T752 58T692
11T610 -7ZM614 70Q639 70 656 83T685 118T701 163T706 209Q707 237 694 257T646 278Q622 278 605 265T576 232T559 187T553 137Q553 110 566 90T614 70Z" />
<glyph unicode="&amp;" glyph-name="ampersand" horiz-adv-x="731" d="M308 592Q308 560 318 532T348 474Q373 487 396 501T438 533T466 570T477 617Q476 653 457 675T403 698Q361 698 335 668T308 592ZM273 350Q216 318 192 282T168 201Q168 149 198 118T286
86Q324 86 356 99T417 137Q414 142 411 147T404 158L279 353L273 350ZM637 -1Q578 -1 541 13T473 60Q430 25 379 5T263 -16Q214 -16 173 -3T101 35T54 98T37 183Q37 229 51 265T92 331T155 384T234 429Q212 464 200 500T188 583Q188 630 205 667T253 731T322 771T406
786Q446 786 480 775T539 743T578 692T592 623Q592 582 575 549T531 490T468 441T396 399L500 236Q523 273 542 314T580 401H694Q665 336 633 272T558 151Q580 126 606 117T678 105L658 -1H637Z" />
<glyph unicode="&apos;" glyph-name="quotesingle" horiz-adv-x="240" d="M150 765H278L205 518H122L150 765Z" />
<glyph unicode="(" glyph-name="parenleft" horiz-adv-x="342" d="M154 -130Q139 -99 125 -65T100 10T83 98T76 200Q76 285 95 365T148 520T227 661T323 788H427Q375 719 333 649T259 505T211 351T193 185Q192 84 208 9T248 -130H154Z" />
<glyph unicode=")" glyph-name="parenright" horiz-adv-x="342" d="M220 788Q235 757 249 722T274 647T291 560T298 458Q298 373 279 293T226 138T147 -4T50 -130H-54Q-2 -61 41 9T114 153T162 307T180 473Q180 524 176 567T165 649T148 721T126 788H220Z" />
<glyph unicode="*" glyph-name="asterisk" horiz-adv-x="438" d="M275 549L182 417L107 482L231 583L232 586L97 614L150 711L262 640L264 642L268 788H372L319 641L321 638L458 705L473 603L329 583L328 580L412 474L319 417L278 549H275Z" />
<glyph unicode="+" glyph-name="plus" horiz-adv-x="613" d="M332 112H219L257 307H75L94 409H277L314 602H428L390 409H573L554 307H370L332 112Z" />
<glyph unicode="," glyph-name="comma" horiz-adv-x="261" d="M57 147H203L63 -117H-26L57 147Z" />
<glyph unicode="-" glyph-name="hyphen" horiz-adv-x="404" d="M80 372H376L355 264H59L80 372Z" />
<glyph unicode="." glyph-name="period" horiz-adv-x="267" d="M38 146H188L160 0H11L38 146Z" />
<glyph unicode="/" glyph-name="slash" horiz-adv-x="562" d="M533 788H645L28 -130H-87L533 788Z" />
<glyph unicode="0" glyph-name="zero" horiz-adv-x="677" d="M67 250Q67 297 74 353T99 464T142 571T207 663T295 727T411 751Q529 751 592 678T653 475Q652 425 644 370T620 260T577 156T513 68T426 8T313 -15Q195 -15 132 54T67 250ZM316 88Q349 88 376 107T425
157T463 230T490 316T506 406T512 490Q512 519 508 547T491 598T457 634T403 648Q369 648 342 628T292 575T255 500T229 412T213 323T208 242Q208 214 212 187T229 137T262 102T316 88Z" />
<glyph unicode="1" glyph-name="one" horiz-adv-x="423" d="M234 522H89L106 610H125Q197 610 238 643Q279 674 295 743H409L265 0H133L234 522Z" />
<glyph unicode="2" glyph-name="two" horiz-adv-x="618" d="M109 501Q129 626 203 689T393 752Q438 752 478 741T548 706T595 647T612 563Q611 517 595 478T550 404T484 335T403 267L208 112V110H535L514 0H-4L12 84L315 335Q345 360 373 385T424 436T461 492T475
556Q475 599 451 624T382 649Q358 649 336 642T294 618T262 573T242 501H109Z" />
<glyph unicode="3" glyph-name="three" horiz-adv-x="629" d="M274 326L294 427H340Q401 429 437 461T473 551Q473 599 444 623T371 648Q318 648 283 619T239 526H108Q113 574 133 615T188 686T271 734T378 752Q426 752 467 741T539 706T587 647T605 564Q605 527
594 497T563 443T517 403T459 378V375Q508 361 539 322T570 218Q570 163 548 120T489 47T400 1T291 -15Q232 -15 184 0T103 44T53 115T40 213H173Q172 154 203 123T297 91Q330 91 356 101T400 129T427 171T437 224Q437 267 413 296T334 326H274Z" />
<glyph unicode="4" glyph-name="four" horiz-adv-x="639" d="M386 275L452 614H450Q443 602 434 589Q426 578 416 563T391 532L172 275H386ZM492 171L459 0H330L363 171H21L39 267L449 741H603L513 276H604L583 171H492Z" />
<glyph unicode="5" glyph-name="five" horiz-adv-x="624" d="M436 272Q436 324 411 354T333 386Q250 387 203 328H91L202 741H611L589 632H284L230 429H232Q255 452 293 471T381 490Q426 490 462 475T522 434T560 370T573 288Q573 222 551 166T488 70T392 8T271
-15Q216 -15 171 -1T94 42T49 110T40 203H170Q167 147 195 119T277 91Q315 91 344 106T394 146T425 204T436 272Z" />
<glyph unicode="6" glyph-name="six" horiz-adv-x="642" d="M512 571Q504 654 423 654Q386 654 354 635T296 580T250 497T216 389H220Q249 433 295 458T399 483Q444 483 479 468T540 427T578 363T592 281Q592 217 571 163T511 69T419 7T304 -15Q240 -15 195 5T120
59T78 141T64 242Q64 301 75 361T107 479T160 585T233 672T325 730T435 752Q531 752 582 707T636 571H512ZM310 89Q345 89 372 104T418 145T446 201T456 266Q456 319 427 349T347 380Q313 380 286 366T240 327T211 271T201 207Q201 153 229 121T310 89Z" />
<glyph unicode="7" glyph-name="seven" horiz-adv-x="547" d="M438 630H101L123 741H615L599 662L186 0H45L438 630Z" />
<glyph unicode="8" glyph-name="eight" horiz-adv-x="634" d="M383 752Q429 752 471 740T545 703T595 644T614 562Q614 524 603 494T571 440T525 400T469 374V371Q490 363 510 350T545 318T569 274T578 218Q578 165 556 122T496 48T406 1T293 -16Q235 -16 188
-3T108 36T56 98T38 181Q38 221 51 255T88 314T143 358T211 385V388Q174 405 149 441T123 529Q123 578 143 619T199 690T282 735T383 752ZM379 655Q349 655 325 644T285 615T260 572T251 519Q251 471 281 447T357 422Q384 422 407 431T448 458T475 500T485 555Q485
603 455 629T379 655ZM297 80Q332 80 359 91T405 120T434 164T444 220Q444 248 434 268T407 301T367 321T319 328Q253 328 214 290T174 188Q174 132 209 106T297 80Z" />
<glyph unicode="9" glyph-name="nine" horiz-adv-x="642" d="M381 646Q345 646 318 632T272 594T244 540T234 478Q235 426 263 397T343 367Q379 367 407 380T454 416T483 469T493 531Q492 583 463 614T381 646ZM267 -15Q218 -15 178 -3T108 32T65 91T53 175H178Q178
124 205 105T271 85Q314 85 347 104T406 160T448 245T478 355H474Q445 311 399 288T296 265Q251 265 215 279T154 319T114 381T100 463Q100 526 122 579T183 671T274 730T388 752Q453 752 498 732T571 677T613 598T626 503Q626 408 605 315T539 149T427 30T267
-15Z" />
<glyph unicode=":" glyph-name="colon" horiz-adv-x="279" d="M122 527H271L242 380H94L122 527ZM20 0L48 147H197L169 0H20Z" />
<glyph unicode=";" glyph-name="semicolon" horiz-adv-x="289" d="M135 527H284L255 380H106L135 527ZM-23 -117L60 147H206L66 -117H-23Z" />
<glyph unicode="&lt;" glyph-name="less" horiz-adv-x="591" d="M52 301L66 369L589 607L567 484L210 328L504 168L483 60L52 301Z" />
<glyph unicode="=" glyph-name="equal" horiz-adv-x="636" d="M133 505H598L578 404H113L133 505ZM75 207L95 308H560L540 207H75Z" />
<glyph unicode="&gt;" glyph-name="greater" horiz-adv-x="591" d="M572 368L558 299L36 62L58 184L414 341L120 501L141 607L572 368Z" />
<glyph unicode="?" glyph-name="question" horiz-adv-x="572" d="M229 235L241 294Q246 319 251 336T267 368T293 397T335 428L395 468Q433 493 453 522T473 595Q473 639 446 665T367 691Q304 691 268 653T227 534H100Q103 594 122 642T175 724T260 777T375 796Q426
796 468 783T541 744T587 684T604 606Q604 566 594 535T566 478T524 431T472 391L411 349Q396 338 387 331T371 315T362 296T355 271L348 235H229ZM196 140H348L321 0H169L196 140Z" />
<glyph unicode="@" glyph-name="at" horiz-adv-x="1004" d="M721 56Q661 56 626 79T585 150H582Q558 108 521 82T427 56Q353 56 313 104T271 231Q270 282 285 332T330 421T401 486T498 511Q549 511 578 489T618 434H620L632 495H741L685 223Q675 177 688 151T742
125Q764 125 788 137T832 177T865 249T880 356Q880 426 857 484T789 585T683 652T543 676Q460 676 385 643T253 551T163 413T128 241Q128 158 152 91T223 -23T333 -95T475 -121Q557 -121 624 -97T737 -37L775 -85Q722 -127 647 -156T465 -185Q372 -185 295 -155T163
-68T78 66T49 241Q50 349 90 440T197 598T354 702T545 740Q637 740 713 713T844 637T929 519T959 364Q959 278 937 220T881 125T804 72T721 56ZM462 137Q504 137 537 171T581 259L590 303Q595 326 594 349T583 390T558 419T516 430Q483 430 459 411T419 363T396
299T388 231Q388 189 406 163T462 137Z" />
<glyph unicode="A" glyph-name="A" horiz-adv-x="738" d="M430 644Q429 641 417 610T378 528L262 294H478L444 526Q439 553 438 574T434 612Q432 630 432 644H430ZM494 192H211L114 0H-21L377 765H531L661 0H524L494 192Z" />
<glyph unicode="B" glyph-name="B" horiz-adv-x="709" d="M36 0L184 765H454Q506 765 548 754T621 721T667 666T684 589Q684 511 643 466T530 404V401Q589 388 623 346T657 241Q657 179 634 134T571 59T475 15T356 0H36ZM404 447Q475 447 513 478T551 573Q551
618 522 641T438 665H301L258 447H404ZM355 101Q390 101 421 109T475 134T511 179T525 245Q525 299 490 324T390 350H240L191 101H355Z" />
<glyph unicode="C" glyph-name="C" horiz-adv-x="758" d="M610 517Q608 591 573 631T469 671Q422 671 385 654T320 607T273 539T241 457T223 368T217 282Q217 244 225 209T252 147T303 104T382 88Q458 88 505 132T570 252H708Q696 189 667 139T595 55T497 2T376
-16Q232 -16 153 64T73 301Q73 358 84 415T117 525T173 624T251 703T352 756T477 776Q535 776 585 761T671 714T728 633T750 517H610Z" />
<glyph unicode="D" glyph-name="D" horiz-adv-x="757" d="M183 765H415Q486 765 545 747T646 690T711 595T734 461Q734 367 708 284T629 137T495 37T304 0H36L183 765ZM317 108Q400 108 453 144T537 234T579 351T591 468Q591 521 578 557T539 615T480 648T403
658H299L192 108H317Z" />
<glyph unicode="E" glyph-name="E" horiz-adv-x="644" d="M184 765H667L646 655H299L257 437H583L562 330H236L193 109H551L530 0H36L184 765Z" />
<glyph unicode="F" glyph-name="F" horiz-adv-x="595" d="M172 0H36L184 765H646L625 655H299L252 413H556L536 306H231L172 0Z" />
<glyph unicode="G" glyph-name="G" horiz-adv-x="797" d="M615 544Q616 606 581 639T481 673Q429 673 389 654T320 603T270 530T238 445T221 358T215 279Q215 243 223 209T250 147T301 104T379 87Q426 87 462 102T524 143T567 204T592 281L595 296H410L431 400H751L673
0H563L585 114H582Q555 57 496 21T353 -15Q283 -15 231 7T143 69T90 164T72 286Q72 371 96 458T171 616T300 731T488 776Q546 776 595 762T679 720T734 648T754 544H615Z" />
<glyph unicode="H" glyph-name="H" horiz-adv-x="771" d="M170 0H34L182 765H318L255 439H585L648 765H785L637 0H500L563 328H233L170 0Z" />
<glyph unicode="I" glyph-name="I" horiz-adv-x="306" d="M185 765H321L173 0H37L185 765Z" />
<glyph unicode="J" glyph-name="J" horiz-adv-x="429" d="M-20 -3L2 109H57Q99 109 126 117T169 141T195 181T211 237L314 765H450L344 221Q333 162 313 120T260 51T177 10T58 -3H-20Z" />
<glyph unicode="K" glyph-name="K" horiz-adv-x="713" d="M172 0H36L184 765H320L250 401L613 765H774L435 435L642 0H495L332 343L217 233L172 0Z" />
<glyph unicode="L" glyph-name="L" horiz-adv-x="594" d="M184 765H320L193 111H534L512 0H36L184 765Z" />
<glyph unicode="M" glyph-name="M" horiz-adv-x="933" d="M183 765H378L438 320Q441 297 443 275T447 234Q449 212 450 192H452Q461 212 471 233Q479 251 490 273T512 317L745 765H947L799 0H667L788 621H785Q774 600 763 576Q753 556 741 531T715 479L464 0H359L297
479Q293 505 291 530T287 575Q285 599 284 621H281L160 0H36L183 765Z" />
<glyph unicode="N" glyph-name="N" horiz-adv-x="770" d="M184 765H334L515 285Q523 263 528 245T538 214Q542 198 544 186H547L659 765H783L635 0H494L308 484Q299 507 293 525T283 558Q279 573 276 585H273L160 0H36L184 765Z" />
<glyph unicode="O" glyph-name="O" horiz-adv-x="803" d="M72 291Q72 392 101 480T182 634T309 738T475 776Q542 776 598 755T694 694T756 596T778 464Q778 374 752 288T676 134T551 25T378 -16Q311 -16 255 4T159 62T95 158T72 291ZM634 478Q634 516 626 551T598
613T547 656T470 673Q423 673 386 655T320 606T272 535T240 451T221 363T215 279Q215 243 223 209T251 148T303 105T383 88Q428 88 464 106T528 155T576 226T609 309T628 396T634 478Z" />
<glyph unicode="P" glyph-name="P" horiz-adv-x="643" d="M224 273L172 0H36L184 765H411Q466 765 512 752T591 713T642 647T660 553Q660 483 637 431T572 343T473 291T348 273H224ZM357 377Q435 377 480 420T525 548Q525 608 493 635T397 662H301L245 377H357Z" />
<glyph unicode="Q" glyph-name="Q" horiz-adv-x="803" d="M373 -13Q306 -13 251 7T156 65T94 160T72 291Q72 390 100 478T180 633T307 737T475 776Q542 776 598 755T694 694T756 596T778 464Q778 392 764 330T724 217T663 127T588 61V56Q643 48 677 24T740 -49L619
-120Q601 -89 584 -68T548 -33T507 -14T457 -8Q436 -8 419 -10T373 -13ZM385 87Q431 87 467 105T531 153T578 223T610 306T628 394T634 478Q634 516 626 551T598 613T547 656T470 673Q423 673 386 655T320 606T272 535T240 451T221 363T215 279Q215 243 223 209T252
147T304 104T385 87Z" />
<glyph unicode="R" glyph-name="R" horiz-adv-x="692" d="M390 405Q461 405 501 443T541 557Q541 611 512 638T416 665H300L249 405H390ZM171 0H36L183 765H431Q523 765 585 730Q628 706 653 665T679 560Q679 519 669 482T636 415T580 361T500 325V322L624 0H482L370
303H231L171 0Z" />
<glyph unicode="S" glyph-name="S" horiz-adv-x="671" d="M178 223Q175 90 322 90Q352 90 380 98T429 121T463 160T476 215Q476 252 453 275T379 315L287 344Q196 373 157 421T117 540Q117 596 139 640T200 714T289 760T400 776Q455 776 502 762T583 721T635 652T650
553H513Q516 607 486 640T393 673Q365 673 340 666T297 644T268 610T257 564Q257 528 278 505T352 465L444 436Q538 407 577 360T616 240Q616 182 594 135T532 55T438 3T317 -15Q255 -15 202 -1T111 43T52 118T36 223H178Z" />
<glyph unicode="T" glyph-name="T" horiz-adv-x="637" d="M337 0H200L327 654H96L118 765H715L694 654H464L337 0Z" />
<glyph unicode="U" glyph-name="U" horiz-adv-x="744" d="M174 765H311L223 315Q213 264 212 220T229 147Q246 120 278 108T354 95Q398 95 430 107T488 146Q514 174 523 210T542 291L633 765H768L669 252Q643 115 563 50T349 -15Q275 -15 219 3T127 60T80 156T83
294L174 765Z" />
<glyph unicode="V" glyph-name="V" horiz-adv-x="722" d="M125 765H264L325 256Q329 225 330 202T333 162Q334 143 333 129H335Q339 141 346 159Q352 174 361 195T385 244L656 765H794L388 0H231L125 765Z" />
<glyph unicode="W" glyph-name="W" horiz-adv-x="1036" d="M174 0L121 765H256L281 302Q283 269 283 244T282 200Q281 179 280 164H282Q287 180 294 199Q307 234 332 289L549 765H680L713 301Q715 269 716 243T717 200Q717 179 716 164H718Q723 180 729 199Q734
216 742 238T764 289L975 765H1104L755 0H618L587 476Q585 508 584 533T583 575Q583 594 584 609H582Q578 595 571 577Q565 561 556 539T534 489L313 0H174Z" />
<glyph unicode="X" glyph-name="X" horiz-adv-x="727" d="M310 401L151 765H299L409 499H411L623 765H771L468 396L645 0H492L369 297H368L131 0H-16L310 401Z" />
<glyph unicode="Y" glyph-name="Y" horiz-adv-x="668" d="M280 332L110 765H256L370 446H372L611 765H756L412 315L351 0H215L280 332Z" />
<glyph unicode="Z" glyph-name="Z" horiz-adv-x="641" d="M155 765H693L674 668L180 111H572L551 0H-10L8 97L502 654H133L155 765Z" />
<glyph unicode="[" glyph-name="bracketleft" horiz-adv-x="367" d="M197 788H439L423 702H292L147 -44H277L260 -130H18L197 788Z" />
<glyph unicode="\" glyph-name="backslash" horiz-adv-x="540" d="M113 788H215L486 -130H382L113 788Z" />
<glyph unicode="]" glyph-name="bracketright" horiz-adv-x="381" d="M201 -130H-41L-25 -44H106L252 702H121L138 788H380L201 -130Z" />
<glyph unicode="^" glyph-name="asciicircum" horiz-adv-x="409" d="M448 499H356L288 678H287L150 499H52L261 788H353L448 499Z" />
<glyph unicode="_" glyph-name="underscore" horiz-adv-x="396" d="M-53 -102H334L318 -190H-69L-53 -102Z" />
<glyph unicode="`" glyph-name="grave" horiz-adv-x="281" d="M249 618H151L68 788H200L249 618Z" />
<glyph unicode="a" glyph-name="a" horiz-adv-x="564" d="M226 83Q273 83 308 121T357 230L360 245Q325 244 293 243T228 235Q195 228 173 208T151 154Q151 121 171 102T226 83ZM81 379Q90 458 150 501T312 545Q372 545 413 529T477 483T506 413T503 323L469 149Q463
118 473 106T507 95L488 -2H456Q409 -2 382 16T349 74H346Q316 36 280 15T182 -7Q149 -7 120 2T68 30T32 77T19 144Q19 210 58 249T166 306Q215 318 268 319T375 322L380 348Q390 399 370 426T303 454Q265 454 240 437T210 379H81Z" />
<glyph unicode="b" glyph-name="b" horiz-adv-x="621" d="M179 788H312L245 447H247Q273 490 314 517T416 545Q502 545 544 488T587 336Q587 280 573 219T527 106T445 21T325 -13Q276 -13 233 10T171 86H169L153 0H26L179 788ZM304 80Q347 80 375 107T421 173T445
255T453 333Q453 388 431 418T363 449Q335 449 311 438T268 408T235 363T216 307L203 244Q197 212 198 183T211 130T245 94T304 80Z" />
<glyph unicode="c" glyph-name="c" horiz-adv-x="567" d="M414 352Q416 395 396 424T328 454Q287 454 258 431T210 371T182 290T173 206Q173 180 178 157T196 117T228 90T276 80Q303 80 324 89T359 114T383 148T395 189H523Q515 139 493 101T436 38T360 -1T270
-14Q165 -14 102 43T39 210Q39 274 57 334T113 442T206 517T335 546Q434 546 490 496T544 352H414Z" />
<glyph unicode="d" glyph-name="d" horiz-adv-x="624" d="M330 450Q289 450 260 426T211 365T183 283T174 196Q174 145 194 113T264 81Q292 81 316 92T360 122T393 167T412 224L424 285Q431 318 430 347T419 400T387 436T330 450ZM499 0H372L388 82H386Q360 43
320 15T223 -13Q177 -13 143 2T86 45T52 111T40 197Q40 257 56 318T106 430T190 513T307 545Q366 545 401 521T454 454H455L520 788H652L499 0Z" />
<glyph unicode="e" glyph-name="e" horiz-adv-x="571" d="M407 323Q416 382 397 420T321 458Q294 458 272 447T233 417T204 373T184 317H406L407 323ZM504 150Q486 69 423 28T264 -14Q210 -14 168 2T97 46T53 115T37 206Q37 271 56 332T112 441T204 517T330 546Q396
546 439 524T506 463T535 375T530 271L523 234H171Q170 226 170 219T170 203Q170 177 175 155T193 116T224 90T272 80Q320 80 343 101T374 150H504Z" />
<glyph unicode="f" glyph-name="f" horiz-adv-x="358" d="M180 0H51L135 437H56L75 533H154L172 627Q181 675 199 707T244 758T303 785T376 793Q402 793 422 790T448 785L430 689Q425 690 415 691T387 692Q350 692 329 676T300 620L283 533H392L373 437H265L180 0Z" />
<glyph unicode="g" glyph-name="g" horiz-adv-x="620" d="M424 292Q430 323 430 351T419 402T387 437T331 450Q289 450 260 427T211 367T183 288T174 205Q175 158 196 128T270 98Q298 98 321 109T364 139T395 183T414 237L424 292ZM135 -37Q136 -72 161 -90T229
-109Q292 -109 325 -73T373 32L385 94H383Q371 77 356 62T322 34T277 15T222 8Q134 8 87 58T40 202Q40 263 57 324T109 435T194 514T310 545Q368 545 405 520T458 450H459L476 533H602L504 32Q481 -89 410 -144T221 -199Q118 -199 64 -157T9 -37H135Z" />
<glyph unicode="h" glyph-name="h" horiz-adv-x="616" d="M425 310Q431 339 432 362T425 400Q420 421 404 432T358 444Q301 444 264 401T213 282L159 0H26L179 788H311L244 445H246Q273 490 317 517T420 545Q505 545 543 490T559 325L497 0H365L425 310Z" />
<glyph unicode="i" glyph-name="i" horiz-adv-x="284" d="M173 762H307L282 635H148L173 762ZM129 533H261L158 0H26L129 533Z" />
<glyph unicode="j" glyph-name="j" horiz-adv-x="286" d="M175 762H310L285 635H150L175 762ZM-42 -204Q-76 -204 -93 -199T-117 -192L-98 -96Q-93 -98 -82 -100T-56 -102Q-24 -102 -5 -87T21 -34L132 533H264L151 -44Q142 -89 124 -120T81 -169T24 -196T-42 -204Z" />
<glyph unicode="k" glyph-name="k" horiz-adv-x="574" d="M156 0H26L179 788H309L214 300L446 533H594L369 316L507 0H368L267 231L185 148L156 0Z" />
<glyph unicode="l" glyph-name="l" horiz-adv-x="283" d="M179 788H311L158 0H26L179 788Z" />
<glyph unicode="m" glyph-name="m" horiz-adv-x="940" d="M746 306Q754 344 754 369Q754 404 738 424T681 444Q630 444 593 402T542 282L488 0H357L416 306Q419 323 421 339T423 369Q423 404 408 424T351 444Q299 444 263 402T212 282L159 0H26L129 533H256L238
441H240Q269 487 313 516T414 545Q478 545 509 512T548 429H550Q588 489 637 517T743 545Q828 545 865 489T881 325L818 0H687L746 306Z" />
<glyph unicode="n" glyph-name="n" horiz-adv-x="619" d="M424 306Q432 343 432 369Q432 404 416 424T358 444Q301 444 264 401T212 282L159 0H26L129 533H256L238 441H240Q268 488 314 516T420 545Q505 545 542 490T559 326L497 0H365L424 306Z" />
<glyph unicode="o" glyph-name="o" horiz-adv-x="588" d="M265 -14Q158 -14 98 44T38 206Q38 269 56 330T111 439T201 516T327 546Q381 546 423 531T495 486T539 417T555 327Q555 261 536 199T480 90T389 15T265 -14ZM421 336Q421 357 417 378T401 416T372 443T324
454Q282 454 253 428T206 364T180 281T172 199Q172 176 176 155T192 116T222 89T270 79Q315 79 344 107T391 174T414 258T421 336Z" />
<glyph unicode="p" glyph-name="p" horiz-adv-x="621" d="M305 80Q345 80 373 104T419 166T445 248T453 333Q453 383 433 416T363 449Q335 449 311 438T268 408T235 363T216 307L203 245Q197 213 198 184T211 131T246 94T305 80ZM129 533H257L240 445H241Q267
487 311 516T416 545Q502 545 544 488T587 336Q587 279 573 218T527 105T445 21T324 -13Q273 -13 232 11T175 79H173L122 -188H-11L129 533Z" />
<glyph unicode="q" glyph-name="q" horiz-adv-x="623" d="M462 -188H330L380 73H378Q367 56 352 41T318 13T275 -6T221 -13Q176 -13 142 2T86 46T52 112T40 197Q40 257 56 318T106 430T189 513T307 545Q367 545 403 520T456 453H458L474 533H602L462 -188ZM263
81Q291 81 316 92T360 122T392 167T412 224L424 285Q431 318 430 347T419 400T387 436T330 450Q289 450 260 426T211 365T183 283T174 196Q174 145 194 113T263 81Z" />
<glyph unicode="r" glyph-name="r" horiz-adv-x="407" d="M129 533H254L232 423H235Q265 478 313 510T423 542H429L405 413H395Q318 413 271 378T206 256L157 0H26L129 533Z" />
<glyph unicode="s" glyph-name="s" horiz-adv-x="514" d="M361 385Q363 422 339 439T277 457Q261 457 246 453T218 440T199 419T191 390Q191 367 205 352T255 329L319 314Q395 296 426 260T457 169Q457 125 440 91T393 33T322 -2T231 -14Q190 -14 151 -6T82 23T33
76T17 159H139Q137 117 163 96T235 75Q274 75 304 92T334 148Q334 169 319 185T266 210L204 225Q134 242 101 276T68 371Q68 414 85 447T132 502T200 535T282 546Q326 546 363 537T428 507T469 457T480 385H361Z" />
<glyph unicode="t" glyph-name="t" horiz-adv-x="380" d="M316 684L286 533H406L387 437H268L217 177Q207 129 219 112T274 94Q282 94 290 94T306 96Q314 97 320 99L300 -1Q293 -2 272 -5T230 -8Q147 -8 108 33T86 167L138 437H57L76 531H90Q114 531 131 535T160
551T180 586T196 645L204 684H316Z" />
<glyph unicode="u" glyph-name="u" horiz-adv-x="612" d="M196 225Q193 208 191 193T189 165Q188 127 205 108T261 89Q316 89 352 132T404 256L458 533H590L486 0H360L378 91H376Q348 46 305 18T205 -11Q115 -11 77 44T60 206L123 533H255L196 225Z" />
<glyph unicode="v" glyph-name="v" horiz-adv-x="540" d="M71 533H200L238 246Q241 224 242 204T246 166Q247 147 248 130H250Q257 148 265 166Q272 182 280 201T299 241L447 533H577L293 0H156L71 533Z" />
<glyph unicode="w" glyph-name="w" horiz-adv-x="815" d="M67 533H190L210 245Q212 225 212 206T212 169V132H214Q221 150 228 168Q234 184 242 203T258 239L400 533H515L545 241Q547 224 548 205T550 169Q551 150 551 131H553L565 167Q570 183 577 201T592 237L724
533H844L596 0H467L440 267Q438 288 437 311T434 353Q433 375 433 396H431Q423 375 414 354Q406 336 397 315T379 274L249 0H120L67 533Z" />
<glyph unicode="x" glyph-name="x" horiz-adv-x="537" d="M195 285L81 533H218L289 362H291L419 533H560L348 273L475 0H334L254 195H252L105 0H-37L195 285Z" />
<glyph unicode="y" glyph-name="y" horiz-adv-x="542" d="M75 533H207L246 234Q250 194 252 164Q253 147 253 133H255Q261 146 267 162Q272 175 279 192T296 227L443 533H575L276 -36Q253 -80 231 -110T182 -160T122 -189T44 -199Q12 -199 -8 -195T-32 -189L-12
-90Q-4 -92 8 -94T37 -96Q80 -96 105 -79T152 -20L163 1L75 533Z" />
<glyph unicode="z" glyph-name="z" horiz-adv-x="527" d="M113 533H533L515 437L176 102H454L434 0H-2L16 96L354 432H93L113 533Z" />
<glyph unicode="{" glyph-name="braceleft" horiz-adv-x="397" d="M55 287L75 383H102Q141 383 156 398T180 453L214 632Q223 681 243 714T296 766T372 791T474 792L458 711Q420 713 396 708T355 689T330 656T316 607L286 447Q278 403 259 375T187 339V335Q210
329 222 316T240 286T244 248T238 205L209 59Q203 28 205 8T220 -24T255 -43T313 -53L296 -134Q240 -132 199 -121T134 -87T101 -28T103 62L132 213Q140 253 128 270T83 287H55Z" />
<glyph unicode="|" glyph-name="bar" horiz-adv-x="279" d="M198 788H292L113 -130H19L198 788Z" />
<glyph unicode="}" glyph-name="braceright" horiz-adv-x="407" d="M375 374L356 277H328Q289 277 274 262T251 208L216 28Q197 -70 134 -106T-44 -132L-28 -50Q9 -52 34 -47T75 -29T100 4T114 53L141 200Q145 222 152 243T171 280T200 307T243 321V325Q220 331
208 344T190 374T186 411T192 455L221 601Q227 632 225 652T211 685T176 704T118 713L134 794Q189 792 230 781T296 747T329 687T327 594L298 447Q290 408 302 391T347 374H375Z" />
<glyph unicode="~" glyph-name="asciitilde" horiz-adv-x="448" d="M26 268Q31 302 42 330T71 380T114 413T171 425Q195 425 213 417T247 398T276 380T304 371Q320 371 334 383T355 426H445Q435 350 400 310T304 269Q280 269 261 277T226 296T194 314T165 323Q148
323 134 310T115 268H26Z" />
<glyph unicode="&#xa0;" glyph-name="uni00A0" horiz-adv-x="205" />
<glyph unicode="&#xa1;" glyph-name="exclamdown" horiz-adv-x="297" d="M155 -116H3L139 431H240L155 -116ZM310 672L283 532H131L158 672H310Z" />
<glyph unicode="&#xa2;" glyph-name="cent" horiz-adv-x="567" d="M296 455Q263 446 239 420T200 358T177 283T169 207Q169 163 182 132T224 85L296 455ZM523 189Q515 139 493 102T438 39T364 0T276 -14L256 -116H185L206 -8Q128 8 84 62T39 210Q39 272 56 330T108
435T194 511T314 545L331 635H402L384 542Q461 531 503 483T544 352H418Q420 390 408 416T367 453L293 75Q317 78 335 88T366 114T387 149T398 189H523Z" />
<glyph unicode="&#xa3;" glyph-name="sterling" horiz-adv-x="627" d="M532 0H24L40 84L76 108Q106 128 128 146T165 187T184 237T185 307H75L92 395H171L164 440Q153 509 164 566T208 664T295 729T423 752Q483 752 527 736T599 690T636 619T637 529H507Q516 588
493 622T413 656Q342 656 312 603T293 466L302 395H507L490 307H312Q314 247 292 205T213 122L199 112V110H553L532 0Z" />
<glyph unicode="&#xa4;" glyph-name="currency" horiz-adv-x="631" d="M218 347Q218 302 244 273T314 244Q359 244 385 273T411 347Q411 393 385 422T314 452Q270 452 244 423T218 347ZM131 347Q131 372 136 394T152 435L61 525L137 601L227 510Q246 520 267 525T314
531Q339 531 361 525T404 508L496 603L571 528L476 435Q498 394 498 347Q498 299 476 260L569 169L494 93L402 186Q363 165 314 165Q265 165 227 185L136 92L61 167L153 258Q131 299 131 347Z" />
<glyph unicode="&#xa5;" glyph-name="yen" horiz-adv-x="621" d="M223 159H30L45 233H237L254 318H59L73 392H252L113 741H252L346 480H348L543 741H690L415 392H593L579 318H383L367 233H564L550 159H353L322 0H192L223 159Z" />
<glyph unicode="&#xa6;" glyph-name="brokenbar" horiz-adv-x="285" d="M211 385H117L196 788H289L211 385ZM17 -130L99 294H193L110 -130H17Z" />
<glyph unicode="&#xa7;" glyph-name="section" horiz-adv-x="607" d="M262 433Q247 431 233 426T208 412T190 390T183 360Q183 337 195 322T234 290L337 231Q339 229 343 227T353 222Q358 218 364 215Q396 218 418 236T441 289Q441 310 429 327T383 363L285 418Q268
428 262 433ZM63 333Q63 396 97 432T193 486V487Q178 506 169 528T159 582Q159 624 175 657T219 713T288 749T378 762Q423 762 460 750T524 715T563 662T574 594H453Q456 629 437 651T372 673Q337 673 312 655T286 598Q286 573 299 558T342 526L457 462Q508 433
535 400T562 316Q563 255 530 216T434 159V158Q451 140 457 118T465 71Q465 25 447 -9T398 -67T325 -102T234 -114Q187 -114 149 -103T84 -69T44 -13T33 62H151Q148 23 170 -1T242 -25Q260 -25 277 -21T307 -7T329 16T338 49Q338 73 327 88T293 116L175 183Q148
198 128 213T93 245T71 284T63 333Z" />
<glyph unicode="&#xa8;" glyph-name="dieresis" horiz-adv-x="362" d="M321 763H439L415 640H297L321 763ZM121 763H239L215 640H97L121 763Z" />
<glyph unicode="&#xa9;" glyph-name="copyright" horiz-adv-x="900" d="M73 380Q73 464 103 536T185 662T310 746T467 777Q552 777 624 747T749 663T832 537T862 380Q862 296 832 224T749 98T624 15T467 -16Q382 -16 310 14T186 98T103 223T73 380ZM467 41Q538
41 598 67T703 138T772 246T797 380Q797 452 772 514T703 622T599 694T467 720Q396 720 336 694T232 622T163 514T138 380Q138 308 163 246T232 139T336 67T467 41ZM555 450Q557 483 542 503T488 524Q455 524 432 507T393 462T371 402T364 338Q364 298 382 271T444
244Q486 244 510 268T540 325H633Q621 248 567 209T437 169Q360 169 313 211T266 338Q266 387 280 434T323 517T394 576T493 599Q571 599 611 561T650 450H555Z" />
<glyph unicode="&#xaa;" glyph-name="ordfeminine" horiz-adv-x="485" d="M252 389Q265 389 281 395T312 414T338 448T355 499L357 512Q306 512 274 507T225 488Q211 479 205 465T199 436Q199 389 252 389ZM136 617Q145 678 193 714T322 751Q418 751 457 707T481
583L453 441Q449 418 454 409T479 400L462 318H440Q415 318 398 320T370 330T352 349T342 381H340Q320 350 286 332T211 313Q151 313 118 343T85 424Q85 463 103 495T166 547Q202 563 249 568T368 575L372 593Q380 636 366 654T316 673Q287 673 269 658T247 617H136Z"
/>
<glyph unicode="&#xab;" glyph-name="guillemotleft" horiz-adv-x="533" d="M518 464L375 258L435 57H333L266 264L413 464H518ZM308 464L165 258L226 57H122L55 264L203 464H308Z" />
<glyph unicode="&#xac;" glyph-name="logicalnot" horiz-adv-x="615" d="M90 409H571L513 112H402L439 306H70L90 409Z" />
<glyph unicode="&#xae;" glyph-name="registered" horiz-adv-x="491" d="M86 557Q88 603 106 643T155 712T226 759T313 776Q360 776 399 759T465 713T507 643T519 557Q516 511 498 471T449 402T378 356T290 339Q243 339 205 356T139 402T98 471T86 557ZM292 377Q329
377 361 390T418 428T458 485T475 557Q477 596 466 629T432 686T379 724T311 738Q274 738 242 724T185 686T147 629T130 557Q128 518 139 485T171 428T224 391T292 377ZM309 578Q326 578 337 586T350 613Q351 641 316 641H286L277 578H309ZM256 452H204L240 677H332Q364
677 383 659T401 614Q400 588 385 572T346 548L380 452H325L297 539H270L256 452Z" />
<glyph unicode="&#xaf;" glyph-name="macron" horiz-adv-x="320" d="M87 732H405L387 640H69L87 732Z" />
<glyph unicode="&#xb0;" glyph-name="degree" horiz-adv-x="432" d="M112 594Q112 630 125 660T160 713T213 748T280 761Q316 761 347 749T400 714T434 661T446 594Q446 558 433 528T397 475T343 441T276 428Q240 428 210 440T158 475T124 528T112 594ZM277 497Q319
497 344 524T370 594Q370 637 346 664T279 692Q238 692 213 665T188 594Q187 552 211 525T277 497Z" />
<glyph unicode="&#xb1;" glyph-name="plusminus" horiz-adv-x="630" d="M356 184H244L279 362H95L115 464H299L333 640H444L410 464H594L574 362H390L356 184ZM44 102H524L505 0H25L44 102Z" />
<glyph unicode="&#xb2;" glyph-name="twosuperior" horiz-adv-x="406" d="M122 674Q128 745 176 783T304 821Q366 821 406 794T446 708Q446 681 437 659T412 617T375 579T329 543L218 461V459H407L393 384H54L65 440L256 590Q301 625 325 647T349 701Q349 724
334 737T293 750Q266 750 244 735T217 674H122Z" />
<glyph unicode="&#xb3;" glyph-name="threesuperior" horiz-adv-x="414" d="M222 570L235 633H283Q315 633 336 652T358 700Q358 724 342 737T300 750Q271 750 251 735T226 688H130Q133 715 145 739T180 781T234 810T307 821Q375 821 415 793T455 713Q455 668
428 641T360 603V601Q392 592 411 571T431 512Q431 479 417 454T379 411T321 384T247 375Q170 375 127 409T89 510H184Q184 448 253 448Q291 448 311 467T332 516Q332 539 319 554T274 570H222Z" />
<glyph unicode="&#xb4;" glyph-name="acute" horiz-adv-x="362" d="M254 788H391L272 618H173L254 788Z" />
<glyph unicode="&#xb6;" glyph-name="paragraph" horiz-adv-x="556" d="M585 765L437 0H347L495 765H585ZM252 384Q176 386 130 431T84 553Q84 603 102 642T152 709T227 750T319 765H416L268 0H178L252 384Z" />
<glyph unicode="&#xb7;" glyph-name="periodcentered" horiz-adv-x="335" d="M114 408H264L236 262H86L114 408Z" />
<glyph unicode="&#xb8;" glyph-name="cedilla" horiz-adv-x="495" d="M222 23L175 -65H177Q187 -58 196 -56T221 -53Q250 -53 269 -72T288 -121Q288 -166 258 -193T170 -220Q152 -220 135 -216T105 -203T85 -180T78 -146H147Q150 -168 175 -168Q194 -168 203 -158T212
-132Q212 -118 206 -110T185 -102Q166 -102 156 -114H95L170 23H222Z" />
<glyph unicode="&#xb9;" glyph-name="onesuperior" horiz-adv-x="287" d="M198 672H106L120 743H135Q155 743 172 747T203 760Q228 776 237 816H326L236 385H138L198 672Z" />
<glyph unicode="&#xba;" glyph-name="ordmasculine" horiz-adv-x="469" d="M259 310Q171 310 122 356T72 484Q72 533 87 581T131 667T205 728T309 752Q398 751 447 704T497 578Q497 525 482 477T436 391T362 332T259 310ZM381 582Q381 597 378 612T366 640T343
660T306 668Q274 668 252 650T217 603T197 542T191 481Q191 464 194 448T206 420T229 400T266 392Q301 392 323 412T358 462T376 524T381 582Z" />
<glyph unicode="&#xbb;" glyph-name="guillemotright" horiz-adv-x="533" d="M18 57L162 263L102 464H205L271 258L124 57H18ZM232 57L376 263L316 464H419L485 258L338 57H232Z" />
<glyph unicode="&#xbc;" glyph-name="onequarter" horiz-adv-x="849" d="M188 621H96L110 692H125Q145 692 162 696T193 709Q218 725 227 765H316L226 334H128L188 621ZM654 165L696 359H693Q688 348 680 336Q673 325 663 312T639 284L529 165H654ZM728 95L708
1H618L637 95H418L432 163L683 431H799L744 170H800L785 95H728ZM718 781H817L123 -40H24L718 781Z" />
<glyph unicode="&#xbd;" glyph-name="onehalf" horiz-adv-x="896" d="M188 621H96L110 692H125Q145 692 162 696T193 709Q218 725 227 765H316L226 334H128L188 621ZM533 291Q539 362 587 400T715 438Q777 438 817 411T857 325Q857 298 848 276T823 234T786 196T740
160L629 78V76H818L804 1H465L476 57L667 207Q712 242 736 264T760 318Q760 341 745 354T704 367Q677 367 655 352T628 291H533ZM711 781H810L116 -40H17L711 781Z" />
<glyph unicode="&#xbe;" glyph-name="threequarters" horiz-adv-x="943" d="M212 520L225 583H273Q305 583 326 602T348 650Q348 674 332 687T290 700Q261 700 241 685T216 638H120Q123 665 135 689T170 731T224 760T297 771Q365 771 405 743T445 663Q445 618
418 591T350 553V551Q382 542 401 521T421 462Q421 429 407 404T369 361T311 334T237 325Q160 325 117 359T79 460H174Q174 398 243 398Q281 398 301 417T322 466Q322 489 309 504T264 520H212ZM748 165L790 359H787Q782 348 774 336Q767 325 757 312T733 284L623
165H748ZM822 95L802 1H712L731 95H512L526 163L777 431H893L838 170H894L879 95H822ZM826 781H925L231 -40H132L826 781Z" />
<glyph unicode="&#xbf;" glyph-name="questiondown" horiz-adv-x="572" d="M369 437L357 378Q352 353 347 336T331 304T305 275T263 244L203 204Q165 179 145 150T125 77Q125 33 152 7T231 -19Q294 -19 330 19T371 138H498Q495 78 476 30T423 -52T338 -105T223
-124Q172 -124 130 -111T57 -72T11 -12T-6 66Q-6 106 4 137T32 194T74 241T126 281L187 323Q202 334 211 341T227 357T236 376T243 401L250 437H369ZM402 532H250L277 672H429L402 532Z" />
<glyph unicode="&#xc0;" glyph-name="Agrave" horiz-adv-x="738" d="M430 644Q429 641 417 610T378 528L262 294H478L444 526Q439 553 438 574T434 612Q432 630 432 644H430ZM494 192H211L114 0H-21L377 765H531L661 0H524L494 192ZM521 827H424L351 960H479L521 827Z" />
<glyph unicode="&#xc1;" glyph-name="Aacute" horiz-adv-x="738" d="M430 644Q429 641 417 610T378 528L262 294H478L444 526Q439 553 438 574T434 612Q432 630 432 644H430ZM494 192H211L114 0H-21L377 765H531L661 0H524L494 192ZM492 960H628L508 827H410L492 960Z" />
<glyph unicode="&#xc2;" glyph-name="Acircumflex" horiz-adv-x="738" d="M430 644Q429 641 417 610T378 528L262 294H478L444 526Q439 553 438 574T434 612Q432 630 432 644H430ZM494 192H211L114 0H-21L377 765H531L661 0H524L494 192ZM618 827H522L472 890H471L399
827H300L421 960H540L618 827Z" />
<glyph unicode="&#xc3;" glyph-name="Atilde" horiz-adv-x="738" d="M430 644Q429 641 417 610T378 528L262 294H478L444 526Q439 553 438 574T434 612Q432 630 432 644H430ZM494 192H211L114 0H-21L377 765H531L661 0H524L494 192ZM284 822Q288 849 298 875T326
923T368 957T425 970Q449 970 466 962T497 943T524 925T552 916Q572 916 584 928T606 971H679Q675 941 665 915T637 868T597 836T544 824Q518 824 500 832T467 850T439 868T411 877Q397 877 383 866T356 822H284Z" />
<glyph unicode="&#xc4;" glyph-name="Adieresis" horiz-adv-x="738" d="M430 644Q429 641 417 610T378 528L262 294H478L444 526Q439 553 438 574T434 612Q432 630 432 644H430ZM494 192H211L114 0H-21L377 765H531L661 0H524L494 192ZM537 949H655L631 826H513L537
949ZM326 949H444L420 826H302L326 949Z" />
<glyph unicode="&#xc5;" glyph-name="Aring" horiz-adv-x="738" d="M430 644Q429 641 417 610T378 528L262 294H478L444 526Q439 553 438 574T434 612Q432 630 432 644H430ZM494 192H211L114 0H-21L377 765H531L661 0H524L494 192ZM469 800Q418 802 385 829T351
907Q351 935 360 959T387 999T428 1025T480 1035Q538 1035 568 1005T599 928Q599 869 563 835T469 800ZM481 978Q454 978 439 960T423 909Q423 886 435 872T471 857Q497 857 512 875T528 925Q528 948 516 963T481 978Z" />
<glyph unicode="&#xc6;" glyph-name="AE" horiz-adv-x="1036" d="M553 655H490Q473 623 456 592T424 537L281 302H485L553 655ZM465 199H219L98 0H-49L424 765H1059L1038 655H690L648 437H975L954 330H627L584 109H942L921 0H427L465 199Z" />
<glyph unicode="&#xc7;" glyph-name="Ccedilla" horiz-adv-x="758" d="M319 -220Q301 -220 284 -216T254 -203T234 -180T227 -146H296Q299 -168 324 -168Q343 -168 352 -158T361 -132Q361 -118 355 -110T334 -102Q315 -102 305 -114H244L301 -10Q192 10 133 88T73
301Q73 358 84 415T117 525T173 624T251 703T352 756T477 776Q535 776 585 761T671 714T728 633T750 517H610Q608 591 573 631T469 671Q422 671 385 654T320 607T273 539T241 457T223 368T217 282Q217 244 225 209T252 147T303 104T382 88Q458 88 505 132T570 252H708Q696
189 667 139T595 55T497 2T376 -16Q369 -16 363 -16T351 -15L324 -65H326Q336 -58 345 -56T370 -53Q399 -53 418 -72T437 -121Q437 -166 407 -193T319 -220Z" />
<glyph unicode="&#xc8;" glyph-name="Egrave" horiz-adv-x="644" d="M494 827H397L324 960H452L494 827ZM184 765H667L646 655H299L257 437H583L562 330H236L193 109H551L530 0H36L184 765Z" />
<glyph unicode="&#xc9;" glyph-name="Eacute" horiz-adv-x="644" d="M465 960H601L481 827H383L465 960ZM184 765H667L646 655H299L257 437H583L562 330H236L193 109H551L530 0H36L184 765Z" />
<glyph unicode="&#xca;" glyph-name="Ecircumflex" horiz-adv-x="644" d="M599 827H503L453 890H452L380 827H281L402 960H521L599 827ZM184 765H667L646 655H299L257 437H583L562 330H236L193 109H551L530 0H36L184 765Z" />
<glyph unicode="&#xcb;" glyph-name="Edieresis" horiz-adv-x="644" d="M184 765H667L646 655H299L257 437H583L562 330H236L193 109H551L530 0H36L184 765ZM510 949H628L604 826H486L510 949ZM299 949H417L393 826H275L299 949Z" />
<glyph unicode="&#xcc;" glyph-name="Igrave" horiz-adv-x="306" d="M185 765H321L173 0H37L185 765ZM319 827H222L149 960H277L319 827Z" />
<glyph unicode="&#xcd;" glyph-name="Iacute" horiz-adv-x="306" d="M185 765H321L173 0H37L185 765ZM290 960H426L306 827H208L290 960Z" />
<glyph unicode="&#xce;" glyph-name="Icircumflex" horiz-adv-x="306" d="M185 765H321L173 0H37L185 765ZM424 827H328L278 890H277L205 827H106L227 960H346L424 827Z" />
<glyph unicode="&#xcf;" glyph-name="Idieresis" horiz-adv-x="306" d="M185 765H321L173 0H37L185 765ZM335 949H453L429 826H311L335 949ZM124 949H242L218 826H100L124 949Z" />
<glyph unicode="&#xd0;" glyph-name="Eth" horiz-adv-x="767" d="M46 0L110 335H33L52 435H130L193 765H426Q497 765 555 747T656 690T721 595T745 461Q745 367 719 284T640 137T506 37T315 0H46ZM327 108Q410 108 463 144T547 234T590 351T602 468Q602 521 589
557T550 615T490 648T413 658H309L266 435H446L427 335H246L202 108H327Z" />
<glyph unicode="&#xd1;" glyph-name="Ntilde" horiz-adv-x="770" d="M312 822Q316 849 326 875T354 923T396 957T453 970Q477 970 494 962T525 943T552 925T580 916Q600 916 612 928T634 971H707Q703 941 693 915T665 868T625 836T572 824Q546 824 528 832T495
850T467 868T439 877Q425 877 411 866T384 822H312ZM184 765H334L515 285Q523 263 528 245T538 214Q542 198 544 186H547L659 765H783L635 0H494L308 484Q299 507 293 525T283 558Q279 573 276 585H273L160 0H36L184 765Z" />
<glyph unicode="&#xd2;" glyph-name="Ograve" horiz-adv-x="803" d="M563 827H466L393 960H521L563 827ZM72 291Q72 392 101 480T182 634T309 738T475 776Q542 776 598 755T694 694T756 596T778 464Q778 374 752 288T676 134T551 25T378 -16Q311 -16 255 4T159
62T95 158T72 291ZM634 478Q634 516 626 551T598 613T547 656T470 673Q423 673 386 655T320 606T272 535T240 451T221 363T215 279Q215 243 223 209T251 148T303 105T383 88Q428 88 464 106T528 155T576 226T609 309T628 396T634 478Z" />
<glyph unicode="&#xd3;" glyph-name="Oacute" horiz-adv-x="803" d="M535 960H671L551 827H453L535 960ZM72 291Q72 392 101 480T182 634T309 738T475 776Q542 776 598 755T694 694T756 596T778 464Q778 374 752 288T676 134T551 25T378 -16Q311 -16 255 4T159
62T95 158T72 291ZM634 478Q634 516 626 551T598 613T547 656T470 673Q423 673 386 655T320 606T272 535T240 451T221 363T215 279Q215 243 223 209T251 148T303 105T383 88Q428 88 464 106T528 155T576 226T609 309T628 396T634 478Z" />
<glyph unicode="&#xd4;" glyph-name="Ocircumflex" horiz-adv-x="803" d="M668 827H572L522 890H521L449 827H350L471 960H590L668 827ZM72 291Q72 392 101 480T182 634T309 738T475 776Q542 776 598 755T694 694T756 596T778 464Q778 374 752 288T676 134T551
25T378 -16Q311 -16 255 4T159 62T95 158T72 291ZM634 478Q634 516 626 551T598 613T547 656T470 673Q423 673 386 655T320 606T272 535T240 451T221 363T215 279Q215 243 223 209T251 148T303 105T383 88Q428 88 464 106T528 155T576 226T609 309T628 396T634
478Z" />
<glyph unicode="&#xd5;" glyph-name="Otilde" horiz-adv-x="803" d="M323 822Q327 849 337 875T365 923T407 957T464 970Q488 970 505 962T536 943T563 925T591 916Q611 916 623 928T645 971H718Q714 941 704 915T676 868T636 836T583 824Q557 824 539 832T506
850T478 868T450 877Q436 877 422 866T395 822H323ZM72 291Q72 392 101 480T182 634T309 738T475 776Q542 776 598 755T694 694T756 596T778 464Q778 374 752 288T676 134T551 25T378 -16Q311 -16 255 4T159 62T95 158T72 291ZM634 478Q634 516 626 551T598 613T547
656T470 673Q423 673 386 655T320 606T272 535T240 451T221 363T215 279Q215 243 223 209T251 148T303 105T383 88Q428 88 464 106T528 155T576 226T609 309T628 396T634 478Z" />
<glyph unicode="&#xd6;" glyph-name="Odieresis" horiz-adv-x="803" d="M580 949H698L674 826H556L580 949ZM369 949H487L463 826H345L369 949ZM72 291Q72 392 101 480T182 634T309 738T475 776Q542 776 598 755T694 694T756 596T778 464Q778 374 752 288T676
134T551 25T378 -16Q311 -16 255 4T159 62T95 158T72 291ZM634 478Q634 516 626 551T598 613T547 656T470 673Q423 673 386 655T320 606T272 535T240 451T221 363T215 279Q215 243 223 209T251 148T303 105T383 88Q428 88 464 106T528 155T576 226T609 309T628
396T634 478Z" />
<glyph unicode="&#xd7;" glyph-name="multiply" horiz-adv-x="638" d="M73 191L262 352L130 518L218 593L348 426L535 591L603 506L412 345L546 175L457 101L328 271L138 106L73 191Z" />
<glyph unicode="&#xd8;" glyph-name="Oslash" horiz-adv-x="803" d="M470 674Q422 674 384 655T317 605T268 533T236 448T217 360T211 279Q211 265 212 251T216 223L600 620Q581 645 550 659T470 674ZM383 87Q429 87 466 106T531 156T580 228T613 312T632 399T638
478Q638 514 632 547L244 147Q264 119 297 103T383 87ZM778 464Q778 374 752 288T676 134T551 25T378 -16Q312 -16 257 3T160 61L76 -26H-26L114 119Q94 154 83 196T72 291Q72 392 101 480T182 634T309 738T475 776Q602 776 682 705L765 790H868L730 648Q753 611
765 565T778 464Z" />
<glyph unicode="&#xd9;" glyph-name="Ugrave" horiz-adv-x="744" d="M532 827H435L362 960H490L532 827ZM174 765H311L223 315Q213 264 212 220T229 147Q246 120 278 108T354 95Q398 95 430 107T488 146Q514 174 523 210T542 291L633 765H768L669 252Q643 115
563 50T349 -15Q275 -15 219 3T127 60T80 156T83 294L174 765Z" />
<glyph unicode="&#xda;" glyph-name="Uacute" horiz-adv-x="744" d="M503 960H639L519 827H421L503 960ZM174 765H311L223 315Q213 264 212 220T229 147Q246 120 278 108T354 95Q398 95 430 107T488 146Q514 174 523 210T542 291L633 765H768L669 252Q643 115
563 50T349 -15Q275 -15 219 3T127 60T80 156T83 294L174 765Z" />
<glyph unicode="&#xdb;" glyph-name="Ucircumflex" horiz-adv-x="744" d="M636 827H540L490 890H489L417 827H318L439 960H558L636 827ZM174 765H311L223 315Q213 264 212 220T229 147Q246 120 278 108T354 95Q398 95 430 107T488 146Q514 174 523 210T542 291L633
765H768L669 252Q643 115 563 50T349 -15Q275 -15 219 3T127 60T80 156T83 294L174 765Z" />
<glyph unicode="&#xdc;" glyph-name="Udieresis" horiz-adv-x="744" d="M174 765H311L223 315Q213 264 212 220T229 147Q246 120 278 108T354 95Q398 95 430 107T488 146Q514 174 523 210T542 291L633 765H768L669 252Q643 115 563 50T349 -15Q275 -15 219 3T127
60T80 156T83 294L174 765ZM548 949H666L642 826H524L548 949ZM337 949H455L431 826H313L337 949Z" />
<glyph unicode="&#xdd;" glyph-name="Yacute" horiz-adv-x="668" d="M280 332L110 765H256L370 446H372L611 765H756L412 315L351 0H215L280 332ZM471 960H607L487 827H389L471 960Z" />
<glyph unicode="&#xde;" glyph-name="Thorn" horiz-adv-x="637" d="M203 161L172 0H36L184 765H321L293 621H388Q442 621 487 609T565 572T616 507T633 412Q632 347 610 300T549 222T457 176T343 161H203ZM346 262Q414 264 456 300T499 409Q500 469 465 495T365
522H274L223 262H346Z" />
<glyph unicode="&#xdf;" glyph-name="germandbls" horiz-adv-x="621" d="M130 572Q150 677 216 733T388 789Q433 789 470 777T535 742T577 684T592 606Q592 535 555 486T452 416V413Q505 399 538 356T572 246Q572 189 552 144T494 66T402 17T282 0H227L246 102H283Q317
102 345 111T394 139T426 185T438 248Q438 300 409 333T325 366H312L331 465H345Q406 465 437 502T469 599Q469 643 446 669T380 696Q336 696 306 666T262 571L152 0H21L130 572Z" />
<glyph unicode="&#xe0;" glyph-name="agrave" horiz-adv-x="564" d="M226 83Q273 83 308 121T357 230L360 245Q325 244 293 243T228 235Q195 228 173 208T151 154Q151 121 171 102T226 83ZM81 379Q90 458 150 501T312 545Q372 545 413 529T477 483T506 413T503
323L469 149Q463 118 473 106T507 95L488 -2H456Q409 -2 382 16T349 74H346Q316 36 280 15T182 -7Q149 -7 120 2T68 30T32 77T19 144Q19 210 58 249T166 306Q215 318 268 319T375 322L380 348Q390 399 370 426T303 454Q265 454 240 437T210 379H81ZM390 618H292L209
788H341L390 618Z" />
<glyph unicode="&#xe1;" glyph-name="aacute" horiz-adv-x="564" d="M226 83Q273 83 308 121T357 230L360 245Q325 244 293 243T228 235Q195 228 173 208T151 154Q151 121 171 102T226 83ZM81 379Q90 458 150 501T312 545Q372 545 413 529T477 483T506 413T503
323L469 149Q463 118 473 106T507 95L488 -2H456Q409 -2 382 16T349 74H346Q316 36 280 15T182 -7Q149 -7 120 2T68 30T32 77T19 144Q19 210 58 249T166 306Q215 318 268 319T375 322L380 348Q390 399 370 426T303 454Q265 454 240 437T210 379H81ZM362 788H499L380
618H281L362 788Z" />
<glyph unicode="&#xe2;" glyph-name="acircumflex" horiz-adv-x="564" d="M226 83Q273 83 308 121T357 230L360 245Q325 244 293 243T228 235Q195 228 173 208T151 154Q151 121 171 102T226 83ZM81 379Q90 458 150 501T312 545Q372 545 413 529T477 483T506 413T503
323L469 149Q463 118 473 106T507 95L488 -2H456Q409 -2 382 16T349 74H346Q316 36 280 15T182 -7Q149 -7 120 2T68 30T32 77T19 144Q19 210 58 249T166 306Q215 318 268 319T375 322L380 348Q390 399 370 426T303 454Q265 454 240 437T210 379H81ZM494 618H400L353
704L278 618H179L312 788H424L494 618Z" />
<glyph unicode="&#xe3;" glyph-name="atilde" horiz-adv-x="564" d="M226 83Q273 83 308 121T357 230L360 245Q325 244 293 243T228 235Q195 228 173 208T151 154Q151 121 171 102T226 83ZM81 379Q90 458 150 501T312 545Q372 545 413 529T477 483T506 413T503
323L469 149Q463 118 473 106T507 95L488 -2H456Q409 -2 382 16T349 74H346Q316 36 280 15T182 -7Q149 -7 120 2T68 30T32 77T19 144Q19 210 58 249T166 306Q215 318 268 319T375 322L380 348Q390 399 370 426T303 454Q265 454 240 437T210 379H81ZM158 617Q161
648 170 676T196 725T237 758T294 771Q316 771 333 763T365 744T393 726T421 717Q438 717 451 728T473 772H544Q541 741 532 713T506 664T465 631T409 618Q387 618 369 626T336 645T307 664T279 673Q264 673 251 661T229 617H158Z" />
<glyph unicode="&#xe4;" glyph-name="adieresis" horiz-adv-x="564" d="M226 83Q273 83 308 121T357 230L360 245Q325 244 293 243T228 235Q195 228 173 208T151 154Q151 121 171 102T226 83ZM81 379Q90 458 150 501T312 545Q372 545 413 529T477 483T506 413T503
323L469 149Q463 118 473 106T507 95L488 -2H456Q409 -2 382 16T349 74H346Q316 36 280 15T182 -7Q149 -7 120 2T68 30T32 77T19 144Q19 210 58 249T166 306Q215 318 268 319T375 322L380 348Q390 399 370 426T303 454Q265 454 240 437T210 379H81ZM405 763H523L499
640H381L405 763ZM205 763H323L299 640H181L205 763Z" />
<glyph unicode="&#xe5;" glyph-name="aring" horiz-adv-x="564" d="M226 83Q273 83 308 121T357 230L360 245Q325 244 293 243T228 235Q195 228 173 208T151 154Q151 121 171 102T226 83ZM81 379Q90 458 150 501T312 545Q372 545 413 529T477 483T506 413T503
323L469 149Q463 118 473 106T507 95L488 -2H456Q409 -2 382 16T349 74H346Q316 36 280 15T182 -7Q149 -7 120 2T68 30T32 77T19 144Q19 210 58 249T166 306Q215 318 268 319T375 322L380 348Q390 399 370 426T303 454Q265 454 240 437T210 379H81ZM350 610Q299
611 266 638T232 716Q232 744 241 768T268 808T309 834T361 844Q419 844 449 814T480 737Q480 678 444 644T350 610ZM362 787Q335 787 320 769T304 719Q304 696 316 681T352 666Q378 666 393 684T409 734Q409 757 397 772T362 787Z" />
<glyph unicode="&#xe6;" glyph-name="ae" horiz-adv-x="891" d="M729 323Q733 353 732 377T720 420T692 448T646 458Q619 458 597 447T558 417T528 372T507 317H728L729 323ZM225 83Q273 83 307 119T357 230L360 245Q325 244 292 243T226 235Q194 228 173 209T151
154Q151 121 170 102T225 83ZM824 150Q806 69 744 30T588 -10Q510 -10 464 18T393 95H391Q373 74 354 56T310 24T254 2T182 -6Q149 -6 119 3T67 30T32 76T19 142Q19 210 57 249T164 306Q215 318 268 319T375 322L380 348Q390 399 370 426T302 454Q264 454 239 437T209
379H81Q89 458 150 501T312 545Q375 545 413 521T471 459H472Q503 498 548 522T654 546Q719 546 761 524T827 463T855 375T850 271L843 234H492Q491 226 491 219T491 203Q491 149 514 114T593 79Q641 79 664 101T696 150H824Z" />
<glyph unicode="&#xe7;" glyph-name="ccedilla" horiz-adv-x="567" d="M212 -220Q194 -220 177 -216T147 -203T127 -180T120 -146H189Q192 -168 217 -168Q236 -168 245 -158T254 -132Q254 -118 248 -110T227 -102Q208 -102 198 -114H137L196 -6Q123 12 81 66T39
210Q39 274 57 334T113 442T206 517T335 546Q434 546 490 496T544 352H414Q416 395 396 424T328 454Q287 454 258 431T210 371T182 290T173 206Q173 180 178 157T196 117T228 90T276 80Q303 80 324 89T359 114T383 148T395 189H523Q515 139 493 101T436 38T360
-1T270 -14Q263 -14 257 -14T245 -13L217 -65H219Q229 -58 238 -56T263 -53Q292 -53 311 -72T330 -121Q330 -166 300 -193T212 -220Z" />
<glyph unicode="&#xe8;" glyph-name="egrave" horiz-adv-x="571" d="M407 323Q416 382 397 420T321 458Q294 458 272 447T233 417T204 373T184 317H406L407 323ZM504 150Q486 69 423 28T264 -14Q210 -14 168 2T97 46T53 115T37 206Q37 271 56 332T112 441T204
517T330 546Q396 546 439 524T506 463T535 375T530 271L523 234H171Q170 226 170 219T170 203Q170 177 175 155T193 116T224 90T272 80Q320 80 343 101T374 150H504ZM410 618H312L229 788H361L410 618Z" />
<glyph unicode="&#xe9;" glyph-name="eacute" horiz-adv-x="571" d="M382 788H519L400 618H301L382 788ZM407 323Q416 382 397 420T321 458Q294 458 272 447T233 417T204 373T184 317H406L407 323ZM504 150Q486 69 423 28T264 -14Q210 -14 168 2T97 46T53 115T37
206Q37 271 56 332T112 441T204 517T330 546Q396 546 439 524T506 463T535 375T530 271L523 234H171Q170 226 170 219T170 203Q170 177 175 155T193 116T224 90T272 80Q320 80 343 101T374 150H504Z" />
<glyph unicode="&#xea;" glyph-name="ecircumflex" horiz-adv-x="571" d="M514 618H420L373 704L298 618H199L332 788H444L514 618ZM407 323Q416 382 397 420T321 458Q294 458 272 447T233 417T204 373T184 317H406L407 323ZM504 150Q486 69 423 28T264 -14Q210
-14 168 2T97 46T53 115T37 206Q37 271 56 332T112 441T204 517T330 546Q396 546 439 524T506 463T535 375T530 271L523 234H171Q170 226 170 219T170 203Q170 177 175 155T193 116T224 90T272 80Q320 80 343 101T374 150H504Z" />
<glyph unicode="&#xeb;" glyph-name="edieresis" horiz-adv-x="571" d="M426 763H544L520 640H402L426 763ZM226 763H344L320 640H202L226 763ZM407 323Q416 382 397 420T321 458Q294 458 272 447T233 417T204 373T184 317H406L407 323ZM504 150Q486 69 423 28T264
-14Q210 -14 168 2T97 46T53 115T37 206Q37 271 56 332T112 441T204 517T330 546Q396 546 439 524T506 463T535 375T530 271L523 234H171Q170 226 170 219T170 203Q170 177 175 155T193 116T224 90T272 80Q320 80 343 101T374 150H504Z" />
<glyph unicode="&#xec;" glyph-name="igrave" horiz-adv-x="284" d="M129 533H261L158 0H26L129 533ZM265 618H167L84 788H216L265 618Z" />
<glyph unicode="&#xed;" glyph-name="iacute" horiz-adv-x="284" d="M494 788H631L512 618H413L494 788ZM129 533H261L158 0H26L129 533Z" />
<glyph unicode="&#xee;" glyph-name="icircumflex" horiz-adv-x="284" d="M357 618H266L229 704L163 618H65L187 788H299L357 618ZM129 533H261L158 0H26L129 533Z" />
<glyph unicode="&#xef;" glyph-name="idieresis" horiz-adv-x="284" d="M275 763H377L353 640H251L275 763ZM103 763H205L181 640H79L103 763ZM129 533H261L158 0H26L129 533Z" />
<glyph unicode="&#xf0;" glyph-name="eth" horiz-adv-x="591" d="M265 -13Q157 -13 98 44T38 207Q38 266 55 326T106 434T191 512T310 543Q353 543 378 531T420 497H422Q410 538 390 571T343 633L191 579L174 636L293 679Q246 716 187 749L294 795Q326 780 355
762T410 721L521 761L541 704L457 674Q505 619 532 549T559 389Q559 288 538 213T477 87T384 12T265 -13ZM421 336Q421 388 399 421T326 455Q283 455 254 429T206 365T180 281T172 199Q172 145 195 112T270 79Q315 79 344 106T390 173T414 257T421 336Z" />
<glyph unicode="&#xf1;" glyph-name="ntilde" horiz-adv-x="619" d="M424 306Q432 343 432 369Q432 404 416 424T358 444Q301 444 264 401T212 282L159 0H26L129 533H256L238 441H240Q268 488 314 516T420 545Q505 545 542 490T559 326L497 0H365L424 306ZM201
617Q204 648 213 676T239 725T280 758T337 771Q359 771 376 763T408 744T436 726T464 717Q481 717 494 728T516 772H587Q584 741 575 713T549 664T508 631T452 618Q430 618 412 626T379 645T350 664T322 673Q307 673 294 661T272 617H201Z" />
<glyph unicode="&#xf2;" glyph-name="ograve" horiz-adv-x="588" d="M265 -14Q158 -14 98 44T38 206Q38 269 56 330T111 439T201 516T327 546Q381 546 423 531T495 486T539 417T555 327Q555 261 536 199T480 90T389 15T265 -14ZM421 336Q421 357 417 378T401 416T372
443T324 454Q282 454 253 428T206 364T180 281T172 199Q172 176 176 155T192 116T222 89T270 79Q315 79 344 107T391 174T414 258T421 336ZM412 618H314L231 788H363L412 618Z" />
<glyph unicode="&#xf3;" glyph-name="oacute" horiz-adv-x="588" d="M384 788H521L402 618H303L384 788ZM265 -14Q158 -14 98 44T38 206Q38 269 56 330T111 439T201 516T327 546Q381 546 423 531T495 486T539 417T555 327Q555 261 536 199T480 90T389 15T265 -14ZM421
336Q421 357 417 378T401 416T372 443T324 454Q282 454 253 428T206 364T180 281T172 199Q172 176 176 155T192 116T222 89T270 79Q315 79 344 107T391 174T414 258T421 336Z" />
<glyph unicode="&#xf4;" glyph-name="ocircumflex" horiz-adv-x="588" d="M516 618H422L375 704L300 618H201L334 788H446L516 618ZM265 -14Q158 -14 98 44T38 206Q38 269 56 330T111 439T201 516T327 546Q381 546 423 531T495 486T539 417T555 327Q555 261 536
199T480 90T389 15T265 -14ZM421 336Q421 357 417 378T401 416T372 443T324 454Q282 454 253 428T206 364T180 281T172 199Q172 176 176 155T192 116T222 89T270 79Q315 79 344 107T391 174T414 258T421 336Z" />
<glyph unicode="&#xf5;" glyph-name="otilde" horiz-adv-x="588" d="M265 -14Q158 -14 98 44T38 206Q38 269 56 330T111 439T201 516T327 546Q381 546 423 531T495 486T539 417T555 327Q555 261 536 199T480 90T389 15T265 -14ZM421 336Q421 357 417 378T401 416T372
443T324 454Q282 454 253 428T206 364T180 281T172 199Q172 176 176 155T192 116T222 89T270 79Q315 79 344 107T391 174T414 258T421 336ZM179 617Q182 648 191 676T217 725T258 758T315 771Q337 771 354 763T386 744T414 726T442 717Q459 717 472 728T494 772H565Q562
741 553 713T527 664T486 631T430 618Q408 618 390 626T357 645T328 664T300 673Q285 673 272 661T250 617H179Z" />
<glyph unicode="&#xf6;" glyph-name="odieresis" horiz-adv-x="588" d="M428 763H546L522 640H404L428 763ZM228 763H346L322 640H204L228 763ZM265 -14Q158 -14 98 44T38 206Q38 269 56 330T111 439T201 516T327 546Q381 546 423 531T495 486T539 417T555 327Q555
261 536 199T480 90T389 15T265 -14ZM421 336Q421 357 417 378T401 416T372 443T324 454Q282 454 253 428T206 364T180 281T172 199Q172 176 176 155T192 116T222 89T270 79Q315 79 344 107T391 174T414 258T421 336Z" />
<glyph unicode="&#xf7;" glyph-name="divide" horiz-adv-x="616" d="M312 621H442L417 494H287L312 621ZM105 409H570L549 306H84L105 409ZM210 93L235 220H364L339 93H210Z" />
<glyph unicode="&#xf8;" glyph-name="oslash" horiz-adv-x="588" d="M555 327Q555 261 536 199T480 90T389 15T265 -14Q171 -14 113 32L49 -34H-37L72 77Q38 131 38 206Q38 269 56 330T111 439T201 516T327 546Q423 546 482 498L547 564H634L523 451Q555 399 555
327ZM324 456Q281 456 251 430T203 365T176 281T168 199Q168 193 168 188T169 177L405 419Q394 436 374 446T324 456ZM270 77Q316 77 346 105T393 173T418 259T425 337V350L190 110Q201 94 220 86T270 77Z" />
<glyph unicode="&#xf9;" glyph-name="ugrave" horiz-adv-x="612" d="M196 225Q193 208 191 193T189 165Q188 127 205 108T261 89Q316 89 352 132T404 256L458 533H590L486 0H360L378 91H376Q348 46 305 18T205 -11Q115 -11 77 44T60 206L123 533H255L196 225ZM427
618H329L246 788H378L427 618Z" />
<glyph unicode="&#xfa;" glyph-name="uacute" horiz-adv-x="612" d="M399 788H536L417 618H318L399 788ZM196 225Q193 208 191 193T189 165Q188 127 205 108T261 89Q316 89 352 132T404 256L458 533H590L486 0H360L378 91H376Q348 46 305 18T205 -11Q115 -11 77
44T60 206L123 533H255L196 225Z" />
<glyph unicode="&#xfb;" glyph-name="ucircumflex" horiz-adv-x="612" d="M530 618H436L389 704L314 618H215L348 788H460L530 618ZM196 225Q193 208 191 193T189 165Q188 127 205 108T261 89Q316 89 352 132T404 256L458 533H590L486 0H360L378 91H376Q348 46
305 18T205 -11Q115 -11 77 44T60 206L123 533H255L196 225Z" />
<glyph unicode="&#xfc;" glyph-name="udieresis" horiz-adv-x="612" d="M442 763H560L536 640H418L442 763ZM242 763H360L336 640H218L242 763ZM196 225Q193 208 191 193T189 165Q188 127 205 108T261 89Q316 89 352 132T404 256L458 533H590L486 0H360L378 91H376Q348
46 305 18T205 -11Q115 -11 77 44T60 206L123 533H255L196 225Z" />
<glyph unicode="&#xfd;" glyph-name="yacute" horiz-adv-x="542" d="M75 533H207L246 234Q250 194 252 164Q253 147 253 133H255Q261 146 267 162Q272 175 279 192T296 227L443 533H575L276 -36Q253 -80 231 -110T182 -160T122 -189T44 -199Q12 -199 -8 -195T-32
-189L-12 -90Q-4 -92 8 -94T37 -96Q80 -96 105 -79T152 -20L163 1L75 533ZM373 788H510L391 618H292L373 788Z" />
<glyph unicode="&#xfe;" glyph-name="thorn" horiz-adv-x="621" d="M305 80Q345 80 373 104T419 166T445 248T453 333Q453 383 433 416T363 449Q335 449 311 438T268 408T235 363T216 307L203 245Q197 213 198 184T211 131T246 94T305 80ZM179 788H311L245 447H247Q273
490 314 517T415 545Q458 545 490 530T544 488T576 422T587 336Q587 279 573 218T527 105T445 21T324 -13Q273 -13 232 11T175 79H173L122 -188H-11L179 788Z" />
<glyph unicode="&#xff;" glyph-name="ydieresis" horiz-adv-x="542" d="M75 533H207L246 234Q250 194 252 164Q253 147 253 133H255Q261 146 267 162Q272 175 279 192T296 227L443 533H575L276 -36Q253 -80 231 -110T182 -160T122 -189T44 -199Q12 -199 -8 -195T-32
-189L-12 -90Q-4 -92 8 -94T37 -96Q80 -96 105 -79T152 -20L163 1L75 533ZM417 763H535L511 640H393L417 763ZM217 763H335L311 640H193L217 763Z" />
<glyph unicode="&#x100;" glyph-name="Amacron" horiz-adv-x="738" d="M430 644Q429 641 417 610T378 528L262 294H478L444 526Q439 553 438 574T434 612Q432 630 432 644H430ZM494 192H211L114 0H-21L377 765H531L661 0H524L494 192ZM330 936H648L630 843H312L330 936Z" />
<glyph unicode="&#x101;" glyph-name="amacron" horiz-adv-x="564" d="M226 83Q273 83 308 121T357 230L360 245Q325 244 293 243T228 235Q195 228 173 208T151 154Q151 121 171 102T226 83ZM81 379Q90 458 150 501T312 545Q372 545 413 529T477 483T506 413T503
323L469 149Q463 118 473 106T507 95L488 -2H456Q409 -2 382 16T349 74H346Q316 36 280 15T182 -7Q149 -7 120 2T68 30T32 77T19 144Q19 210 58 249T166 306Q215 318 268 319T375 322L380 348Q390 399 370 426T303 454Q265 454 240 437T210 379H81ZM199 732H517L499
640H181L199 732Z" />
<glyph unicode="&#x102;" glyph-name="Abreve" horiz-adv-x="738" d="M430 644Q429 641 417 610T378 528L262 294H478L444 526Q439 553 438 574T434 612Q432 630 432 644H430ZM494 192H211L114 0H-21L377 765H531L661 0H524L494 192ZM416 964Q414 932 429 915T474
897Q504 897 526 914T559 964H647Q638 923 621 895T579 848T526 822T465 813Q434 813 407 822T362 850T335 897T332 964H416Z" />
<glyph unicode="&#x103;" glyph-name="abreve" horiz-adv-x="564" d="M226 83Q273 83 308 121T357 230L360 245Q325 244 293 243T228 235Q195 228 173 208T151 154Q151 121 171 102T226 83ZM81 379Q90 458 150 501T312 545Q372 545 413 529T477 483T506 413T503
323L469 149Q463 118 473 106T507 95L488 -2H456Q409 -2 382 16T349 74H346Q316 36 280 15T182 -7Q149 -7 120 2T68 30T32 77T19 144Q19 210 58 249T166 306Q215 318 268 319T375 322L380 348Q390 399 370 426T303 454Q265 454 240 437T210 379H81ZM347 618Q312
618 284 628T237 660T211 713T213 788H299Q291 748 306 728T353 708Q385 708 407 728T438 788H528Q521 742 504 710T461 658T407 628T347 618Z" />
<glyph unicode="&#x104;" glyph-name="Aogonek" horiz-adv-x="738" d="M599 -188Q476 -188 476 -113Q476 -76 499 -49T568 0H524L494 192H211L114 0H-21L377 765H531L660 3Q627 -17 608 -36T588 -78Q588 -108 638 -108L622 -188H599ZM430 644Q429 641 417 610T378
528L262 294H478L444 526Q439 553 438 574T434 612Q432 630 432 644H430Z" />
<glyph unicode="&#x105;" glyph-name="aogonek" horiz-adv-x="564" d="M414 2Q380 13 367 30T349 74H346Q316 36 280 15T182 -7Q149 -7 120 2T68 30T32 77T19 144Q19 210 58 249T166 306Q215 318 268 319T375 322L380 348Q390 399 371 426T303 454Q265 454 240
437T210 379H81Q90 458 150 501T312 545Q373 545 414 529T477 482T506 411T502 319L469 149Q463 117 472 106T507 95L489 2Q450 -21 434 -39T417 -79Q417 -108 467 -108L451 -188H426Q363 -188 334 -170T305 -110Q305 -70 337 -43T414 -1V2ZM226 83Q272 83 308
121T357 229L360 245Q325 244 293 243T228 235Q195 228 173 208T151 154Q151 120 171 102T226 83Z" />
<glyph unicode="&#x106;" glyph-name="Cacute" horiz-adv-x="758" d="M610 517Q608 591 573 631T469 671Q422 671 385 654T320 607T273 539T241 457T223 368T217 282Q217 244 225 209T252 147T303 104T382 88Q458 88 505 132T570 252H708Q696 189 667 139T595
55T497 2T376 -16Q232 -16 153 64T73 301Q73 358 84 415T117 525T173 624T251 703T352 756T477 776Q535 776 585 761T671 714T728 633T750 517H610ZM524 960H660L540 827H442L524 960Z" />
<glyph unicode="&#x107;" glyph-name="cacute" horiz-adv-x="567" d="M385 788H522L403 618H304L385 788ZM414 352Q416 395 396 424T328 454Q287 454 258 431T210 371T182 290T173 206Q173 180 178 157T196 117T228 90T276 80Q303 80 324 89T359 114T383 148T395
189H523Q515 139 493 101T436 38T360 -1T270 -14Q165 -14 102 43T39 210Q39 274 57 334T113 442T206 517T335 546Q434 546 490 496T544 352H414Z" />
<glyph unicode="&#x108;" glyph-name="Ccircumflex" horiz-adv-x="758" d="M651 827H555L505 890H504L432 827H333L454 960H573L651 827ZM610 517Q608 591 573 631T469 671Q422 671 385 654T320 607T273 539T241 457T223 368T217 282Q217 244 225 209T252 147T303
104T382 88Q458 88 505 132T570 252H708Q696 189 667 139T595 55T497 2T376 -16Q232 -16 153 64T73 301Q73 358 84 415T117 525T173 624T251 703T352 756T477 776Q535 776 585 761T671 714T728 633T750 517H610Z" />
<glyph unicode="&#x109;" glyph-name="ccircumflex" horiz-adv-x="567" d="M517 618H423L376 704L301 618H202L335 788H447L517 618ZM414 352Q416 395 396 424T328 454Q287 454 258 431T210 371T182 290T173 206Q173 180 178 157T196 117T228 90T276 80Q303 80
324 89T359 114T383 148T395 189H523Q515 139 493 101T436 38T360 -1T270 -14Q165 -14 102 43T39 210Q39 274 57 334T113 442T206 517T335 546Q434 546 490 496T544 352H414Z" />
<glyph unicode="&#x10a;" glyph-name="Cdotaccent" horiz-adv-x="758" d="M610 517Q608 591 573 631T469 671Q422 671 385 654T320 607T273 539T241 457T223 368T217 282Q217 244 225 209T252 147T303 104T382 88Q458 88 505 132T570 252H708Q696 189 667 139T595
55T497 2T376 -16Q232 -16 153 64T73 301Q73 358 84 415T117 525T173 624T251 703T352 756T477 776Q535 776 585 761T671 714T728 633T750 517H610ZM469 958H589L565 834H445L469 958Z" />
<glyph unicode="&#x10b;" glyph-name="cdotaccent" horiz-adv-x="567" d="M414 352Q416 395 396 424T328 454Q287 454 258 431T210 371T182 290T173 206Q173 180 178 157T196 117T228 90T276 80Q303 80 324 89T359 114T383 148T395 189H523Q515 139 493 101T436
38T360 -1T270 -14Q165 -14 102 43T39 210Q39 274 57 334T113 442T206 517T335 546Q434 546 490 496T544 352H414ZM329 763H449L425 640H305L329 763Z" />
<glyph unicode="&#x10c;" glyph-name="Ccaron" horiz-adv-x="758" d="M347 960H445L497 897H498L571 960H675L546 827H428L347 960ZM610 517Q608 591 573 631T469 671Q422 671 385 654T320 607T273 539T241 457T223 368T217 282Q217 244 225 209T252 147T303 104T382
88Q458 88 505 132T570 252H708Q696 189 667 139T595 55T497 2T376 -16Q232 -16 153 64T73 301Q73 358 84 415T117 525T173 624T251 703T352 756T477 776Q535 776 585 761T671 714T728 633T750 517H610Z" />
<glyph unicode="&#x10d;" glyph-name="ccaron" horiz-adv-x="567" d="M234 788H328L373 702L450 788H549L416 618H304L234 788ZM414 352Q416 395 396 424T328 454Q287 454 258 431T210 371T182 290T173 206Q173 180 178 157T196 117T228 90T276 80Q303 80 324
89T359 114T383 148T395 189H523Q515 139 493 101T436 38T360 -1T270 -14Q165 -14 102 43T39 210Q39 274 57 334T113 442T206 517T335 546Q434 546 490 496T544 352H414Z" />
<glyph unicode="&#x10e;" glyph-name="Dcaron" horiz-adv-x="757" d="M299 960H397L449 897H450L523 960H627L498 827H380L299 960ZM183 765H415Q486 765 545 747T646 690T711 595T734 461Q734 367 708 284T629 137T495 37T304 0H36L183 765ZM317 108Q400 108
453 144T537 234T579 351T591 468Q591 521 578 557T539 615T480 648T403 658H299L192 108H317Z" />
<glyph unicode="&#x10f;" glyph-name="dcaron" horiz-adv-x="624" d="M721 788H830L744 610H677L721 788ZM330 450Q289 450 260 426T211 365T183 283T174 196Q174 145 194 113T264 81Q292 81 316 92T360 122T393 167T412 224L424 285Q431 318 430 347T419 400T387
436T330 450ZM499 0H372L388 82H386Q360 43 320 15T223 -13Q177 -13 143 2T86 45T52 111T40 197Q40 257 56 318T106 430T190 513T307 545Q366 545 401 521T454 454H455L520 788H652L499 0Z" />
<glyph unicode="&#x110;" glyph-name="Dcroat" horiz-adv-x="767" d="M46 0L110 335H33L52 435H130L193 765H426Q497 765 555 747T656 690T721 595T745 461Q745 367 719 284T640 137T506 37T315 0H46ZM327 108Q410 108 463 144T547 234T590 351T602 468Q602 521
589 557T550 615T490 648T413 658H309L266 435H446L427 335H246L202 108H327Z" />
<glyph unicode="&#x111;" glyph-name="dcroat" horiz-adv-x="624" d="M330 450Q289 450 260 426T211 365T183 283T174 196Q174 145 194 113T264 81Q292 81 316 92T360 122T393 167T412 224L424 285Q431 318 430 347T419 400T387 436T330 450ZM386 82Q360 43 320
15T223 -13Q177 -13 143 2T86 45T52 111T40 197Q40 257 56 318T106 430T190 513T307 545Q366 545 401 521T454 454H455L486 613H336L351 695H502L520 788H652L634 695H709L694 613H618L499 0H372L388 82H386Z" />
<glyph unicode="&#x112;" glyph-name="Emacron" horiz-adv-x="644" d="M184 765H667L646 655H299L257 437H583L562 330H236L193 109H551L530 0H36L184 765ZM303 936H621L603 843H285L303 936Z" />
<glyph unicode="&#x113;" glyph-name="emacron" horiz-adv-x="571" d="M407 323Q416 382 397 420T321 458Q294 458 272 447T233 417T204 373T184 317H406L407 323ZM504 150Q486 69 423 28T264 -14Q210 -14 168 2T97 46T53 115T37 206Q37 271 56 332T112 441T204
517T330 546Q396 546 439 524T506 463T535 375T530 271L523 234H171Q170 226 170 219T170 203Q170 177 175 155T193 116T224 90T272 80Q320 80 343 101T374 150H504ZM219 732H537L519 640H201L219 732Z" />
<glyph unicode="&#x114;" glyph-name="Ebreve" horiz-adv-x="644" d="M184 765H667L646 655H299L257 437H583L562 330H236L193 109H551L530 0H36L184 765ZM388 971Q386 939 401 922T446 904Q476 904 498 921T531 971H619Q610 930 593 902T551 855T498 829T437
820Q406 820 379 829T334 857T307 904T304 971H388Z" />
<glyph unicode="&#x115;" glyph-name="ebreve" horiz-adv-x="571" d="M407 323Q416 382 397 420T321 458Q294 458 272 447T233 417T204 373T184 317H406L407 323ZM504 150Q486 69 423 28T264 -14Q210 -14 168 2T97 46T53 115T37 206Q37 271 56 332T112 441T204
517T330 546Q396 546 439 524T506 463T535 375T530 271L523 234H171Q170 226 170 219T170 203Q170 177 175 155T193 116T224 90T272 80Q320 80 343 101T374 150H504ZM367 618Q332 618 304 628T257 660T231 713T233 788H319Q311 748 326 728T373 708Q405 708 427
728T458 788H548Q541 742 524 710T481 658T427 628T367 618Z" />
<glyph unicode="&#x116;" glyph-name="Edotaccent" horiz-adv-x="644" d="M405 958H525L501 834H381L405 958ZM184 765H667L646 655H299L257 437H583L562 330H236L193 109H551L530 0H36L184 765Z" />
<glyph unicode="&#x117;" glyph-name="edotaccent" horiz-adv-x="571" d="M407 323Q416 382 397 420T321 458Q294 458 272 447T233 417T204 373T184 317H406L407 323ZM504 150Q486 69 423 28T264 -14Q210 -14 168 2T97 46T53 115T37 206Q37 271 56 332T112 441T204
517T330 546Q396 546 439 524T506 463T535 375T530 271L523 234H171Q170 226 170 219T170 203Q170 177 175 155T193 116T224 90T272 80Q320 80 343 101T374 150H504ZM325 763H445L421 640H301L325 763Z" />
<glyph unicode="&#x118;" glyph-name="Eogonek" horiz-adv-x="644" d="M493 -188H468Q405 -188 376 -170T347 -113Q347 -77 374 -47T448 0H36L184 765H667L646 655H299L257 437H583L562 330H236L193 109H551L530 0Q498 -20 479 -39T459 -80Q459 -109 507 -109L493 -188Z" />
<glyph unicode="&#x119;" glyph-name="eogonek" horiz-adv-x="571" d="M407 323Q416 383 398 420T321 458Q294 458 273 447T234 417T205 373T185 317H406L407 323ZM354 -188H329Q266 -188 237 -170T207 -112Q207 -78 230 -53T290 -12V-10Q276 -13 259 -13Q211
-13 171 1T101 42T54 111T37 206Q37 271 56 332T112 441T204 517T330 546Q397 546 440 524T507 463T535 375T530 271L523 234H171Q170 226 170 219T170 203Q170 177 175 155T193 116T224 90T272 80Q320 80 343 101T374 150H504Q495 108 471 73T391 8Q353 -12 336
-33T318 -76Q318 -93 331 -100T369 -108L354 -188Z" />
<glyph unicode="&#x11a;" glyph-name="Ecaron" horiz-adv-x="644" d="M300 960H398L450 897H451L524 960H628L499 827H381L300 960ZM184 765H667L646 655H299L257 437H583L562 330H236L193 109H551L530 0H36L184 765Z" />
<glyph unicode="&#x11b;" glyph-name="ecaron" horiz-adv-x="571" d="M230 788H324L369 702L446 788H545L412 618H300L230 788ZM407 323Q416 382 397 420T321 458Q294 458 272 447T233 417T204 373T184 317H406L407 323ZM504 150Q486 69 423 28T264 -14Q210 -14
168 2T97 46T53 115T37 206Q37 271 56 332T112 441T204 517T330 546Q396 546 439 524T506 463T535 375T530 271L523 234H171Q170 226 170 219T170 203Q170 177 175 155T193 116T224 90T272 80Q320 80 343 101T374 150H504Z" />
<glyph unicode="&#x11c;" glyph-name="Gcircumflex" horiz-adv-x="797" d="M668 827H572L522 890H521L449 827H350L471 960H590L668 827ZM615 544Q616 606 581 639T481 673Q429 673 389 654T320 603T270 530T238 445T221 358T215 279Q215 243 223 209T250 147T301
104T379 87Q426 87 462 102T524 143T567 204T592 281L595 296H410L431 400H751L673 0H563L585 114H582Q555 57 496 21T353 -15Q283 -15 231 7T143 69T90 164T72 286Q72 371 96 458T171 616T300 731T488 776Q546 776 595 762T679 720T734 648T754 544H615Z" />
<glyph unicode="&#x11d;" glyph-name="gcircumflex" horiz-adv-x="620" d="M526 618H432L385 704L310 618H211L344 788H456L526 618ZM424 292Q430 323 430 351T419 402T387 437T331 450Q289 450 260 427T211 367T183 288T174 205Q175 158 196 128T270 98Q298 98
321 109T364 139T395 183T414 237L424 292ZM135 -37Q136 -72 161 -90T229 -109Q292 -109 325 -73T373 32L385 94H383Q371 77 356 62T322 34T277 15T222 8Q134 8 87 58T40 202Q40 263 57 324T109 435T194 514T310 545Q368 545 405 520T458 450H459L476 533H602L504
32Q481 -89 410 -144T221 -199Q118 -199 64 -157T9 -37H135Z" />
<glyph unicode="&#x11e;" glyph-name="Gbreve" horiz-adv-x="797" d="M457 971Q455 939 470 922T515 904Q545 904 567 921T600 971H688Q679 930 662 902T620 855T567 829T506 820Q475 820 448 829T403 857T376 904T373 971H457ZM615 544Q616 606 581 639T481 673Q429
673 389 654T320 603T270 530T238 445T221 358T215 279Q215 243 223 209T250 147T301 104T379 87Q426 87 462 102T524 143T567 204T592 281L595 296H410L431 400H751L673 0H563L585 114H582Q555 57 496 21T353 -15Q283 -15 231 7T143 69T90 164T72 286Q72 371 96
458T171 616T300 731T488 776Q546 776 595 762T679 720T734 648T754 544H615Z" />
<glyph unicode="&#x11f;" glyph-name="gbreve" horiz-adv-x="620" d="M424 292Q430 323 430 351T419 402T387 437T331 450Q289 450 260 427T211 367T183 288T174 205Q175 158 196 128T270 98Q298 98 321 109T364 139T395 183T414 237L424 292ZM135 -37Q136 -72
161 -90T229 -109Q292 -109 325 -73T373 32L385 94H383Q371 77 356 62T322 34T277 15T222 8Q134 8 87 58T40 202Q40 263 57 324T109 435T194 514T310 545Q368 545 405 520T458 450H459L476 533H602L504 32Q481 -89 410 -144T221 -199Q118 -199 64 -157T9 -37H135ZM379
618Q344 618 316 628T269 660T243 713T245 788H331Q323 748 338 728T385 708Q417 708 439 728T470 788H560Q553 742 536 710T493 658T439 628T379 618Z" />
<glyph unicode="&#x120;" glyph-name="Gdotaccent" horiz-adv-x="797" d="M474 958H594L570 834H450L474 958ZM615 544Q616 606 581 639T481 673Q429 673 389 654T320 603T270 530T238 445T221 358T215 279Q215 243 223 209T250 147T301 104T379 87Q426 87 462
102T524 143T567 204T592 281L595 296H410L431 400H751L673 0H563L585 114H582Q555 57 496 21T353 -15Q283 -15 231 7T143 69T90 164T72 286Q72 371 96 458T171 616T300 731T488 776Q546 776 595 762T679 720T734 648T754 544H615Z" />
<glyph unicode="&#x121;" glyph-name="gdotaccent" horiz-adv-x="620" d="M424 292Q430 323 430 351T419 402T387 437T331 450Q289 450 260 427T211 367T183 288T174 205Q175 158 196 128T270 98Q298 98 321 109T364 139T395 183T414 237L424 292ZM135 -37Q136
-72 161 -90T229 -109Q292 -109 325 -73T373 32L385 94H383Q371 77 356 62T322 34T277 15T222 8Q134 8 87 58T40 202Q40 263 57 324T109 435T194 514T310 545Q368 545 405 520T458 450H459L476 533H602L504 32Q481 -89 410 -144T221 -199Q118 -199 64 -157T9 -37H135ZM337
763H457L433 640H313L337 763Z" />
<glyph unicode="&#x122;" glyph-name="Gcommaaccent" horiz-adv-x="797" d="M274 -66H405L308 -215H221L274 -66ZM615 544Q616 606 581 639T481 673Q429 673 389 654T320 603T270 530T238 445T221 358T215 279Q215 243 223 209T250 147T301 104T379 87Q426 87
462 102T524 143T567 204T592 281L595 296H410L431 400H751L673 0H563L585 114H582Q555 57 496 21T353 -15Q283 -15 231 7T143 69T90 164T72 286Q72 371 96 458T171 616T300 731T488 776Q546 776 595 762T679 720T734 648T754 544H615Z" />
<glyph unicode="&#x123;" glyph-name="gcommaaccent" horiz-adv-x="620" d="M426 623H293L395 778H481L426 623ZM424 292Q430 323 430 351T419 402T387 437T331 450Q289 450 260 427T211 367T183 288T174 205Q175 158 196 128T270 98Q298 98 321 109T364 139T395
183T414 237L424 292ZM135 -37Q136 -72 161 -90T229 -109Q292 -109 325 -73T373 32L385 94H383Q371 77 356 62T322 34T277 15T222 8Q134 8 87 58T40 202Q40 263 57 324T109 435T194 514T310 545Q368 545 405 520T458 450H459L476 533H602L504 32Q481 -89 410 -144T221
-199Q118 -199 64 -157T9 -37H135Z" />
<glyph unicode="&#x124;" glyph-name="Hcircumflex" horiz-adv-x="771" d="M172 0H36L184 765H320L257 439H587L650 765H787L639 0H502L565 328H235L172 0ZM650 827H554L504 890H503L431 827H332L453 960H572L650 827Z" />
<glyph unicode="&#x125;" glyph-name="hcircumflex" horiz-adv-x="616" d="M425 310Q431 339 432 362T425 400Q420 421 404 432T358 444Q301 444 264 401T213 282L159 0H26L179 788H311L244 445H246Q273 490 317 517T420 545Q505 545 543 490T559 325L497 0H365L425
310ZM583 827H487L437 890H436L364 827H265L386 960H505L583 827Z" />
<glyph unicode="&#x126;" glyph-name="Hbar" horiz-adv-x="771" d="M587 439L612 566H282L257 439H587ZM172 0H36L146 566H62L79 651H162L184 765H320L298 651H628L650 765H787L765 651H845L828 566H749L639 0H502L565 328H235L172 0Z" />
<glyph unicode="&#x127;" glyph-name="hbar" horiz-adv-x="616" d="M159 0H26L145 613H70L86 695H161L179 788H311L293 695H444L428 613H277L244 445H246Q273 490 317 517T420 545Q505 545 543 490T559 325L497 0H365L425 310Q431 339 432 362T425 400Q420 421
404 432T358 444Q301 444 264 401T213 282L159 0Z" />
<glyph unicode="&#x128;" glyph-name="Itilde" horiz-adv-x="306" d="M185 765H321L173 0H37L185 765ZM82 822Q86 849 96 875T124 923T166 957T223 970Q247 970 264 962T295 943T322 925T350 916Q370 916 382 928T404 971H477Q473 941 463 915T435 868T395 836T342
824Q316 824 298 832T265 850T237 868T209 877Q195 877 181 866T154 822H82Z" />
<glyph unicode="&#x129;" glyph-name="itilde" horiz-adv-x="284" d="M54 617Q58 648 68 676T93 725T130 758T181 771Q200 771 215 763T242 744T266 726T291 717Q305 717 317 728T340 772H403Q398 741 389 713T364 664T328 631T279 618Q259 618 244 626T215 645T189
664T163 673Q149 673 138 661T116 617H54ZM129 533H261L158 0H26L129 533Z" />
<glyph unicode="&#x12a;" glyph-name="Imacron" horiz-adv-x="306" d="M185 765H321L173 0H37L185 765ZM128 936H446L428 843H110L128 936Z" />
<glyph unicode="&#x12b;" glyph-name="imacron" horiz-adv-x="284" d="M103 732H365L347 640H84L103 732ZM129 533H261L158 0H26L129 533Z" />
<glyph unicode="&#x12c;" glyph-name="Ibreve" horiz-adv-x="306" d="M185 765H321L173 0H37L185 765ZM221 971Q219 939 234 922T279 904Q309 904 331 921T364 971H452Q443 930 426 902T384 855T331 829T270 820Q239 820 212 829T167 857T140 904T137 971H221Z" />
<glyph unicode="&#x12d;" glyph-name="ibreve" horiz-adv-x="284" d="M217 618Q186 618 161 628T121 660T101 713T107 788H184Q174 748 187 728T228 708Q257 708 278 728T310 788H391Q382 742 365 710T325 658T275 628T217 618ZM129 533H261L158 0H26L129 533Z" />
<glyph unicode="&#x12e;" glyph-name="Iogonek" horiz-adv-x="306" d="M185 765H321L173 0Q139 -18 120 -38T101 -79Q101 -108 151 -108L136 -188H110Q47 -188 18 -170T-11 -112Q-11 -78 13 -49T83 0H37L185 765Z" />
<glyph unicode="&#x12f;" glyph-name="iogonek" horiz-adv-x="284" d="M173 762H307L282 635H148L173 762ZM129 533H261L157 0Q123 -17 105 -37T86 -79Q86 -108 136 -108L121 -188H95Q32 -188 3 -170T-26 -112Q-26 -78 -2 -49T68 0H26L129 533Z" />
<glyph unicode="&#x130;" glyph-name="Idotaccent" horiz-adv-x="306" d="M185 765H321L173 0H37L185 765ZM230 958H350L326 834H206L230 958Z" />
<glyph unicode="&#x131;" glyph-name="dotlessi" horiz-adv-x="284" d="M129 533H261L158 0H26L129 533Z" />
<glyph unicode="&#x132;" glyph-name="IJ" horiz-adv-x="691" d="M185 765H321L173 0H37L185 765ZM274 -3L296 109H319Q361 109 387 117T431 141T457 181T472 237L576 765H711L605 221Q594 162 574 120T521 51T438 10T320 -3H274Z" />
<glyph unicode="&#x133;" glyph-name="ij" horiz-adv-x="570" d="M173 762H307L282 635H148L173 762ZM129 533H261L158 0H26L129 533ZM459 762H594L569 635H434L459 762ZM242 -204Q208 -204 191 -199T167 -192L186 -96Q191 -98 202 -100T228 -102Q260 -102 279
-87T305 -34L416 533H548L435 -44Q426 -89 408 -120T365 -169T308 -196T242 -204Z" />
<glyph unicode="&#x134;" glyph-name="Jcircumflex" horiz-adv-x="429" d="M551 827H455L405 890H404L332 827H233L354 960H473L551 827ZM234 -3L256 109H311Q353 109 380 117T423 141T449 181T465 237L568 765H704L598 221Q587 162 567 120T514 51T431 10T312 -3H234Z" />
<glyph unicode="&#x135;" glyph-name="jcircumflex" horiz-adv-x="286" d="M360 618H269L231 704L166 618H67L189 788H302L360 618ZM-98 -96Q-93 -98 -82 -100T-56 -102Q-24 -102 -5 -87T21 -34L132 533H264L151 -44Q142 -89 124 -120T81 -169T24 -196T-42 -204Q-76
-204 -93 -199T-117 -192L-98 -96Z" />
<glyph unicode="&#x136;" glyph-name="Kcommaaccent" horiz-adv-x="713" d="M249 -66H380L283 -215H196L249 -66ZM172 0H36L184 765H320L250 401L613 765H774L435 435L642 0H495L332 343L217 233L172 0Z" />
<glyph unicode="&#x137;" glyph-name="kcommaaccent" horiz-adv-x="574" d="M182 -66H313L216 -215H129L182 -66ZM156 0H26L179 788H309L214 300L446 533H594L369 316L507 0H368L267 231L185 148L156 0Z" />
<glyph unicode="&#x138;" glyph-name="kgreenlandic" horiz-adv-x="579" d="M156 0H26L129 533H259L214 299L446 533H594L369 316L507 0H368L267 231L185 148L156 0Z" />
<glyph unicode="&#x139;" glyph-name="Lacute" horiz-adv-x="594" d="M297 960H433L313 827H215L297 960ZM184 765H320L193 111H534L512 0H36L184 765Z" />
<glyph unicode="&#x13a;" glyph-name="lacute" horiz-adv-x="283" d="M278 960H414L294 827H196L278 960ZM179 788H311L158 0H26L179 788Z" />
<glyph unicode="&#x13b;" glyph-name="Lcommaaccent" horiz-adv-x="594" d="M200 -66H331L234 -215H147L200 -66ZM184 765H320L193 111H534L512 0H36L184 765Z" />
<glyph unicode="&#x13c;" glyph-name="lcommaaccent" horiz-adv-x="283" d="M275 -66H406L309 -215H222L275 -66ZM179 788H311L158 0H26L179 788Z" />
<glyph unicode="&#x13d;" glyph-name="Lcaron" horiz-adv-x="594" d="M439 788H554L449 583H376L439 788ZM184 765H320L193 111H534L512 0H36L184 765Z" />
<glyph unicode="&#x13e;" glyph-name="lcaron" horiz-adv-x="283" d="M381 788H490L404 610H337L381 788ZM179 788H311L158 0H26L179 788Z" />
<glyph unicode="&#x13f;" glyph-name="Ldot" horiz-adv-x="594" d="M184 765H320L193 111H534L512 0H36L184 765ZM422 483H567L540 342H395L422 483Z" />
<glyph unicode="&#x140;" glyph-name="ldot" horiz-adv-x="415" d="M179 788H311L158 0H26L179 788ZM322 464H458L433 332H297L322 464Z" />
<glyph unicode="&#x141;" glyph-name="Lslash" horiz-adv-x="595" d="M90 275L6 247L27 356L111 384L185 765H321L257 433L498 513L477 404L236 324L194 111H535L514 0H37L90 275Z" />
<glyph unicode="&#x142;" glyph-name="lslash" horiz-adv-x="287" d="M26 0L85 304L-1 256L21 365L106 412L179 788H311L254 495L341 543L320 435L233 387L158 0H26Z" />
<glyph unicode="&#x143;" glyph-name="Nacute" horiz-adv-x="770" d="M521 960H657L537 827H439L521 960ZM184 765H334L515 285Q523 263 528 245T538 214Q542 198 544 186H547L659 765H783L635 0H494L308 484Q299 507 293 525T283 558Q279 573 276 585H273L160
0H36L184 765Z" />
<glyph unicode="&#x144;" glyph-name="nacute" horiz-adv-x="619" d="M405 788H542L423 618H324L405 788ZM424 306Q432 343 432 369Q432 404 416 424T358 444Q301 444 264 401T212 282L159 0H26L129 533H256L238 441H240Q268 488 314 516T420 545Q505 545 542
490T559 326L497 0H365L424 306Z" />
<glyph unicode="&#x145;" glyph-name="Ncommaaccent" horiz-adv-x="770" d="M261 -66H392L295 -215H208L261 -66ZM184 765H334L515 285Q523 263 528 245T538 214Q542 198 544 186H547L659 765H783L635 0H494L308 484Q299 507 293 525T283 558Q279 573 276 585H273L160
0H36L184 765Z" />
<glyph unicode="&#x146;" glyph-name="ncommaaccent" horiz-adv-x="619" d="M186 -66H317L220 -215H133L186 -66ZM424 306Q432 343 432 369Q432 404 416 424T358 444Q301 444 264 401T212 282L159 0H26L129 533H256L238 441H240Q268 488 314 516T420 545Q505 545
542 490T559 326L497 0H365L424 306Z" />
<glyph unicode="&#x147;" glyph-name="Ncaron" horiz-adv-x="770" d="M356 960H454L506 897H507L580 960H684L555 827H437L356 960ZM184 765H334L515 285Q523 263 528 245T538 214Q542 198 544 186H547L659 765H783L635 0H494L308 484Q299 507 293 525T283 558Q279
573 276 585H273L160 0H36L184 765Z" />
<glyph unicode="&#x148;" glyph-name="ncaron" horiz-adv-x="619" d="M247 788H341L386 702L463 788H562L429 618H317L247 788ZM424 306Q432 343 432 369Q432 404 416 424T358 444Q301 444 264 401T212 282L159 0H26L129 533H256L238 441H240Q268 488 314 516T420
545Q505 545 542 490T559 326L497 0H365L424 306Z" />
<glyph unicode="&#x149;" glyph-name="napostrophe" horiz-adv-x="619" d="M145 780H276L179 631H92L145 780ZM424 306Q432 343 432 369Q432 404 416 424T358 444Q301 444 264 401T212 282L159 0H26L129 533H256L238 441H240Q268 488 314 516T420 545Q505 545
542 490T559 326L497 0H365L424 306Z" />
<glyph unicode="&#x14a;" glyph-name="Eng" horiz-adv-x="770" d="M292 -183L314 -78H356Q419 -78 450 -63T499 -12L308 484Q298 507 293 525T283 558Q279 573 276 585H273L160 0H36L184 765H334L515 285Q532 241 538 214Q542 198 544 186H547L659 765H783L655
101L654 100L643 41Q632 -18 612 -60T559 -130T476 -170T357 -183H292Z" />
<glyph unicode="&#x14b;" glyph-name="eng" horiz-adv-x="619" d="M295 -203Q262 -203 244 -198T220 -191L239 -96Q244 -98 255 -100T282 -102Q314 -102 332 -87T358 -34L382 89L424 306Q433 353 429 382Q427 411 411 427T357 444Q300 444 263 401T212 282L159
0H26L129 533H256L238 441H240Q268 488 314 516T420 545Q504 545 542 490T559 326L514 89L489 -44Q480 -89 462 -119T419 -168T362 -195T295 -203Z" />
<glyph unicode="&#x14c;" glyph-name="Omacron" horiz-adv-x="803" d="M372 936H690L672 843H354L372 936ZM72 291Q72 392 101 480T182 634T309 738T475 776Q542 776 598 755T694 694T756 596T778 464Q778 374 752 288T676 134T551 25T378 -16Q311 -16 255 4T159
62T95 158T72 291ZM634 478Q634 516 626 551T598 613T547 656T470 673Q423 673 386 655T320 606T272 535T240 451T221 363T215 279Q215 243 223 209T251 148T303 105T383 88Q428 88 464 106T528 155T576 226T609 309T628 396T634 478Z" />
<glyph unicode="&#x14d;" glyph-name="omacron" horiz-adv-x="588" d="M221 732H539L521 640H203L221 732ZM265 -14Q158 -14 98 44T38 206Q38 269 56 330T111 439T201 516T327 546Q381 546 423 531T495 486T539 417T555 327Q555 261 536 199T480 90T389 15T265
-14ZM421 336Q421 357 417 378T401 416T372 443T324 454Q282 454 253 428T206 364T180 281T172 199Q172 176 176 155T192 116T222 89T270 79Q315 79 344 107T391 174T414 258T421 336Z" />
<glyph unicode="&#x14e;" glyph-name="Obreve" horiz-adv-x="803" d="M465 971Q463 939 478 922T523 904Q553 904 575 921T608 971H696Q687 930 670 902T628 855T575 829T514 820Q483 820 456 829T411 857T384 904T381 971H465ZM72 291Q72 392 101 480T182 634T309
738T475 776Q542 776 598 755T694 694T756 596T778 464Q778 374 752 288T676 134T551 25T378 -16Q311 -16 255 4T159 62T95 158T72 291ZM634 478Q634 516 626 551T598 613T547 656T470 673Q423 673 386 655T320 606T272 535T240 451T221 363T215 279Q215 243 223
209T251 148T303 105T383 88Q428 88 464 106T528 155T576 226T609 309T628 396T634 478Z" />
<glyph unicode="&#x14f;" glyph-name="obreve" horiz-adv-x="588" d="M265 -14Q158 -14 98 44T38 206Q38 269 56 330T111 439T201 516T327 546Q381 546 423 531T495 486T539 417T555 327Q555 261 536 199T480 90T389 15T265 -14ZM421 336Q421 357 417 378T401
416T372 443T324 454Q282 454 253 428T206 364T180 281T172 199Q172 176 176 155T192 116T222 89T270 79Q315 79 344 107T391 174T414 258T421 336ZM369 618Q334 618 306 628T259 660T233 713T235 788H321Q313 748 328 728T375 708Q407 708 429 728T460 788H550Q543
742 526 710T483 658T429 628T369 618Z" />
<glyph unicode="&#x150;" glyph-name="Ohungarumlaut" horiz-adv-x="803" d="M600 966H711L619 833H541L600 966ZM439 966H550L466 833H388L439 966ZM72 291Q72 392 101 480T182 634T309 738T475 776Q542 776 598 755T694 694T756 596T778 464Q778 374 752 288T676
134T551 25T378 -16Q311 -16 255 4T159 62T95 158T72 291ZM634 478Q634 516 626 551T598 613T547 656T470 673Q423 673 386 655T320 606T272 535T240 451T221 363T215 279Q215 243 223 209T251 148T303 105T383 88Q428 88 464 106T528 155T576 226T609 309T628
396T634 478Z" />
<glyph unicode="&#x151;" glyph-name="ohungarumlaut" horiz-adv-x="588" d="M466 788H578L460 618H382L466 788ZM306 788H418L309 618H230L306 788ZM265 -14Q158 -14 98 44T38 206Q38 269 56 330T111 439T201 516T327 546Q381 546 423 531T495 486T539 417T555
327Q555 261 536 199T480 90T389 15T265 -14ZM421 336Q421 357 417 378T401 416T372 443T324 454Q282 454 253 428T206 364T180 281T172 199Q172 176 176 155T192 116T222 89T270 79Q315 79 344 107T391 174T414 258T421 336Z" />
<glyph unicode="&#x152;" glyph-name="OE" horiz-adv-x="1159" d="M384 88Q426 88 463 104T529 152T580 225T612 321L633 426Q642 467 640 511T620 591T566 650T471 673Q424 673 387 655T321 606T273 535T241 451T222 363T216 280Q216 244 224 210T252 148T304
105T384 88ZM564 86Q531 42 478 13T354 -16Q295 -16 244 3T155 60T94 156T72 290Q72 394 101 482T182 636T307 738T468 775Q546 775 599 744T676 660H678L699 765H1182L1161 655H814L772 437H1098L1077 330H751L708 109H1066L1045 0H551L567 86H564Z" />
<glyph unicode="&#x153;" glyph-name="oe" horiz-adv-x="944" d="M780 323Q784 353 783 377T771 420T743 448T697 458Q671 458 649 447T610 417T580 372T559 317H779L780 323ZM421 336Q421 357 417 378T401 416T372 443T324 454Q282 454 253 428T206 364T180 281T172
199Q172 176 176 155T192 116T222 89T270 79Q315 79 344 107T391 174T414 258T421 336ZM877 150Q859 69 796 28T637 -14Q567 -14 523 11T455 82Q423 38 376 12T260 -14Q155 -14 97 44T38 206Q38 269 56 330T111 439T201 516T327 546Q399 546 441 519T504 443Q538
489 587 517T705 546Q771 546 814 524T880 463T908 375T903 271L896 234H544Q543 226 543 219T543 203Q543 177 548 155T566 116T597 89T645 79Q693 79 716 101T747 150H877Z" />
<glyph unicode="&#x154;" glyph-name="Racute" horiz-adv-x="692" d="M465 960H601L481 827H383L465 960ZM390 405Q461 405 501 443T541 557Q541 611 512 638T416 665H300L249 405H390ZM171 0H36L183 765H431Q523 765 585 730Q628 706 653 665T679 560Q679 519
669 482T636 415T580 361T500 325V322L624 0H482L370 303H231L171 0Z" />
<glyph unicode="&#x155;" glyph-name="racute" horiz-adv-x="407" d="M320 788H457L338 618H239L320 788ZM129 533H254L232 423H235Q265 478 313 510T423 542H429L405 413H395Q318 413 271 378T206 256L157 0H26L129 533Z" />
<glyph unicode="&#x156;" glyph-name="Rcommaaccent" horiz-adv-x="692" d="M250 -66H381L284 -215H197L250 -66ZM390 405Q461 405 501 443T541 557Q541 611 512 638T416 665H300L249 405H390ZM171 0H36L183 765H431Q523 765 585 730Q628 706 653 665T679 560Q679
519 669 482T636 415T580 361T500 325V322L624 0H482L370 303H231L171 0Z" />
<glyph unicode="&#x157;" glyph-name="rcommaaccent" horiz-adv-x="407" d="M271 -66H402L305 -215H218L271 -66ZM129 533H254L232 423H235Q265 478 313 510T423 542H429L405 413H395Q318 413 271 378T206 256L157 0H26L129 533Z" />
<glyph unicode="&#x158;" glyph-name="Rcaron" horiz-adv-x="692" d="M285 960H383L435 897H436L509 960H613L484 827H366L285 960ZM390 405Q461 405 501 443T541 557Q541 611 512 638T416 665H300L249 405H390ZM171 0H36L183 765H431Q523 765 585 730Q628 706
653 665T679 560Q679 519 669 482T636 415T580 361T500 325V322L624 0H482L370 303H231L171 0Z" />
<glyph unicode="&#x159;" glyph-name="rcaron" horiz-adv-x="407" d="M169 788H263L308 702L385 788H484L351 618H239L169 788ZM129 533H254L232 423H235Q265 478 313 510T423 542H429L405 413H395Q318 413 271 378T206 256L157 0H26L129 533Z" />
<glyph unicode="&#x15a;" glyph-name="Sacute" horiz-adv-x="671" d="M178 223Q175 90 322 90Q352 90 380 98T429 121T463 160T476 215Q476 252 453 275T379 315L287 344Q196 373 157 421T117 540Q117 596 139 640T200 714T289 760T400 776Q455 776 502 762T583
721T635 652T650 553H513Q516 607 486 640T393 673Q365 673 340 666T297 644T268 610T257 564Q257 528 278 505T352 465L444 436Q538 407 577 360T616 240Q616 182 594 135T532 55T438 3T317 -15Q255 -15 202 -1T111 43T52 118T36 223H178ZM452 960H588L468 827H370L452
960Z" />
<glyph unicode="&#x15b;" glyph-name="sacute" horiz-adv-x="514" d="M335 788H472L353 618H254L335 788ZM361 385Q363 422 339 439T277 457Q261 457 246 453T218 440T199 419T191 390Q191 367 205 352T255 329L319 314Q395 296 426 260T457 169Q457 125 440 91T393
33T322 -2T231 -14Q190 -14 151 -6T82 23T33 76T17 159H139Q137 117 163 96T235 75Q274 75 304 92T334 148Q334 169 319 185T266 210L204 225Q134 242 101 276T68 371Q68 414 85 447T132 502T200 535T282 546Q326 546 363 537T428 507T469 457T480 385H361Z" />
<glyph unicode="&#x15c;" glyph-name="Scircumflex" horiz-adv-x="671" d="M579 827H483L433 890H432L360 827H261L382 960H501L579 827ZM178 223Q175 90 322 90Q352 90 380 98T429 121T463 160T476 215Q476 252 453 275T379 315L287 344Q196 373 157 421T117
540Q117 596 139 640T200 714T289 760T400 776Q455 776 502 762T583 721T635 652T650 553H513Q516 607 486 640T393 673Q365 673 340 666T297 644T268 610T257 564Q257 528 278 505T352 465L444 436Q538 407 577 360T616 240Q616 182 594 135T532 55T438 3T317
-15Q255 -15 202 -1T111 43T52 118T36 223H178Z" />
<glyph unicode="&#x15d;" glyph-name="scircumflex" horiz-adv-x="514" d="M466 618H372L325 704L250 618H151L284 788H396L466 618ZM361 385Q363 422 339 439T277 457Q261 457 246 453T218 440T199 419T191 390Q191 367 205 352T255 329L319 314Q395 296 426
260T457 169Q457 125 440 91T393 33T322 -2T231 -14Q190 -14 151 -6T82 23T33 76T17 159H139Q137 117 163 96T235 75Q274 75 304 92T334 148Q334 169 319 185T266 210L204 225Q134 242 101 276T68 371Q68 414 85 447T132 502T200 535T282 546Q326 546 363 537T428
507T469 457T480 385H361Z" />
<glyph unicode="&#x15e;" glyph-name="Scedilla" horiz-adv-x="671" d="M261 -220Q243 -220 226 -216T196 -203T176 -180T169 -146H238Q241 -168 266 -168Q285 -168 294 -158T303 -132Q303 -118 297 -110T276 -102Q257 -102 247 -114H186L243 -9Q195 -2 156 16T89
63T47 132T36 223H178Q175 90 322 90Q352 90 380 98T429 121T463 160T476 215Q476 252 453 275T379 315L287 344Q196 373 157 421T117 540Q117 596 139 640T200 714T289 760T400 776Q455 776 502 762T583 721T635 652T650 553H513Q516 607 486 640T393 673Q365
673 340 666T297 644T268 610T257 564Q257 528 278 505T352 465L444 436Q538 407 577 360T616 240Q616 182 594 135T532 55T438 3T317 -15Q311 -15 305 -15T293 -14L266 -65H268Q278 -58 287 -56T312 -53Q341 -53 360 -72T379 -121Q379 -166 349 -193T261 -220Z"
/>
<glyph unicode="&#x15f;" glyph-name="scedilla" horiz-adv-x="514" d="M180 -220Q162 -220 145 -216T115 -203T95 -180T88 -146H157Q160 -168 185 -168Q204 -168 213 -158T222 -132Q222 -118 216 -110T195 -102Q176 -102 166 -114H105L163 -8Q132 -2 105 10T58
42T27 91T17 159H139Q137 117 163 96T235 75Q274 75 304 92T334 148Q334 169 319 185T266 210L204 225Q134 242 101 276T68 371Q68 414 85 447T132 502T200 535T282 546Q326 546 363 537T428 507T469 457T480 385H361Q363 422 339 439T277 457Q261 457 246 453T218
440T199 419T191 390Q191 367 205 352T255 329L319 314Q395 296 426 260T457 169Q457 125 440 91T393 33T322 -2T231 -14H212L185 -65H187Q197 -58 206 -56T231 -53Q260 -53 279 -72T298 -121Q298 -166 268 -193T180 -220Z" />
<glyph unicode="&#x160;" glyph-name="Scaron" horiz-adv-x="671" d="M281 960H379L431 897H432L505 960H609L480 827H362L281 960ZM178 223Q175 90 322 90Q352 90 380 98T429 121T463 160T476 215Q476 252 453 275T379 315L287 344Q196 373 157 421T117 540Q117
596 139 640T200 714T289 760T400 776Q455 776 502 762T583 721T635 652T650 553H513Q516 607 486 640T393 673Q365 673 340 666T297 644T268 610T257 564Q257 528 278 505T352 465L444 436Q538 407 577 360T616 240Q616 182 594 135T532 55T438 3T317 -15Q255
-15 202 -1T111 43T52 118T36 223H178Z" />
<glyph unicode="&#x161;" glyph-name="scaron" horiz-adv-x="514" d="M176 788H270L315 702L392 788H491L358 618H246L176 788ZM361 385Q363 422 339 439T277 457Q261 457 246 453T218 440T199 419T191 390Q191 367 205 352T255 329L319 314Q395 296 426 260T457
169Q457 125 440 91T393 33T322 -2T231 -14Q190 -14 151 -6T82 23T33 76T17 159H139Q137 117 163 96T235 75Q274 75 304 92T334 148Q334 169 319 185T266 210L204 225Q134 242 101 276T68 371Q68 414 85 447T132 502T200 535T282 546Q326 546 363 537T428 507T469
457T480 385H361Z" />
<glyph unicode="&#x162;" glyph-name="Tcommaaccent" horiz-adv-x="637" d="M196 -66H327L230 -215H143L196 -66ZM337 0H200L327 654H96L118 765H715L694 654H464L337 0Z" />
<glyph unicode="&#x163;" glyph-name="tcommaaccent" horiz-adv-x="380" d="M360 -66H491L394 -215H307L360 -66ZM316 684L286 533H406L387 437H268L217 177Q207 129 219 112T274 94Q282 94 290 94T306 96Q314 97 320 99L300 -1Q293 -2 272 -5T230 -8Q147 -8 108
33T86 167L138 437H57L76 531H90Q114 531 131 535T160 551T180 586T196 645L204 684H316Z" />
<glyph unicode="&#x164;" glyph-name="Tcaron" horiz-adv-x="637" d="M291 960H389L441 897H442L515 960H619L490 827H372L291 960ZM337 0H200L327 654H96L118 765H715L694 654H464L337 0Z" />
<glyph unicode="&#x165;" glyph-name="tcaron" horiz-adv-x="380" d="M417 788H526L440 610H373L417 788ZM316 684L286 533H406L387 437H268L217 177Q207 129 219 112T274 94Q282 94 290 94T306 96Q314 97 320 99L300 -1Q293 -2 272 -5T230 -8Q147 -8 108 33T86
167L138 437H57L76 531H90Q114 531 131 535T160 551T180 586T196 645L204 684H316Z" />
<glyph unicode="&#x166;" glyph-name="Tbar" horiz-adv-x="637" d="M337 0H200L276 391H97L114 479H293L327 654H96L118 765H715L694 654H464L430 479H611L594 391H413L337 0Z" />
<glyph unicode="&#x167;" glyph-name="tbar" horiz-adv-x="380" d="M300 -1Q293 -2 272 -5T230 -8Q147 -8 108 33T86 167L100 238H16L33 325H116L138 437H57L76 531H90Q114 531 131 535T160 551T180 586T196 645L204 684H316L286 533H406L387 437H268L246 325H366L349
238H229L217 177Q207 129 219 112T274 94Q282 94 290 94T306 96Q314 97 320 99L300 -1Z" />
<glyph unicode="&#x168;" glyph-name="Utilde" horiz-adv-x="744" d="M174 765H311L223 315Q213 264 212 220T229 147Q246 120 278 108T354 95Q398 95 430 107T488 146Q514 174 523 210T542 291L633 765H768L669 252Q643 115 563 50T349 -15Q275 -15 219 3T127
60T80 156T83 294L174 765ZM295 822Q299 849 309 875T337 923T379 957T436 970Q460 970 477 962T508 943T535 925T563 916Q583 916 595 928T617 971H690Q686 941 676 915T648 868T608 836T555 824Q529 824 511 832T478 850T450 868T422 877Q408 877 394 866T367
822H295Z" />
<glyph unicode="&#x169;" glyph-name="utilde" horiz-adv-x="612" d="M196 225Q193 208 191 193T189 165Q188 127 205 108T261 89Q316 89 352 132T404 256L458 533H590L486 0H360L378 91H376Q348 46 305 18T205 -11Q115 -11 77 44T60 206L123 533H255L196 225ZM194
617Q197 648 206 676T232 725T273 758T330 771Q352 771 369 763T401 744T429 726T457 717Q474 717 487 728T509 772H580Q577 741 568 713T542 664T501 631T445 618Q423 618 405 626T372 645T343 664T315 673Q300 673 287 661T265 617H194Z" />
<glyph unicode="&#x16a;" glyph-name="Umacron" horiz-adv-x="744" d="M174 765H311L223 315Q213 264 212 220T229 147Q246 120 278 108T354 95Q398 95 430 107T488 146Q514 174 523 210T542 291L633 765H768L669 252Q643 115 563 50T349 -15Q275 -15 219 3T127
60T80 156T83 294L174 765ZM340 936H658L640 843H322L340 936Z" />
<glyph unicode="&#x16b;" glyph-name="umacron" horiz-adv-x="612" d="M196 225Q193 208 191 193T189 165Q188 127 205 108T261 89Q316 89 352 132T404 256L458 533H590L486 0H360L378 91H376Q348 46 305 18T205 -11Q115 -11 77 44T60 206L123 533H255L196 225ZM236
732H554L536 640H218L236 732Z" />
<glyph unicode="&#x16c;" glyph-name="Ubreve" horiz-adv-x="744" d="M174 765H311L223 315Q213 264 212 220T229 147Q246 120 278 108T354 95Q398 95 430 107T488 146Q514 174 523 210T542 291L633 765H768L669 252Q643 115 563 50T349 -15Q275 -15 219 3T127
60T80 156T83 294L174 765ZM433 971Q431 939 446 922T491 904Q521 904 543 921T576 971H664Q655 930 638 902T596 855T543 829T482 820Q451 820 424 829T379 857T352 904T349 971H433Z" />
<glyph unicode="&#x16d;" glyph-name="ubreve" horiz-adv-x="612" d="M196 225Q193 208 191 193T189 165Q188 127 205 108T261 89Q316 89 352 132T404 256L458 533H590L486 0H360L378 91H376Q348 46 305 18T205 -11Q115 -11 77 44T60 206L123 533H255L196 225ZM383
618Q348 618 320 628T273 660T247 713T249 788H335Q327 748 342 728T389 708Q421 708 443 728T474 788H564Q557 742 540 710T497 658T443 628T383 618Z" />
<glyph unicode="&#x16e;" glyph-name="Uring" horiz-adv-x="744" d="M174 765H311L223 315Q213 264 212 220T229 147Q246 120 278 108T354 95Q398 95 430 107T488 146Q514 174 523 210T542 291L633 765H768L669 252Q643 115 563 50T349 -15Q275 -15 219 3T127
60T80 156T83 294L174 765ZM489 800Q438 802 405 829T371 907Q371 935 380 959T407 999T448 1025T500 1035Q558 1035 588 1005T619 928Q619 869 583 835T489 800ZM501 978Q474 978 459 960T443 909Q443 886 455 872T491 857Q517 857 532 875T548 925Q548 948 536
963T501 978Z" />
<glyph unicode="&#x16f;" glyph-name="uring" horiz-adv-x="612" d="M387 610Q336 611 303 638T269 716Q269 744 278 768T305 808T346 834T398 844Q456 844 486 814T517 737Q517 678 481 644T387 610ZM399 787Q372 787 357 769T341 719Q341 696 353 681T389 666Q415
666 430 684T446 734Q446 757 434 772T399 787ZM196 225Q193 208 191 193T189 165Q188 127 205 108T261 89Q316 89 352 132T404 256L458 533H590L486 0H360L378 91H376Q348 46 305 18T205 -11Q115 -11 77 44T60 206L123 533H255L196 225Z" />
<glyph unicode="&#x170;" glyph-name="Uhungarumlaut" horiz-adv-x="744" d="M571 966H682L590 833H512L571 966ZM410 966H521L437 833H359L410 966ZM174 765H311L223 315Q213 264 212 220T229 147Q246 120 278 108T354 95Q398 95 430 107T488 146Q514 174 523
210T542 291L633 765H768L669 252Q643 115 563 50T349 -15Q275 -15 219 3T127 60T80 156T83 294L174 765Z" />
<glyph unicode="&#x171;" glyph-name="uhungarumlaut" horiz-adv-x="612" d="M196 225Q193 208 191 193T189 165Q188 127 205 108T261 89Q316 89 352 132T404 256L458 533H590L486 0H360L378 91H376Q348 46 305 18T205 -11Q115 -11 77 44T60 206L123 533H255L196
225ZM480 788H592L474 618H396L480 788ZM320 788H432L323 618H244L320 788Z" />
<glyph unicode="&#x172;" glyph-name="Uogonek" horiz-adv-x="744" d="M286 -10Q237 -6 194 13T121 68T80 160T83 294L174 765H311L223 315Q213 264 213 220T230 146Q247 120 279 108T354 95Q396 95 427 105T484 141Q512 169 522 206T542 291L633 765H768L669
252Q656 185 632 139T576 63T504 17T417 -9Q368 -18 348 -35T328 -76Q328 -108 377 -108L362 -188H337Q274 -188 245 -170T215 -112Q215 -78 236 -53T286 -12V-10Z" />
<glyph unicode="&#x173;" glyph-name="uogonek" horiz-adv-x="612" d="M378 91H376Q348 46 305 18T205 -11Q115 -11 77 44T60 206L123 533H255L196 225Q192 208 191 193T189 165Q188 127 205 108T261 89Q316 89 352 132T404 256L458 533H590L487 0Q452 -17 434
-37T415 -79Q415 -108 464 -108L449 -188H424Q302 -188 302 -112Q302 -78 326 -49T396 0H360L378 91Z" />
<glyph unicode="&#x174;" glyph-name="Wcircumflex" horiz-adv-x="1036" d="M785 827H689L639 890H638L566 827H467L588 960H707L785 827ZM174 0L121 765H256L281 302Q283 269 283 244T282 200Q281 179 280 164H282Q287 180 294 199Q307 234 332 289L549 765H680L713
301Q715 269 716 243T717 200Q717 179 716 164H718Q723 180 729 199Q734 216 742 238T764 289L975 765H1104L755 0H618L587 476Q585 508 584 533T583 575Q583 594 584 609H582Q578 595 571 577Q565 561 556 539T534 489L313 0H174Z" />
<glyph unicode="&#x175;" glyph-name="wcircumflex" horiz-adv-x="815" d="M626 618H532L485 704L410 618H311L444 788H556L626 618ZM67 533H190L210 245Q212 225 212 206T212 169V132H214Q221 150 228 168Q234 184 242 203T258 239L400 533H515L545 241Q547 224
548 205T550 169Q551 150 551 131H553L565 167Q570 183 577 201T592 237L724 533H844L596 0H467L440 267Q438 288 437 311T434 353Q433 375 433 396H431Q423 375 414 354Q406 336 397 315T379 274L249 0H120L67 533Z" />
<glyph unicode="&#x176;" glyph-name="Ycircumflex" horiz-adv-x="668" d="M280 332L110 765H256L370 446H372L611 765H756L412 315L351 0H215L280 332ZM600 827H504L454 890H453L381 827H282L403 960H522L600 827Z" />
<glyph unicode="&#x177;" glyph-name="ycircumflex" horiz-adv-x="542" d="M75 533H207L246 234Q250 194 252 164Q253 147 253 133H255Q261 146 267 162Q272 175 279 192T296 227L443 533H575L276 -36Q253 -80 231 -110T182 -160T122 -189T44 -199Q12 -199 -8
-195T-32 -189L-12 -90Q-4 -92 8 -94T37 -96Q80 -96 105 -79T152 -20L163 1L75 533ZM505 618H411L364 704L289 618H190L323 788H435L505 618Z" />
<glyph unicode="&#x178;" glyph-name="Ydieresis" horiz-adv-x="668" d="M280 332L110 765H256L370 446H372L611 765H756L412 315L351 0H215L280 332ZM516 949H634L610 826H492L516 949ZM305 949H423L399 826H281L305 949Z" />
<glyph unicode="&#x179;" glyph-name="Zacute" horiz-adv-x="641" d="M453 960H589L469 827H371L453 960ZM155 765H693L674 668L180 111H572L551 0H-10L8 97L502 654H133L155 765Z" />
<glyph unicode="&#x17a;" glyph-name="zacute" horiz-adv-x="527" d="M359 788H496L377 618H278L359 788ZM113 533H533L515 437L176 102H454L434 0H-2L16 96L354 432H93L113 533Z" />
<glyph unicode="&#x17b;" glyph-name="Zdotaccent" horiz-adv-x="641" d="M155 765H693L674 668L180 111H572L551 0H-10L8 97L502 654H133L155 765ZM393 958H513L489 834H369L393 958Z" />
<glyph unicode="&#x17c;" glyph-name="zdotaccent" horiz-adv-x="527" d="M113 533H533L515 437L176 102H454L434 0H-2L16 96L354 432H93L113 533ZM302 763H422L398 640H278L302 763Z" />
<glyph unicode="&#x17d;" glyph-name="Zcaron" horiz-adv-x="641" d="M288 960H386L438 897H439L512 960H616L487 827H369L288 960ZM155 765H693L674 668L180 111H572L551 0H-10L8 97L502 654H133L155 765Z" />
<glyph unicode="&#x17e;" glyph-name="zcaron" horiz-adv-x="527" d="M208 788H302L347 702L424 788H523L390 618H278L208 788ZM113 533H533L515 437L176 102H454L434 0H-2L16 96L354 432H93L113 533Z" />
<glyph unicode="&#x192;" glyph-name="florin" horiz-adv-x="431" d="M145 -189H18L147 355H37L55 451H169L206 606Q218 660 238 695T286 751T347 780T418 789Q441 789 460 787T487 783L472 682Q467 684 457 685T428 686Q411 686 397 683T371 669T350 642T334
597L299 451H417L399 355H276L145 -189Z" />
<glyph unicode="&#x1fa;" glyph-name="Aringacute" horiz-adv-x="738" d="M430 644Q429 641 417 610T378 528L262 294H478L444 526Q439 553 438 574T434 612Q432 630 432 644H430ZM494 192H211L114 0H-21L377 765H531L661 0H524L494 192ZM534 1188H670L550 1055H452L534
1188ZM474 796Q423 798 390 825T356 903Q356 931 365 955T392 995T433 1021T485 1031Q543 1031 573 1001T604 924Q604 865 568 831T474 796ZM486 974Q459 974 444 956T428 905Q428 882 440 868T476 853Q502 853 517 871T533 921Q533 944 521 959T486 974Z" />
<glyph unicode="&#x1fb;" glyph-name="aringacute" horiz-adv-x="564" d="M226 83Q273 83 308 121T357 230L360 245Q325 244 293 243T228 235Q195 228 173 208T151 154Q151 121 171 102T226 83ZM81 379Q90 458 150 501T312 545Q372 545 413 529T477 483T506 413T503
323L469 149Q463 118 473 106T507 95L488 -2H456Q409 -2 382 16T349 74H346Q316 36 280 15T182 -7Q149 -7 120 2T68 30T32 77T19 144Q19 210 58 249T166 306Q215 318 268 319T375 322L380 348Q390 399 370 426T303 454Q265 454 240 437T210 379H81ZM347 845Q296
846 263 873T229 951Q229 979 238 1003T265 1043T306 1069T358 1079Q416 1079 446 1049T477 972Q477 913 441 879T347 845ZM359 1022Q332 1022 317 1004T301 954Q301 931 313 916T349 901Q375 901 390 919T406 969Q406 992 394 1007T359 1022ZM409 989H545L425
856H327L409 989Z" />
<glyph unicode="&#x1fc;" glyph-name="AEacute" horiz-adv-x="1036" d="M703 960H839L719 827H621L703 960ZM553 655H490Q473 623 456 592T424 537L281 302H485L553 655ZM465 199H219L98 0H-49L424 765H1059L1038 655H690L648 437H975L954 330H627L584 109H942L921
0H427L465 199Z" />
<glyph unicode="&#x1fd;" glyph-name="aeacute" horiz-adv-x="891" d="M538 788H675L556 618H457L538 788ZM730 323Q734 353 733 377T721 420T693 448T647 458Q620 458 598 447T559 417T529 372T508 317H729L730 323ZM226 83Q274 83 308 119T358 230L361 245Q326
244 293 243T227 235Q195 228 174 209T152 154Q152 121 171 102T226 83ZM825 150Q807 69 745 30T589 -10Q511 -10 465 18T394 95H392Q374 74 355 56T311 24T255 2T183 -6Q150 -6 120 3T68 30T33 76T20 142Q20 210 58 249T165 306Q216 318 269 319T376 322L381 348Q391
399 371 426T303 454Q265 454 240 437T210 379H82Q90 458 151 501T313 545Q376 545 414 521T472 459H473Q504 498 549 522T655 546Q720 546 762 524T828 463T856 375T851 271L844 234H493Q492 226 492 219T492 203Q492 149 515 114T594 79Q642 79 665 101T697 150H825Z"
/>
<glyph unicode="&#x1fe;" glyph-name="Oslashacute" horiz-adv-x="803" d="M470 674Q422 674 384 655T317 605T268 533T236 448T217 360T211 279Q211 265 212 251T216 223L600 620Q581 645 550 659T470 674ZM383 87Q429 87 466 106T531 156T580 228T613 312T632
399T638 478Q638 514 632 547L244 147Q264 119 297 103T383 87ZM778 464Q778 374 752 288T676 134T551 25T378 -16Q312 -16 257 3T160 61L76 -26H-26L114 119Q94 154 83 196T72 291Q72 392 101 480T182 634T309 738T475 776Q602 776 682 705L765 790H868L730 648Q753
611 765 565T778 464ZM531 960H667L547 827H449L531 960Z" />
<glyph unicode="&#x1ff;" glyph-name="oslashacute" horiz-adv-x="588" d="M555 327Q555 261 536 199T480 90T389 15T265 -14Q171 -14 113 32L49 -34H-37L72 77Q38 131 38 206Q38 269 56 330T111 439T201 516T327 546Q423 546 482 498L547 564H634L523 451Q555
399 555 327ZM324 456Q281 456 251 430T203 365T176 281T168 199Q168 193 168 188T169 177L405 419Q394 436 374 446T324 456ZM270 77Q316 77 346 105T393 173T418 259T425 337V350L190 110Q201 94 220 86T270 77ZM382 788H519L400 618H301L382 788Z" />
<glyph unicode="&#x218;" glyph-name="Scommaaccent" horiz-adv-x="671" d="M232 -66H363L266 -215H179L232 -66ZM178 223Q175 90 322 90Q352 90 380 98T429 121T463 160T476 215Q476 252 453 275T379 315L287 344Q196 373 157 421T117 540Q117 596 139 640T200
714T289 760T400 776Q455 776 502 762T583 721T635 652T650 553H513Q516 607 486 640T393 673Q365 673 340 666T297 644T268 610T257 564Q257 528 278 505T352 465L444 436Q538 407 577 360T616 240Q616 182 594 135T532 55T438 3T317 -15Q255 -15 202 -1T111 43T52
118T36 223H178Z" />
<glyph unicode="&#x219;" glyph-name="scommaaccent" horiz-adv-x="514" d="M143 -66H274L177 -215H90L143 -66ZM361 385Q363 422 339 439T277 457Q261 457 246 453T218 440T199 419T191 390Q191 367 205 352T255 329L319 314Q395 296 426 260T457 169Q457 125
440 91T393 33T322 -2T231 -14Q190 -14 151 -6T82 23T33 76T17 159H139Q137 117 163 96T235 75Q274 75 304 92T334 148Q334 169 319 185T266 210L204 225Q134 242 101 276T68 371Q68 414 85 447T132 502T200 535T282 546Q326 546 363 537T428 507T469 457T480 385H361Z"
/>
<glyph unicode="&#x21a;" glyph-name="uni021A" horiz-adv-x="637" d="M196 -66H327L230 -215H143L196 -66ZM337 0H200L327 654H96L118 765H715L694 654H464L337 0Z" />
<glyph unicode="&#x21b;" glyph-name="uni021B" horiz-adv-x="380" d="M360 -66H491L394 -215H307L360 -66ZM316 684L286 533H406L387 437H268L217 177Q207 129 219 112T274 94Q282 94 290 94T306 96Q314 97 320 99L300 -1Q293 -2 272 -5T230 -8Q147 -8 108 33T86
167L138 437H57L76 531H90Q114 531 131 535T160 551T180 586T196 645L204 684H316Z" />
<glyph unicode="&#x237;" glyph-name="uni0237" horiz-adv-x="286" d="M-98 -96Q-93 -98 -82 -100T-56 -102Q-24 -102 -5 -87T21 -34L132 533H264L151 -44Q142 -89 124 -120T81 -169T24 -196T-42 -204Q-76 -204 -93 -199T-117 -192L-98 -96Z" />
<glyph unicode="&#x2c6;" glyph-name="circumflex" horiz-adv-x="362" d="M411 618H317L270 704L195 618H96L229 788H341L411 618Z" />
<glyph unicode="&#x2c7;" glyph-name="caron" horiz-adv-x="342" d="M112 788H206L251 702L328 788H427L294 618H182L112 788Z" />
<glyph unicode="&#x2d8;" glyph-name="breve" horiz-adv-x="364" d="M258 618Q223 618 195 628T148 660T122 713T124 788H210Q202 748 217 728T264 708Q296 708 318 728T349 788H439Q432 742 415 710T372 658T318 628T258 618Z" />
<glyph unicode="&#x2d9;" glyph-name="dotaccent" horiz-adv-x="258" d="M170 763H290L266 640H146L170 763Z" />
<glyph unicode="&#x2da;" glyph-name="ring" horiz-adv-x="368" d="M263 610Q212 611 179 638T145 716Q145 744 154 768T181 808T222 834T274 844Q332 844 362 814T393 737Q393 678 357 644T263 610ZM275 787Q248 787 233 769T217 719Q217 696 229 681T265 666Q291
666 306 684T322 734Q322 757 310 772T275 787Z" />
<glyph unicode="&#x2db;" glyph-name="ogonek" horiz-adv-x="371" d="M210 2Q177 -18 158 -37T139 -79Q139 -108 188 -108L173 -188H148Q85 -188 56 -170T26 -112Q26 -73 57 -41T140 6L210 2Z" />
<glyph unicode="&#x2dc;" glyph-name="tilde" horiz-adv-x="364" d="M68 617Q71 648 80 676T106 725T147 758T204 771Q226 771 243 763T275 744T303 726T331 717Q348 717 361 728T383 772H454Q451 741 442 713T416 664T375 631T319 618Q297 618 279 626T246 645T217
664T189 673Q174 673 161 661T139 617H68Z" />
<glyph unicode="&#x2dd;" glyph-name="hungarumlaut" horiz-adv-x="378" d="M338 788H450L332 618H254L338 788ZM178 788H290L181 618H102L178 788Z" />
</font>
</defs>
</svg>
