<?xml version="1.0" standalone="no"?> <!DOCTYPE svg PUBLIC "-//W3C//DTD SVG 1.0//EN" "http://www.w3.org/TR/2001/REC-SVG-20010904/DTD/svg10.dtd" > <svg xmlns="http://www.w3.org/2000/svg" width="100%" height="100%">
<defs >
<font horiz-adv-x="565" ><font-face
    font-family=""
    units-per-em="1000"
    panose-1="0 0 0 0 0 0 0 0 0 0"
    ascent="812"
    descent="-188"
    alphabetic="0" />
<missing-glyph horiz-adv-x="500" />
<glyph unicode=" " glyph-name="space" horiz-adv-x="224" />
<glyph unicode="!" glyph-name="exclam" horiz-adv-x="317" d="M174 787H354L210 243H95L174 787ZM22 0L51 152H223L194 0H22Z" />
<glyph unicode="&quot;" glyph-name="quotedbl" horiz-adv-x="471" d="M362 765H507L427 504H331L362 765ZM160 765H305L225 504H129L160 765Z" />
<glyph unicode="#" glyph-name="numbersign" horiz-adv-x="671" d="M405 373L453 515H338L290 373H405ZM155 278H50L68 373H188L235 515H125L143 610H267L319 765H421L370 610H484L536 765H640L587 610H696L678 515H555L508 373H620L602 278H475L416 99H312L372
278H257L197 99H95L155 278Z" />
<glyph unicode="$" glyph-name="dollar" horiz-adv-x="649" d="M364 636Q317 632 288 609T259 546Q259 508 276 491T330 462L364 636ZM329 104Q353 106 375 113T413 132T438 161T448 202Q448 240 430 260T366 295L329 104ZM239 -9Q123 4 69 65T23 216H180Q178
170 196 143T261 107L301 313L268 322Q177 347 138 395T99 513Q99 568 120 611T180 685T270 730T385 747L401 828L470 829L453 743Q552 729 603 673T647 532H496Q498 570 483 595T432 631L395 444L430 434Q526 408 568 361T610 232Q610 178 590 134T531 58T436
8T307 -12L287 -115L218 -116L239 -9Z" />
<glyph unicode="%" glyph-name="percent" horiz-adv-x="872" d="M734 781H851L191 -40H74L734 781ZM97 525Q97 572 112 612T153 680T215 725T292 741Q364 741 405 702T447 595Q447 548 432 509T391 441T330 396T252 380Q181 380 139 419T97 525ZM257 464Q278 464
294 476T320 507T335 549T340 596Q340 622 328 640T287 658Q267 658 252 647T226 617T209 575T203 526Q203 500 215 482T257 464ZM623 -7Q551 -7 510 31T468 137Q468 184 483 224T524 292T585 337T663 353Q735 353 776 315T818 208Q818 161 803 122T762 54T701
9T623 -7ZM628 77Q649 77 664 88T690 118T705 159T711 205Q712 233 700 251T658 270Q637 270 622 259T596 230T580 188T573 139Q573 113 586 95T628 77Z" />
<glyph unicode="&amp;" glyph-name="ampersand" horiz-adv-x="754" d="M324 589Q324 562 334 537T365 482Q388 494 408 507T444 536T469 570T478 613Q478 646 459 666T410 687Q370 687 347 658T324 589ZM281 345Q190 288 190 209Q190 160 221 131T306 101Q341
101 370 112T425 144L286 348L281 345ZM646 -1Q616 -1 593 2T552 12T519 30T489 57Q446 24 394 5T276 -15Q225 -15 181 -2T105 37T55 100T37 185Q37 230 51 266T92 333T154 387T232 431Q209 466 197 501T185 579Q185 628 203 666T253 731T325 772T413 786Q456 786
492 775T554 743T595 691T610 621Q610 580 594 548T551 489T491 440T422 399L515 258Q536 294 555 333T595 412H728Q693 347 660 282T585 160Q605 138 628 131T694 121L671 -1H646Z" />
<glyph unicode="&apos;" glyph-name="quotesingle" horiz-adv-x="269" d="M160 765H305L225 504H129L160 765Z" />
<glyph unicode="(" glyph-name="parenleft" horiz-adv-x="351" d="M149 -130Q133 -99 118 -64T91 13T72 101T65 203Q65 290 86 371T142 527T223 666T320 788H440Q387 720 344 650T269 507T220 354T201 189Q201 139 205 95T216 12T234 -62T257 -130H149Z" />
<glyph unicode=")" glyph-name="parenright" horiz-adv-x="351" d="M234 788Q250 757 265 722T291 645T310 557T317 455Q317 368 297 287T241 131T160 -9T63 -130H-58Q-5 -62 39 8T114 151T163 304T181 469Q182 569 166 645T125 788H234Z" />
<glyph unicode="*" glyph-name="asterisk" horiz-adv-x="441" d="M277 542L190 418L107 488L229 582V586L98 611L156 719L262 647L264 649L266 788H380L327 646L329 643L461 707L477 595L337 581V577L420 476L318 415L280 542H277Z" />
<glyph unicode="+" glyph-name="plus" horiz-adv-x="616" d="M340 104H211L249 300H67L89 416H271L309 610H438L400 416H584L562 300H378L340 104Z" />
<glyph unicode="," glyph-name="comma" horiz-adv-x="282" d="M62 159H225L80 -117H-24L62 159Z" />
<glyph unicode="-" glyph-name="hyphen" horiz-adv-x="412" d="M78 374H387L363 251H55L78 374Z" />
<glyph unicode="." glyph-name="period" horiz-adv-x="285" d="M42 159H208L177 0H12L42 159Z" />
<glyph unicode="/" glyph-name="slash" horiz-adv-x="562" d="M527 788H653L36 -130H-91L527 788Z" />
<glyph unicode="0" glyph-name="zero" horiz-adv-x="688" d="M61 255Q61 304 69 360T94 471T138 576T205 666T297 728T416 751Q474 751 521 733T602 680T653 592T670 472Q669 420 661 364T636 254T592 152T526 66T436 8T320 -14Q200 -14 131 55T61 255ZM323 104Q353
104 378 122T423 170T458 240T483 323T498 411T503 493Q503 521 498 546T482 591T453 621T406 633Q361 633 328 594T272 495T238 369T227 244Q227 215 231 190T247 146T277 115T323 104Z" />
<glyph unicode="1" glyph-name="one" horiz-adv-x="428" d="M220 508H77L96 610H113Q184 610 227 641Q267 672 285 742H422L278 0H122L220 508Z" />
<glyph unicode="2" glyph-name="two" horiz-adv-x="626" d="M103 495Q123 620 199 686T400 752Q448 752 490 741T563 706T611 646T628 559Q627 514 611 476T566 402T500 334T418 265L245 128V127H553L529 0H-8L9 92L315 344Q345 368 372 392T421 441T454 494T467
551Q467 589 446 612T386 634Q365 634 345 628T307 605T278 563T259 495H103Z" />
<glyph unicode="3" glyph-name="three" horiz-adv-x="637" d="M266 320L288 432H340Q395 433 428 463T462 546Q462 589 435 610T371 632Q323 632 293 606T255 524H102Q107 570 127 611T183 684T268 733T381 752Q429 752 472 741T547 707T598 648T617 562Q617 526
606 496T575 443T529 403T472 379V376Q524 361 554 322T584 220Q584 164 562 120T500 46T408 1T294 -15Q234 -15 184 0T99 44T47 116T33 215H191Q189 164 217 136T300 108Q360 108 393 142T426 229Q426 248 421 264T405 293T377 313T334 320H266Z" />
<glyph unicode="4" glyph-name="four" horiz-adv-x="653" d="M387 284L450 603H448Q441 591 432 578Q424 567 413 552T389 520L192 284H387ZM514 165L482 0H329L361 165H18L38 275L440 741H626L538 286H626L602 165H514Z" />
<glyph unicode="5" glyph-name="five" horiz-adv-x="631" d="M428 269Q428 316 405 343T335 372Q296 373 266 361T212 319H82L197 741H626L601 615H292L242 428H244Q267 453 306 472T396 491Q441 491 477 477T537 435T575 371T588 287Q588 219 564 164T498 68T398
7T275 -15Q218 -15 171 -1T91 42T43 113T35 209H186Q183 159 208 133T282 107Q316 107 343 120T389 155T418 207T428 269Z" />
<glyph unicode="6" glyph-name="six" horiz-adv-x="649" d="M500 565Q493 638 422 638Q360 638 311 575T235 392H239Q268 436 313 461T417 486Q462 486 497 471T556 429T593 365T606 284Q607 219 585 164T522 69T428 7T309 -15Q243 -15 196 5T118 60T74 144T59
250Q59 343 85 433T161 595T280 709T437 752Q536 751 589 707T647 565H500ZM316 105Q347 105 371 119T413 156T438 209T447 268Q447 315 422 342T352 369Q322 369 298 356T256 320T230 268T221 208Q221 162 245 134T316 105Z" />
<glyph unicode="7" glyph-name="seven" horiz-adv-x="555" d="M419 614H93L118 741H626L608 651L201 0H36L419 614Z" />
<glyph unicode="8" glyph-name="eight" horiz-adv-x="645" d="M387 752Q434 752 477 741T554 706T607 646T627 562Q627 523 616 493T584 440T538 402T484 377V374Q529 357 562 319T595 220Q595 167 573 124T512 50T418 1T300 -16Q239 -16 190 -2T107 37T53 100T34
183Q34 224 47 257T84 316T139 360T207 387V391Q169 408 144 442T118 529Q118 578 139 619T196 689T281 735T387 752ZM382 641Q354 641 333 631T296 603T274 564T266 516Q266 473 292 451T361 429Q385 429 406 437T442 461T467 499T477 551Q477 595 450 618T382
641ZM303 92Q335 92 360 102T402 131T429 172T438 222Q438 248 429 266T405 297T369 315T324 321Q296 321 272 312T231 287T203 246T193 192Q193 141 224 117T303 92Z" />
<glyph unicode="9" glyph-name="nine" horiz-adv-x="649" d="M382 630Q349 630 324 617T283 581T258 531T249 474Q250 429 275 403T347 376Q380 376 405 389T447 423T473 471T482 529Q480 574 455 602T382 630ZM268 -15Q217 -15 175 -3T103 34T58 94T47 179H194Q193
135 216 118T275 101Q351 101 396 165T465 349H461Q432 305 387 283T284 261Q193 261 143 314T92 457Q92 522 114 576T177 669T272 730T390 752Q457 752 504 732T581 677T624 595T638 495Q638 391 614 298T543 136T427 26T268 -15Z" />
<glyph unicode=":" glyph-name="colon" horiz-adv-x="293" d="M120 527H284L253 368H89L120 527ZM18 0L48 159H212L182 0H18Z" />
<glyph unicode=";" glyph-name="semicolon" horiz-adv-x="308" d="M141 527H305L274 368H110L141 527ZM-20 -117L66 159H228L84 -117H-20Z" />
<glyph unicode="&lt;" glyph-name="less" horiz-adv-x="603" d="M56 298L71 372L605 618L579 477L240 328L519 173L495 50L56 298Z" />
<glyph unicode="=" glyph-name="equal" horiz-adv-x="629" d="M130 515H601L578 400H107L130 515ZM68 195L90 310H561L538 195H68Z" />
<glyph unicode="&gt;" glyph-name="greater" horiz-adv-x="603" d="M579 372L565 297L31 51L57 191L397 342L117 496L140 618L579 372Z" />
<glyph unicode="?" glyph-name="question" horiz-adv-x="584" d="M224 239L235 296Q240 320 245 338T260 370T285 398T325 429L390 473Q427 498 446 525T465 591Q465 629 440 652T369 675Q314 675 280 641T243 532H94Q96 589 114 637T168 721T256 775T379 795Q431
795 475 782T550 744T600 684T618 604Q618 530 584 481T490 392L418 344Q391 326 383 311T368 269L362 239H224ZM191 152H363L333 0H162L191 152Z" />
<glyph unicode="@" glyph-name="at" horiz-adv-x="1006" d="M720 54Q660 54 625 78T583 151H580Q557 109 521 83T425 56Q351 56 310 105T269 234Q269 287 284 337T328 425T398 487T493 511Q542 511 572 489T613 437H615L626 495H754L696 220Q677 128 744 128Q767
128 791 141T836 181T870 252T883 357Q883 428 860 486T793 587T687 652T549 675Q465 675 389 643T256 552T165 414T131 240Q131 156 156 89T226 -24T335 -95T476 -120Q557 -120 624 -96T738 -36L777 -83Q724 -125 648 -155T465 -185Q372 -185 296 -155T166 -69T82
65T52 239Q52 346 92 438T200 597T360 702T553 740Q644 740 719 713T849 637T934 518T964 364Q964 281 943 223T886 127T808 72T720 54ZM470 146Q507 146 536 177T577 262L586 306Q590 329 589 350T579 387T556 412T521 422Q491 422 469 404T432 359T410 298T403
234Q403 193 419 170T470 146Z" />
<glyph unicode="A" glyph-name="A" horiz-adv-x="746" d="M428 627Q427 624 415 593T377 509L271 290H470L441 505Q437 533 435 555T432 594Q430 612 430 627H428ZM487 172H213L128 0H-31L366 765H546L675 0H513L487 172Z" />
<glyph unicode="B" glyph-name="B" horiz-adv-x="716" d="M27 0L175 765H453Q507 765 551 755T628 722T677 666T695 586Q695 509 653 465T538 403V399Q597 386 632 346T668 242Q668 181 646 136T583 60T487 15T364 0H27ZM406 449Q475 449 507 481T539 565Q539
606 513 628T433 651H314L275 449H406ZM362 117Q394 117 421 124T469 147T502 187T514 245Q514 294 483 317T393 341H254L210 117H362Z" />
<glyph unicode="C" glyph-name="C" horiz-adv-x="760" d="M589 506Q591 576 562 616T466 655Q403 654 360 618T290 527T251 406T239 278Q239 245 246 214T270 158T315 120T384 105Q450 105 493 144T553 260H717Q706 195 677 144T605 57T504 3T379 -16Q307 -16
249 3T151 61T89 159T67 299Q67 388 92 474T168 627T295 735T473 776Q534 776 586 761T676 713T735 629T757 506H589Z" />
<glyph unicode="D" glyph-name="D" horiz-adv-x="758" d="M174 765H416Q489 765 549 746T652 688T718 591T742 457Q742 362 715 279T634 134T498 36T307 0H27L174 765ZM316 123Q386 123 435 153T514 231T558 342T572 469Q572 517 560 550T525 604T470 634T400
643H312L211 123H316Z" />
<glyph unicode="E" glyph-name="E" horiz-adv-x="636" d="M175 765H664L640 640H312L274 443H585L561 321H250L212 124H552L528 0H27L175 765Z" />
<glyph unicode="F" glyph-name="F" horiz-adv-x="592" d="M188 0H27L175 765H646L622 640H312L269 418H561L538 295H245L188 0Z" />
<glyph unicode="G" glyph-name="G" horiz-adv-x="792" d="M594 533Q596 594 565 626T475 658Q430 658 395 640T334 592T289 523T259 442T242 359T237 281Q237 247 244 215T269 157T313 117T381 102Q422 102 453 115T506 151T544 206T569 275L573 291H406L429 408H756L677
0H549L570 108H567Q543 56 487 20T347 -16Q280 -16 228 5T140 65T86 161T67 288Q67 378 92 465T169 622T299 733T482 776Q543 776 594 761T682 716T740 641T761 533H594Z" />
<glyph unicode="H" glyph-name="H" horiz-adv-x="772" d="M187 0H26L174 765H335L273 445H572L634 765H796L648 0H486L548 319H249L187 0Z" />
<glyph unicode="I" glyph-name="I" horiz-adv-x="312" d="M175 765H337L189 0H27L175 765Z" />
<glyph unicode="J" glyph-name="J" horiz-adv-x="436" d="M-17 -3L9 127H63Q103 127 128 134T168 157T192 196T206 250L308 765H467L363 232Q350 167 329 122T272 49T186 9T66 -3H-17Z" />
<glyph unicode="K" glyph-name="K" horiz-adv-x="721" d="M188 0H27L175 765H336L270 423L602 765H787L452 433L652 0H479L330 325L232 228L188 0Z" />
<glyph unicode="L" glyph-name="L" horiz-adv-x="597" d="M175 765H336L213 128H536L511 0H27L175 765Z" />
<glyph unicode="M" glyph-name="M" horiz-adv-x="942" d="M174 765H402L453 364Q456 341 457 318T461 277Q463 256 464 236H467Q475 255 484 275Q492 292 502 314T523 359L730 765H966L818 0H665L782 601H779Q769 578 757 552Q746 529 733 501T703 442L475 0H358L304
442Q300 472 298 500T294 552Q292 578 292 601H289L172 0H27L174 765Z" />
<glyph unicode="N" glyph-name="N" horiz-adv-x="765" d="M175 765H346L504 340Q513 315 519 295T529 259Q533 241 536 227H539L643 765H788L640 0H482L316 431Q306 457 300 478T289 515Q284 533 281 548H278L172 0H27L175 765Z" />
<glyph unicode="O" glyph-name="O" horiz-adv-x="804" d="M67 294Q67 392 95 479T176 633T304 737T473 776Q538 776 595 757T694 698T759 599T783 461Q783 369 757 283T680 131T554 24T380 -16Q315 -16 258 2T159 57T92 153T67 294ZM613 481Q613 516 606 548T581
604T536 643T468 658Q425 658 392 641T332 593T288 524T259 443T242 358T237 277Q237 244 244 213T269 158T315 119T386 104Q426 104 458 121T516 168T560 235T590 316T607 400T613 481Z" />
<glyph unicode="P" glyph-name="P" horiz-adv-x="654" d="M238 262L188 0H27L175 765H418Q475 765 522 752T603 712T655 645T674 549Q674 477 650 423T582 333T480 280T351 262H238ZM363 383Q436 383 476 424T516 544Q516 598 488 622T402 647H313L262 383H363Z" />
<glyph unicode="Q" glyph-name="Q" horiz-adv-x="804" d="M373 -13Q308 -13 252 5T155 61T91 156T67 294Q67 390 94 477T174 631T301 736T473 776Q538 776 594 757T693 698T759 599T783 461Q783 387 769 326T729 215T669 127T593 64V58Q646 48 678 23T738 -52L593
-132Q575 -99 558 -76T521 -38T480 -17T428 -10Q415 -10 403 -11T373 -13ZM388 102Q449 102 491 138T561 231T600 354T613 481Q613 516 606 548T581 604T536 643T468 658Q425 658 392 641T332 593T288 524T259 443T242 358T237 277Q237 244 244 213T269 157T316
117T388 102Z" />
<glyph unicode="R" glyph-name="R" horiz-adv-x="699" d="M385 408Q452 408 491 443T530 551Q530 602 502 626T409 651H313L266 408H385ZM188 0H27L174 765H426Q515 765 579 736Q630 713 661 670T692 554Q692 470 651 408T516 317V315L641 0H473L362 291H244L188 0Z" />
<glyph unicode="S" glyph-name="S" horiz-adv-x="673" d="M196 222Q194 165 224 135T324 105Q352 105 377 112T422 134T452 168T463 215Q463 252 441 271T371 305L277 332Q184 359 144 409T103 535Q103 593 126 637T190 713T283 760T397 776Q455 776 504 762T589
720T642 651T658 554H495Q498 602 471 629T390 657Q338 657 303 631T268 556Q268 521 292 504T359 474L454 447Q549 420 588 371T628 249Q628 189 605 140T541 57T443 3T318 -16Q250 -16 195 -1T102 44T44 118T28 222H196Z" />
<glyph unicode="T" glyph-name="T" horiz-adv-x="644" d="M354 0H192L315 636H96L121 765H720L695 636H477L354 0Z" />
<glyph unicode="U" glyph-name="U" horiz-adv-x="744" d="M167 765H328L238 304Q229 258 230 220T247 159Q264 135 292 125T360 114Q436 114 477 158Q499 182 507 213T524 285L617 765H776L678 258Q651 118 570 51T353 -16Q194 -16 120 64T76 295L167 765Z" />
<glyph unicode="V" glyph-name="V" horiz-adv-x="725" d="M119 765H281L337 279Q343 220 343 188V155H345Q349 167 355 185Q360 199 369 220T392 268L644 765H805L408 0H223L119 765Z" />
<glyph unicode="W" glyph-name="W" horiz-adv-x="1035" d="M168 0L117 765H278L298 339Q300 307 300 281T299 237Q298 216 297 200H299Q304 216 311 235Q317 252 325 275T347 326L545 765H691L723 337Q725 305 726 280T727 237Q727 216 726 200H728Q732 217 738
236Q743 253 751 275T772 326L960 765H1111L769 0H612L583 448Q581 480 580 504T579 545Q579 564 580 578H578Q573 564 567 546Q562 531 554 509T533 460L329 0H168Z" />
<glyph unicode="X" glyph-name="X" horiz-adv-x="732" d="M299 401L142 765H316L416 515H417L611 765H785L484 395L659 0H480L367 279H366L149 0H-24L299 401Z" />
<glyph unicode="Y" glyph-name="Y" horiz-adv-x="683" d="M276 330L110 765H280L383 464H385L602 765H771L434 313L373 0H212L276 330Z" />
<glyph unicode="Z" glyph-name="Z" horiz-adv-x="644" d="M152 765H699L677 653L207 128H580L556 0H-14L8 112L478 638H127L152 765Z" />
<glyph unicode="[" glyph-name="bracketleft" horiz-adv-x="379" d="M195 788H454L435 692H305L164 -34H294L275 -130H16L195 788Z" />
<glyph unicode="\" glyph-name="backslash" horiz-adv-x="548" d="M114 788H230L499 -130H381L114 788Z" />
<glyph unicode="]" glyph-name="bracketright" horiz-adv-x="387" d="M214 -130H-44L-26 -34H104L246 692H116L135 788H393L214 -130Z" />
<glyph unicode="^" glyph-name="asciicircum" horiz-adv-x="434" d="M468 495H367L300 668H299L168 495H60L269 788H373L468 495Z" />
<glyph unicode="_" glyph-name="underscore" horiz-adv-x="392" d="M-47 -91H338L319 -190H-66L-47 -91Z" />
<glyph unicode="`" glyph-name="grave" horiz-adv-x="313" d="M289 614H174L101 788H253L289 614Z" />
<glyph unicode="a" glyph-name="a" horiz-adv-x="576" d="M239 94Q283 94 312 130T354 227L357 242Q325 241 297 240T244 233Q212 226 192 208T172 159Q172 127 190 111T239 94ZM76 377Q85 454 146 501T317 548Q381 548 424 531T493 484T524 413T521 321L490 159Q484
130 494 120T528 109L506 -1H461Q417 -1 388 13T349 68H346Q329 50 313 36T277 13T236 -1T183 -6Q150 -6 120 3T68 31T32 78T18 145Q18 269 158 308Q205 321 259 322T373 325L378 353Q386 398 369 422T310 446Q276 446 254 430T226 377H76Z" />
<glyph unicode="b" glyph-name="b" horiz-adv-x="633" d="M171 788H327L261 451H263Q289 494 330 520T431 547Q516 547 560 490T604 335Q604 277 590 216T543 103T460 20T337 -13Q291 -13 248 8T185 82H183L168 0H18L171 788ZM308 93Q345 93 371 116T414 175T438
251T446 329Q446 438 362 438Q314 438 278 403T231 309L219 243Q213 212 214 185T226 138T257 105T308 93Z" />
<glyph unicode="c" glyph-name="c" horiz-adv-x="591" d="M414 344Q416 386 399 414T336 443Q299 443 273 421T229 365T204 289T196 208Q196 157 218 126T288 94Q336 94 363 124T399 199H550Q544 145 520 105T460 39T377 -1T281 -14Q228 -14 184 -1T106 41T55
112T36 214Q36 281 55 342T113 449T209 522T341 549Q395 549 438 535T511 495T556 430T570 344H414Z" />
<glyph unicode="d" glyph-name="d" horiz-adv-x="638" d="M338 439Q302 439 276 418T232 362T206 286T197 202Q197 150 216 122T279 93Q327 93 364 128T412 224L424 288Q431 320 430 347T418 395T388 427T338 439ZM522 0H373L388 80H386Q360 42 321 14T222 -14Q177
-14 143 2T85 46T50 114T38 202Q38 262 55 323T105 434T189 515T307 547Q365 547 401 524T454 461H456L519 788H675L522 0Z" />
<glyph unicode="e" glyph-name="e" horiz-adv-x="589" d="M406 328Q414 386 396 418T330 450Q282 450 251 414T206 321H405L406 328ZM529 156Q520 113 498 81T442 28T366 -3T276 -14Q220 -14 176 1T100 46T52 117T35 212Q35 278 55 339T113 446T208 521T337 549Q405
549 451 526T523 464T555 374T552 268L545 231H193Q192 225 192 219T192 206Q192 156 213 125T284 93Q324 93 346 111T375 156H529Z" />
<glyph unicode="f" glyph-name="f" horiz-adv-x="363" d="M197 0H44L127 426H54L76 536H148L163 611Q173 665 192 700T240 756T304 785T383 794Q415 794 436 791T462 786L441 677Q438 678 428 679T402 680Q364 680 344 664T315 609L301 536H403L381 426H280L197 0Z" />
<glyph unicode="g" glyph-name="g" horiz-adv-x="633" d="M425 294Q431 323 430 349T419 396T390 427T341 439Q303 439 276 418T232 365T207 294T198 217Q199 170 220 143T288 115Q312 115 333 124T370 151T398 190T414 239L425 294ZM154 -31Q155 -64 179 -80T240
-97Q300 -97 330 -64T372 30L386 97H384Q373 81 358 66T324 39T281 20T225 13Q138 13 89 63T39 213Q39 275 57 335T109 442T194 518T309 547Q370 547 407 522T459 454H461L477 536H627L530 38Q506 -86 432 -142T233 -199Q173 -199 130 -187T60 -152T20 -99T7 -31H154Z"
/>
<glyph unicode="h" glyph-name="h" horiz-adv-x="628" d="M421 304Q425 322 427 336T429 363Q429 396 414 414T361 433Q308 433 275 393T228 281L174 0H18L171 788H327L260 447H262Q289 494 334 520T439 547Q525 547 564 492T581 326L518 0H363L421 304Z" />
<glyph unicode="i" glyph-name="i" horiz-adv-x="289" d="M167 773H324L296 629H139L167 773ZM122 536H278L174 0H18L122 536Z" />
<glyph unicode="j" glyph-name="j" horiz-adv-x="293" d="M171 773H328L300 629H143L171 773ZM-40 -206Q-79 -206 -98 -201T-121 -194L-100 -86Q-97 -87 -86 -89T-59 -91Q-28 -91 -10 -76T16 -23L125 536H281L170 -33Q160 -83 140 -116T93 -170T31 -198T-40 -206Z" />
<glyph unicode="k" glyph-name="k" horiz-adv-x="588" d="M171 0H18L171 788H324L232 316L447 536H618L391 312L526 0H366L271 217L199 142L171 0Z" />
<glyph unicode="l" glyph-name="l" horiz-adv-x="289" d="M171 788H327L174 0H18L171 788Z" />
<glyph unicode="m" glyph-name="m" horiz-adv-x="958" d="M748 304Q751 321 753 335T755 363Q755 395 740 414T689 433Q643 433 610 395T562 281L509 0H354L412 304Q420 339 420 363Q420 396 405 414T354 433Q306 433 274 394T227 281L174 0H18L122 536H272L253
442H255Q285 490 329 518T434 547Q469 547 493 538T533 512T557 475T568 431H570Q608 492 658 519T767 547Q854 547 891 491T907 326L844 0H689L748 304Z" />
<glyph unicode="n" glyph-name="n" horiz-adv-x="632" d="M421 304Q429 339 429 363Q429 396 414 414T361 433Q308 433 275 393T227 280L174 0H18L122 536H272L253 442H255Q284 491 331 519T439 547Q525 547 563 492T581 327L518 0H363L421 304Z" />
<glyph unicode="o" glyph-name="o" horiz-adv-x="606" d="M276 -14Q223 -14 179 0T103 42T54 113T36 212Q36 277 55 337T113 445T207 520T336 549Q390 549 434 534T511 489T560 419T578 324Q578 253 557 192T497 84T402 12T276 -14ZM419 335Q419 354 415 373T402
408T375 433T333 443Q294 443 268 419T225 358T201 281T194 204Q194 182 198 162T212 127T239 102T282 93Q323 93 349 119T391 182T413 261T419 335Z" />
<glyph unicode="p" glyph-name="p" horiz-adv-x="633" d="M308 93Q344 93 370 115T413 171T438 247T446 329Q446 380 427 409T362 438Q314 438 278 403T231 309L219 244Q213 213 214 186T226 138T257 105T308 93ZM122 536H272L255 448H257Q282 490 327 518T432
547Q517 547 560 490T604 335Q604 277 589 216T542 103T460 20T337 -13Q286 -13 246 10T190 74H188L137 -188H-19L122 536Z" />
<glyph unicode="q" glyph-name="q" horiz-adv-x="636" d="M485 -188H329L379 70H377Q366 55 352 40T320 13T278 -6T224 -14Q178 -14 143 2T85 46T50 115T38 202Q38 262 54 323T104 434T187 515T307 547Q368 547 404 522T458 458H460L476 536H626L485 -188ZM279
93Q327 93 364 128T412 224L424 288Q431 320 430 347T418 395T388 427T338 439Q302 439 276 418T232 362T206 286T197 202Q197 150 217 122T279 93Z" />
<glyph unicode="r" glyph-name="r" horiz-adv-x="419" d="M122 536H269L246 420H248Q283 483 333 514T443 545H450L422 396H412Q373 396 341 389T285 364T244 316T218 238L172 0H18L122 536Z" />
<glyph unicode="s" glyph-name="s" horiz-adv-x="525" d="M359 384Q361 418 338 433T282 448Q249 448 228 433T206 390Q206 367 222 356T271 336L337 321Q413 304 443 269T473 174Q473 128 455 93T406 33T331 -3T236 -15Q188 -15 147 -5T75 28T29 82T14 159H156Q154
121 177 104T241 86Q276 86 302 100T329 149Q329 168 316 181T269 203L206 217Q138 232 102 268T65 369Q65 414 83 447T132 503T203 537T289 549Q334 549 373 539T440 507T483 455T495 384H359Z" />
<glyph unicode="t" glyph-name="t" horiz-adv-x="393" d="M334 687L305 536H421L399 426H284L238 189Q229 142 240 126T293 109Q301 109 309 109T324 111Q331 112 337 114L315 0Q304 -2 282 -4T237 -7Q147 -7 106 37T84 179L132 426H55L77 535H93Q117 535 133
539T161 555T181 589T197 647L205 687H334Z" />
<glyph unicode="u" glyph-name="u" horiz-adv-x="623" d="M212 230Q206 200 206 176Q205 138 222 121T273 104Q321 104 354 143T401 256L456 536H611L507 0H358L376 92H374Q345 46 301 18T200 -10Q109 -10 70 45T52 207L116 536H272L212 230Z" />
<glyph unicode="v" glyph-name="v" horiz-adv-x="561" d="M68 536H220L253 274Q256 249 257 226T260 185Q261 164 261 145H263Q270 164 279 184Q287 201 296 223T316 267L449 536H603L316 0H155L68 536Z" />
<glyph unicode="w" glyph-name="w" horiz-adv-x="831" d="M63 536H205L224 280Q226 256 226 232T227 189Q227 167 226 147H228Q234 167 242 188Q249 206 257 227T275 269L401 536H531L557 273Q559 253 559 231T561 190Q562 168 562 146H565Q570 166 577 187Q582
205 590 226T606 266L725 536H862L617 0H468L446 220Q443 246 442 274T439 326Q438 353 438 380H436Q426 354 415 328Q406 305 396 280T374 231L267 0H119L63 536Z" />
<glyph unicode="x" glyph-name="x" horiz-adv-x="559" d="M194 288L79 536H238L304 374H306L422 536H586L373 274L500 0H337L263 184H261L126 0H-39L194 288Z" />
<glyph unicode="y" glyph-name="y" horiz-adv-x="560" d="M70 536H227L260 255Q262 232 263 213T265 177V143H267Q272 158 279 175Q285 189 292 206T309 243L445 536H600L302 -32Q279 -76 256 -107T204 -159T139 -189T53 -199Q15 -199 -6 -195T-30 -189L-7 -75Q-2
-77 12 -79T45 -81Q87 -81 112 -67T154 -16L161 -1L70 536Z" />
<glyph unicode="z" glyph-name="z" horiz-adv-x="535" d="M110 536H548L527 432L206 117H470L448 0H-5L14 104L336 421H87L110 536Z" />
<glyph unicode="{" glyph-name="braceleft" horiz-adv-x="413" d="M54 279L76 388H105Q124 388 136 391T156 403T168 423T177 455L207 617Q229 726 298 765T489 792L471 700Q433 702 408 697T367 678T341 644T327 595L299 452Q294 428 288 409T270 375T242 352T198
339V335Q221 329 233 316T251 285T256 246T250 200L225 73Q219 43 221 22T235 -12T270 -33T331 -42L313 -134Q253 -132 209 -121T137 -85T100 -21T102 77L128 209Q136 246 125 262T84 279H54Z" />
<glyph unicode="|" glyph-name="bar" horiz-adv-x="281" d="M195 788H301L122 -130H16L195 788Z" />
<glyph unicode="}" glyph-name="braceright" horiz-adv-x="419" d="M391 382L370 273H340Q322 273 310 270T290 258T278 238T269 206L238 44Q227 -11 205 -47T148 -104T66 -131T-43 -131L-26 -39Q12 -41 37 -36T79 -17T105 17T119 66L144 201Q153 249 175 282T248
322V326Q225 332 212 345T194 376T189 415T195 461L221 588Q227 618 225 639T211 673T176 694T115 703L133 795Q193 793 237 782T309 746T345 681T343 582L317 452Q310 415 321 399T362 382H391Z" />
<glyph unicode="~" glyph-name="asciitilde" horiz-adv-x="477" d="M31 254Q36 290 47 321T77 375T122 411T183 424Q206 424 225 416T260 399T292 381T321 373Q336 373 350 384T370 425H471Q463 341 427 298T325 255Q302 255 282 263T244 280T211 298T181 306Q164
306 149 293T131 254H31Z" />
<glyph unicode="&#xa0;" glyph-name="uni00A0" horiz-adv-x="205" />
<glyph unicode="&#xa1;" glyph-name="exclamdown" horiz-adv-x="318" d="M178 -113H-2L142 431H257L178 -113ZM330 674L301 522H129L158 674H330Z" />
<glyph unicode="&#xa2;" glyph-name="cent" horiz-adv-x="591" d="M306 448Q275 439 253 414T217 354T196 282T189 210Q189 122 237 96L306 448ZM550 199Q544 146 521 106T462 40T381 1T287 -14L267 -116H196L217 -9Q177 -2 144 15T86 60T49 126T36 214Q36 280
54 339T109 444T200 518T325 549L342 635H413L396 545Q479 532 525 481T570 344H419Q421 382 411 408T376 445L306 86Q348 92 372 123T404 199H550Z" />
<glyph unicode="&#xa3;" glyph-name="sterling" horiz-adv-x="635" d="M535 0H14L31 92L64 113Q92 131 114 148T152 187T174 236T178 302H64L83 399H164L158 441Q147 511 158 568T201 666T289 729T421 752Q483 752 528 735T602 687T640 616T643 529H494Q502 583
481 613T412 644Q351 644 323 598T306 468L314 399H512L494 302L324 301Q323 248 301 210T224 135L214 128V126H559L535 0Z" />
<glyph unicode="&#xa4;" glyph-name="currency" horiz-adv-x="631" d="M226 348Q226 306 250 280T314 253Q355 253 379 279T403 348Q403 390 379 416T314 443Q274 443 250 417T226 348ZM129 348Q129 371 134 391T147 431L50 527L136 613L232 515Q270 534 314 534Q337
534 358 529T398 514L496 614L582 528L481 430Q500 392 500 348Q500 302 481 266L581 168L495 82L397 181Q361 163 314 163Q269 163 232 180L135 81L50 167L148 263Q129 303 129 348Z" />
<glyph unicode="&#xa5;" glyph-name="yen" horiz-adv-x="640" d="M222 148H28L43 224H236L252 305H57L71 381H256L114 741H277L363 499H365L541 741H712L430 381H614L600 305H405L389 224H585L571 148H375L346 0H193L222 148Z" />
<glyph unicode="&#xa6;" glyph-name="brokenbar" horiz-adv-x="290" d="M218 384H112L191 788H297L218 384ZM12 -130L93 287H199L118 -130H12Z" />
<glyph unicode="&#xa7;" glyph-name="section" horiz-adv-x="626" d="M61 332Q61 387 95 424T189 480V481Q173 501 162 524T151 584Q151 626 167 660T214 718T287 755T383 768Q434 768 474 755T542 719T583 664T592 597H451Q454 629 436 648T379 667Q345 667 323
651T301 603Q301 580 316 566T361 536L481 473Q531 447 557 413T583 325Q583 267 550 229T457 171V170Q475 151 482 128T490 79Q490 29 471 -7T419 -67T342 -102T248 -114Q193 -114 152 -101T84 -64T45 -8T36 62H173Q170 27 191 7T255 -13Q270 -13 285 -10T313
1T333 21T341 51Q341 73 330 86T297 111L172 178Q146 192 126 206T91 239T69 279T61 332ZM269 426Q243 423 222 407T200 361Q200 340 211 326T249 297L349 244Q352 242 356 240T365 235L375 229Q403 232 422 249T442 296Q442 316 430 331T383 365L290 414L269 426Z"
/>
<glyph unicode="&#xa8;" glyph-name="dieresis" horiz-adv-x="362" d="M318 773H451L424 636H291L318 773ZM113 773H247L220 636H86L113 773Z" />
<glyph unicode="&#xa9;" glyph-name="copyright" horiz-adv-x="893" d="M72 380Q72 464 102 536T184 662T309 746T466 777Q551 777 623 747T748 663T831 537T861 380Q861 296 831 224T748 98T623 15T466 -16Q381 -16 309 14T185 98T102 223T72 380ZM466 41Q537
41 597 67T702 138T771 246T796 380Q796 452 771 514T702 622T598 694T466 720Q395 720 335 694T231 622T162 514T137 380Q137 308 162 246T231 139T335 67T466 41ZM545 443Q547 475 534 496T486 517Q456 517 435 500T401 457T381 400T375 339Q375 301 392 277T447
252Q483 252 505 275T534 332H641Q636 290 619 260T574 209T511 178T436 168Q400 168 368 178T313 209T275 262T261 339Q261 390 276 437T320 521T392 578T491 600Q573 600 616 559T656 443H545Z" />
<glyph unicode="&#xaa;" glyph-name="ordfeminine" horiz-adv-x="499" d="M265 397Q277 397 290 402T315 418T338 448T353 493L356 509Q272 507 244 489Q230 480 224 467T218 439Q218 397 265 397ZM132 614Q133 639 146 664T184 708T243 740T324 752Q427 752 469
704T494 570L471 449Q467 426 473 419T495 411L477 319H448Q423 319 406 321T376 329T357 346T344 376H341Q322 348 289 331T215 314Q156 314 122 344T87 428Q87 472 107 504T171 553Q190 561 210 565T254 571T306 574T367 576L370 594Q376 630 364 646T322 663Q270
663 263 614H132Z" />
<glyph unicode="&#xab;" glyph-name="guillemotleft" horiz-adv-x="533" d="M526 464L387 258L445 57H331L265 263L410 464H526ZM311 464L173 258L231 57H116L50 263L195 464H311Z" />
<glyph unicode="&#xac;" glyph-name="logicalnot" horiz-adv-x="616" d="M82 416H578L517 104H392L430 300H59L82 416Z" />
<glyph unicode="&#xae;" glyph-name="registered" horiz-adv-x="496" d="M91 557Q93 603 111 643T160 712T231 759T318 776Q365 776 404 759T470 713T512 643T524 557Q521 511 503 471T454 402T383 356T295 339Q248 339 210 356T144 402T103 471T91 557ZM297 377Q334
377 366 390T423 428T463 485T480 557Q482 596 471 629T437 686T384 724T316 738Q279 738 247 724T190 686T152 629T135 557Q133 518 144 485T176 428T229 391T297 377ZM311 578Q328 578 339 586T353 612Q354 626 345 633T319 640H291L282 578H311ZM264 452H209L241
677H337Q369 677 389 659T407 612Q405 586 390 570T354 547L388 452H329L301 538H277L264 452Z" />
<glyph unicode="&#xaf;" glyph-name="macron" horiz-adv-x="336" d="M91 740H426L407 636H71L91 740Z" />
<glyph unicode="&#xb0;" glyph-name="degree" horiz-adv-x="416" d="M103 594Q104 630 117 661T153 714T207 750T274 763Q311 763 341 750T394 715T429 661T441 594Q440 557 427 526T391 473T337 439T268 426Q232 426 201 438T148 473T114 527T103 594ZM270 503Q308
503 332 528T357 594Q358 634 335 660T273 686Q235 686 211 660T187 594Q185 554 208 529T270 503Z" />
<glyph unicode="&#xb1;" glyph-name="plusminus" horiz-adv-x="626" d="M360 199H235L268 369H83L105 485H290L322 653H447L415 485H601L578 369H393L360 199ZM33 115H529L507 0H12L33 115Z" />
<glyph unicode="&#xb2;" glyph-name="twosuperior" horiz-adv-x="414" d="M124 675Q131 745 178 783T311 822Q342 822 369 815T417 793T448 756T460 705Q460 678 451 657T427 616T392 581T348 547L243 470V468H424L408 385H56L68 445L264 598Q286 616 302 628T330
652T346 675T351 700Q351 720 338 732T301 744Q277 744 258 730T234 675H124Z" />
<glyph unicode="&#xb3;" glyph-name="threesuperior" horiz-adv-x="421" d="M226 569L240 636H288Q319 636 338 654T358 699Q358 721 344 732T306 743Q280 743 263 730T240 688H131Q134 715 146 739T182 781T237 811T314 822Q386 822 427 794T469 715Q469 668
442 642T374 605V603Q407 593 426 572T446 514Q446 480 432 455T392 412T332 385T256 376Q176 376 131 410T92 512H200Q199 485 215 471T261 457Q296 457 314 475T332 520Q332 540 321 554T280 569H226Z" />
<glyph unicode="&#xb4;" glyph-name="acute" horiz-adv-x="362" d="M246 788H402L282 614H164L246 788Z" />
<glyph unicode="&#xb6;" glyph-name="paragraph" horiz-adv-x="575" d="M609 765L461 0H364L512 765H609ZM260 374Q181 376 134 422T87 546Q87 599 106 640T158 708T235 750T330 765H433L285 0H188L260 374Z" />
<glyph unicode="&#xb7;" glyph-name="periodcentered" horiz-adv-x="323" d="M106 426H272L241 267H75L106 426Z" />
<glyph unicode="&#xb8;" glyph-name="cedilla" horiz-adv-x="507" d="M213 24L168 -66H170Q181 -58 192 -55T220 -51Q251 -51 270 -70T290 -120Q290 -167 258 -196T163 -225Q144 -225 126 -221T93 -207T70 -183T63 -147H140Q143 -167 169 -167Q187 -167 196 -157T206
-133Q206 -120 199 -112T178 -104Q159 -104 148 -117H86L158 24H213Z" />
<glyph unicode="&#xb9;" glyph-name="onesuperior" horiz-adv-x="294" d="M199 664H105L122 742H137Q156 742 174 746T206 758Q218 766 227 780T240 815H343L252 384H140L199 664Z" />
<glyph unicode="&#xba;" glyph-name="ordmasculine" horiz-adv-x="500" d="M278 310Q235 310 199 321T136 355T95 411T80 488Q80 539 96 586T142 670T219 729T325 751Q369 751 405 739T468 704T509 648T524 573Q524 515 507 467T459 384T382 330T278 310ZM388
578Q388 592 385 606T375 631T355 649T323 656Q294 656 275 639T243 595T226 539T220 484Q220 453 234 429T286 404Q317 404 336 422T367 468T383 525T388 578Z" />
<glyph unicode="&#xbb;" glyph-name="guillemotright" horiz-adv-x="533" d="M10 57L150 263L91 464H206L270 259L127 57H10ZM231 57L370 263L312 464H427L492 259L347 57H231Z" />
<glyph unicode="&#xbc;" glyph-name="onequarter" horiz-adv-x="870" d="M189 614H95L112 692H127Q146 692 164 696T196 708Q208 716 217 730T230 765H333L242 334H130L189 614ZM669 170L708 353H706Q701 342 693 331Q679 309 653 280L551 170H669ZM752 92L733
1H631L650 92H429L444 167L692 432H824L770 176H826L808 92H752ZM727 781H835L141 -40H33L727 781Z" />
<glyph unicode="&#xbd;" glyph-name="onehalf" horiz-adv-x="913" d="M189 614H95L112 692H127Q146 692 164 696T196 708Q208 716 217 730T230 765H333L242 334H130L189 614ZM540 291Q547 361 594 399T727 438Q758 438 785 431T833 409T864 372T876 321Q876 294
867 273T843 232T808 197T764 163L659 86V84H840L824 1H472L484 61L680 214Q702 232 718 244T746 268T762 291T767 316Q767 336 754 348T717 360Q693 360 674 346T650 291H540ZM716 781H824L130 -40H22L716 781Z" />
<glyph unicode="&#xbe;" glyph-name="threequarters" horiz-adv-x="968" d="M216 518L230 585H278Q309 585 328 603T348 648Q348 670 334 681T296 692Q270 692 253 679T230 637H121Q124 664 136 688T172 730T227 760T304 771Q376 771 417 743T459 664Q459 617
432 591T364 554V552Q397 542 416 521T436 463Q436 429 422 404T382 361T322 334T246 325Q166 325 121 359T82 461H190Q189 434 205 420T251 406Q286 406 304 424T322 469Q322 489 311 503T270 518H216ZM767 170L806 353H804Q799 342 791 331Q777 309 751 280L649
170H767ZM850 92L831 1H729L748 92H527L542 167L790 432H922L868 176H924L906 92H850ZM836 781H944L250 -40H142L836 781Z" />
<glyph unicode="&#xbf;" glyph-name="questiondown" horiz-adv-x="585" d="M388 435L377 378Q372 354 367 336T352 304T327 276T287 245L222 201Q185 176 166 149T147 83Q147 45 172 22T243 -1Q298 -1 332 33T369 142H518Q516 85 498 37T444 -47T356 -101T233
-121Q181 -121 137 -108T62 -70T12 -10T-6 70Q-6 144 28 193T122 282L194 330Q221 348 229 363T244 405L250 435H388ZM421 522H249L279 674H450L421 522Z" />
<glyph unicode="&#xc0;" glyph-name="Agrave" horiz-adv-x="746" d="M428 627Q427 624 415 593T377 509L271 290H470L441 505Q437 533 435 555T432 594Q430 612 430 627H428ZM487 172H213L128 0H-31L366 765H546L675 0H513L487 172ZM529 827H417L341 960H489L529 827Z" />
<glyph unicode="&#xc1;" glyph-name="Aacute" horiz-adv-x="746" d="M428 627Q427 624 415 593T377 509L271 290H470L441 505Q437 533 435 555T432 594Q430 612 430 627H428ZM487 172H213L128 0H-31L366 765H546L675 0H513L487 172ZM484 960H638L518 827H402L484 960Z" />
<glyph unicode="&#xc2;" glyph-name="Acircumflex" horiz-adv-x="746" d="M428 627Q427 624 415 593T377 509L271 290H470L441 505Q437 533 435 555T432 594Q430 612 430 627H428ZM487 172H213L128 0H-31L366 765H546L675 0H513L487 172ZM632 827H525L474 883H473L404
827H294L420 960H553L632 827Z" />
<glyph unicode="&#xc3;" glyph-name="Atilde" horiz-adv-x="746" d="M428 627Q427 624 415 593T377 509L271 290H470L441 505Q437 533 435 555T432 594Q430 612 430 627H428ZM487 172H213L128 0H-31L366 765H546L675 0H513L487 172ZM280 820Q283 848 294 875T323
925T368 960T427 974Q450 974 466 966T497 949T524 932T555 924Q573 924 586 934T607 975H684Q681 943 670 915T642 866T600 833T547 821Q520 821 501 829T467 846T438 863T410 871Q397 871 383 861T356 820H280Z" />
<glyph unicode="&#xc4;" glyph-name="Adieresis" horiz-adv-x="746" d="M428 627Q427 624 415 593T377 509L271 290H470L441 505Q437 533 435 555T432 594Q430 612 430 627H428ZM487 172H213L128 0H-31L366 765H546L675 0H513L487 172ZM534 965H667L640 828H507L534
965ZM322 965H456L429 828H296L322 965Z" />
<glyph unicode="&#xc5;" glyph-name="Aring" horiz-adv-x="746" d="M428 627Q427 624 415 593T377 509L271 290H470L441 505Q437 533 435 555T432 594Q430 612 430 627H428ZM487 172H213L128 0H-31L366 765H546L675 0H513L487 172ZM475 796Q449 796 426 803T386
824T359 859T349 907Q349 937 359 962T387 1004T430 1032T485 1042Q548 1042 580 1011T612 931Q612 869 574 833T475 796ZM486 979Q458 979 443 960T427 910Q427 887 439 873T476 858Q501 858 517 877T533 927Q533 950 522 964T486 979Z" />
<glyph unicode="&#xc6;" glyph-name="AE" horiz-adv-x="1055" d="M568 640H514Q497 608 479 577T446 522L311 303H503L568 640ZM479 183H237L124 0H-52L436 765H1083L1059 640H729L691 443H1004L980 321H667L629 124H969L946 0H444L479 183Z" />
<glyph unicode="&#xc7;" glyph-name="Ccedilla" horiz-adv-x="760" d="M315 -225Q296 -225 278 -221T245 -207T222 -183T215 -147H292Q295 -167 321 -167Q339 -167 348 -157T358 -133Q358 -120 351 -112T330 -104Q311 -104 300 -117H238L293 -8Q186 12 127 87T67
299Q67 388 92 474T168 627T295 735T473 776Q534 776 586 761T676 713T735 629T757 506H589Q591 576 562 616T466 655Q403 654 360 618T290 527T251 406T239 278Q239 245 246 214T270 158T315 120T384 105Q450 105 493 144T553 260H717Q706 195 677 144T605 57T504
3T379 -16Q371 -16 363 -16T346 -15L320 -66H322Q333 -58 344 -55T372 -51Q403 -51 422 -70T442 -120Q442 -167 410 -196T315 -225Z" />
<glyph unicode="&#xc8;" glyph-name="Egrave" horiz-adv-x="636" d="M494 827H382L306 960H454L494 827ZM175 765H664L640 640H312L274 443H585L561 321H250L212 124H552L528 0H27L175 765Z" />
<glyph unicode="&#xc9;" glyph-name="Eacute" horiz-adv-x="636" d="M449 960H603L483 827H367L449 960ZM175 765H664L640 640H312L274 443H585L561 321H250L212 124H552L528 0H27L175 765Z" />
<glyph unicode="&#xca;" glyph-name="Ecircumflex" horiz-adv-x="636" d="M602 827H495L444 883H443L374 827H264L390 960H523L602 827ZM175 765H664L640 640H312L274 443H585L561 321H250L212 124H552L528 0H27L175 765Z" />
<glyph unicode="&#xcb;" glyph-name="Edieresis" horiz-adv-x="636" d="M175 765H664L640 640H312L274 443H585L561 321H250L212 124H552L528 0H27L175 765ZM499 965H632L605 828H472L499 965ZM287 965H421L394 828H261L287 965Z" />
<glyph unicode="&#xcc;" glyph-name="Igrave" horiz-adv-x="312" d="M175 765H337L189 0H27L175 765ZM329 827H217L141 960H289L329 827Z" />
<glyph unicode="&#xcd;" glyph-name="Iacute" horiz-adv-x="312" d="M175 765H337L189 0H27L175 765ZM283 960H437L317 827H201L283 960Z" />
<glyph unicode="&#xce;" glyph-name="Icircumflex" horiz-adv-x="312" d="M175 765H337L189 0H27L175 765ZM437 827H330L279 883H278L209 827H99L225 960H358L437 827Z" />
<glyph unicode="&#xcf;" glyph-name="Idieresis" horiz-adv-x="312" d="M175 765H337L189 0H27L175 765ZM334 965H467L440 828H307L334 965ZM122 965H256L229 828H96L122 965Z" />
<glyph unicode="&#xd0;" glyph-name="Eth" horiz-adv-x="764" d="M33 0L97 329H22L44 440H118L181 765H422Q495 765 555 746T658 688T724 591T748 457Q748 362 721 279T640 134T504 36T313 0H33ZM322 123Q393 123 442 153T521 231T564 342T578 469Q578 517 566
550T531 604T476 634T406 643H318L279 440H441L419 329H257L217 123H322Z" />
<glyph unicode="&#xd1;" glyph-name="Ntilde" horiz-adv-x="765" d="M306 820Q309 848 320 875T349 925T394 960T453 974Q476 974 492 966T523 949T550 932T581 924Q599 924 612 934T633 975H710Q707 943 696 915T668 866T626 833T573 821Q546 821 527 829T493
846T464 863T436 871Q423 871 409 861T382 820H306ZM175 765H346L504 340Q513 315 519 295T529 259Q533 241 536 227H539L643 765H788L640 0H482L316 431Q306 457 300 478T289 515Q284 533 281 548H278L172 0H27L175 765Z" />
<glyph unicode="&#xd2;" glyph-name="Ograve" horiz-adv-x="804" d="M570 827H458L382 960H530L570 827ZM67 294Q67 392 95 479T176 633T304 737T473 776Q538 776 595 757T694 698T759 599T783 461Q783 369 757 283T680 131T554 24T380 -16Q315 -16 258 2T159
57T92 153T67 294ZM613 481Q613 516 606 548T581 604T536 643T468 658Q425 658 392 641T332 593T288 524T259 443T242 358T237 277Q237 244 244 213T269 158T315 119T386 104Q426 104 458 121T516 168T560 235T590 316T607 400T613 481Z" />
<glyph unicode="&#xd3;" glyph-name="Oacute" horiz-adv-x="804" d="M524 960H678L558 827H442L524 960ZM67 294Q67 392 95 479T176 633T304 737T473 776Q538 776 595 757T694 698T759 599T783 461Q783 369 757 283T680 131T554 24T380 -16Q315 -16 258 2T159
57T92 153T67 294ZM613 481Q613 516 606 548T581 604T536 643T468 658Q425 658 392 641T332 593T288 524T259 443T242 358T237 277Q237 244 244 213T269 158T315 119T386 104Q426 104 458 121T516 168T560 235T590 316T607 400T613 481Z" />
<glyph unicode="&#xd4;" glyph-name="Ocircumflex" horiz-adv-x="804" d="M677 827H570L519 883H518L449 827H339L465 960H598L677 827ZM67 294Q67 392 95 479T176 633T304 737T473 776Q538 776 595 757T694 698T759 599T783 461Q783 369 757 283T680 131T554
24T380 -16Q315 -16 258 2T159 57T92 153T67 294ZM613 481Q613 516 606 548T581 604T536 643T468 658Q425 658 392 641T332 593T288 524T259 443T242 358T237 277Q237 244 244 213T269 158T315 119T386 104Q426 104 458 121T516 168T560 235T590 316T607 400T613
481Z" />
<glyph unicode="&#xd5;" glyph-name="Otilde" horiz-adv-x="804" d="M319 820Q322 848 333 875T362 925T407 960T466 974Q489 974 505 966T536 949T563 932T594 924Q612 924 625 934T646 975H723Q720 943 709 915T681 866T639 833T586 821Q559 821 540 829T506
846T477 863T449 871Q436 871 422 861T395 820H319ZM67 294Q67 392 95 479T176 633T304 737T473 776Q538 776 595 757T694 698T759 599T783 461Q783 369 757 283T680 131T554 24T380 -16Q315 -16 258 2T159 57T92 153T67 294ZM613 481Q613 516 606 548T581 604T536
643T468 658Q425 658 392 641T332 593T288 524T259 443T242 358T237 277Q237 244 244 213T269 158T315 119T386 104Q426 104 458 121T516 168T560 235T590 316T607 400T613 481Z" />
<glyph unicode="&#xd6;" glyph-name="Odieresis" horiz-adv-x="804" d="M575 965H708L681 828H548L575 965ZM363 965H497L470 828H337L363 965ZM67 294Q67 392 95 479T176 633T304 737T473 776Q538 776 595 757T694 698T759 599T783 461Q783 369 757 283T680 131T554
24T380 -16Q315 -16 258 2T159 57T92 153T67 294ZM613 481Q613 516 606 548T581 604T536 643T468 658Q425 658 392 641T332 593T288 524T259 443T242 358T237 277Q237 244 244 213T269 158T315 119T386 104Q426 104 458 121T516 168T560 235T590 316T607 400T613
481Z" />
<glyph unicode="&#xd7;" glyph-name="multiply" horiz-adv-x="637" d="M63 194L250 353L116 521L218 607L349 439L533 601L611 503L424 344L557 176L454 89L325 259L139 97L63 194Z" />
<glyph unicode="&#xd8;" glyph-name="Oslash" horiz-adv-x="804" d="M468 659Q424 659 390 641T329 591T284 520T253 438T236 354T231 277Q231 268 231 260T233 243L588 605Q571 630 542 644T468 659ZM386 103Q427 103 460 121T520 170T565 239T596 321T613 404T619
481Q619 503 616 523L260 160Q277 134 307 119T386 103ZM783 461Q783 369 757 283T680 131T554 24T380 -16Q314 -16 258 1T159 57L78 -25H-29L110 117Q90 152 79 195T67 294Q67 392 95 479T176 633T304 737T473 776Q536 776 589 758T685 705L770 791H879L736 645Q759
609 771 564T783 461Z" />
<glyph unicode="&#xd9;" glyph-name="Ugrave" horiz-adv-x="744" d="M542 827H430L354 960H502L542 827ZM167 765H328L238 304Q229 258 230 220T247 159Q264 135 292 125T360 114Q436 114 477 158Q499 182 507 213T524 285L617 765H776L678 258Q651 118 570 51T353
-16Q194 -16 120 64T76 295L167 765Z" />
<glyph unicode="&#xda;" glyph-name="Uacute" horiz-adv-x="744" d="M496 960H650L530 827H414L496 960ZM167 765H328L238 304Q229 258 230 220T247 159Q264 135 292 125T360 114Q436 114 477 158Q499 182 507 213T524 285L617 765H776L678 258Q651 118 570 51T353
-16Q194 -16 120 64T76 295L167 765Z" />
<glyph unicode="&#xdb;" glyph-name="Ucircumflex" horiz-adv-x="744" d="M649 827H542L491 883H490L421 827H311L437 960H570L649 827ZM167 765H328L238 304Q229 258 230 220T247 159Q264 135 292 125T360 114Q436 114 477 158Q499 182 507 213T524 285L617 765H776L678
258Q651 118 570 51T353 -16Q194 -16 120 64T76 295L167 765Z" />
<glyph unicode="&#xdc;" glyph-name="Udieresis" horiz-adv-x="744" d="M167 765H328L238 304Q229 258 230 220T247 159Q264 135 292 125T360 114Q436 114 477 158Q499 182 507 213T524 285L617 765H776L678 258Q651 118 570 51T353 -16Q194 -16 120 64T76 295L167
765ZM547 965H680L653 828H520L547 965ZM335 965H469L442 828H309L335 965Z" />
<glyph unicode="&#xdd;" glyph-name="Yacute" horiz-adv-x="683" d="M276 330L110 765H280L383 464H385L602 765H771L434 313L373 0H212L276 330ZM471 960H625L505 827H389L471 960Z" />
<glyph unicode="&#xde;" glyph-name="Thorn" horiz-adv-x="649" d="M219 159L188 0H27L175 765H336L308 622H393Q449 622 496 610T578 571T630 504T648 405Q646 340 623 294T561 217T468 173T354 159H219ZM351 274Q413 276 450 307T490 402Q492 459 458 484T364
510H287L241 274H351Z" />
<glyph unicode="&#xdf;" glyph-name="germandbls" horiz-adv-x="636" d="M124 572Q143 672 210 731T396 791Q441 791 480 780T549 745T595 686T612 604Q611 535 575 485T470 415V412Q525 398 558 355T592 245Q592 184 570 138T508 62T413 16T294 0H238L260 116H293Q354
116 393 150T433 252Q433 301 406 330T331 359H320L342 473H356Q412 473 440 506T469 598Q469 636 448 661T389 687Q349 687 320 660T280 573L170 0H14L124 572Z" />
<glyph unicode="&#xe0;" glyph-name="agrave" horiz-adv-x="576" d="M239 94Q283 94 312 130T354 227L357 242Q325 241 297 240T244 233Q212 226 192 208T172 159Q172 127 190 111T239 94ZM76 377Q85 454 146 501T317 548Q381 548 424 531T493 484T524 413T521
321L490 159Q484 130 494 120T528 109L506 -1H461Q417 -1 388 13T349 68H346Q329 50 313 36T277 13T236 -1T183 -6Q150 -6 120 3T68 31T32 78T18 145Q18 269 158 308Q205 321 259 322T373 325L378 353Q386 398 369 422T310 446Q276 446 254 430T226 377H76ZM406
614H291L218 788H370L406 614Z" />
<glyph unicode="&#xe1;" glyph-name="aacute" horiz-adv-x="576" d="M239 94Q283 94 312 130T354 227L357 242Q325 241 297 240T244 233Q212 226 192 208T172 159Q172 127 190 111T239 94ZM76 377Q85 454 146 501T317 548Q381 548 424 531T493 484T524 413T521
321L490 159Q484 130 494 120T528 109L506 -1H461Q417 -1 388 13T349 68H346Q329 50 313 36T277 13T236 -1T183 -6Q150 -6 120 3T68 31T32 78T18 145Q18 269 158 308Q205 321 259 322T373 325L378 353Q386 398 369 422T310 446Q276 446 254 430T226 377H76ZM359
788H515L395 614H277L359 788Z" />
<glyph unicode="&#xe2;" glyph-name="acircumflex" horiz-adv-x="576" d="M239 94Q283 94 312 130T354 227L357 242Q325 241 297 240T244 233Q212 226 192 208T172 159Q172 127 190 111T239 94ZM76 377Q85 454 146 501T317 548Q381 548 424 531T493 484T524 413T521
321L490 159Q484 130 494 120T528 109L506 -1H461Q417 -1 388 13T349 68H346Q329 50 313 36T277 13T236 -1T183 -6Q150 -6 120 3T68 31T32 78T18 145Q18 269 158 308Q205 321 259 322T373 325L378 353Q386 398 369 422T310 446Q276 446 254 430T226 377H76ZM509
614H406L358 692L285 614H177L314 788H437L509 614Z" />
<glyph unicode="&#xe3;" glyph-name="atilde" horiz-adv-x="576" d="M239 94Q283 94 312 130T354 227L357 242Q325 241 297 240T244 233Q212 226 192 208T172 159Q172 127 190 111T239 94ZM76 377Q85 454 146 501T317 548Q381 548 424 531T493 484T524 413T521
321L490 159Q484 130 494 120T528 109L506 -1H461Q417 -1 388 13T349 68H346Q329 50 313 36T277 13T236 -1T183 -6Q150 -6 120 3T68 31T32 78T18 145Q18 269 158 308Q205 321 259 322T373 325L378 353Q386 398 369 422T310 446Q276 446 254 430T226 377H76ZM159
614Q162 646 172 675T201 728T245 764T304 778Q326 778 342 770T373 753T400 735T428 727Q442 727 456 737T483 779H559Q556 746 546 717T517 664T474 628T415 614Q393 614 376 622T344 639T316 657T287 665Q273 665 259 655T234 614H159Z" />
<glyph unicode="&#xe4;" glyph-name="adieresis" horiz-adv-x="576" d="M239 94Q283 94 312 130T354 227L357 242Q325 241 297 240T244 233Q212 226 192 208T172 159Q172 127 190 111T239 94ZM76 377Q85 454 146 501T317 548Q381 548 424 531T493 484T524 413T521
321L490 159Q484 130 494 120T528 109L506 -1H461Q417 -1 388 13T349 68H346Q329 50 313 36T277 13T236 -1T183 -6Q150 -6 120 3T68 31T32 78T18 145Q18 269 158 308Q205 321 259 322T373 325L378 353Q386 398 369 422T310 446Q276 446 254 430T226 377H76ZM410
773H543L516 636H383L410 773ZM205 773H339L312 636H178L205 773Z" />
<glyph unicode="&#xe5;" glyph-name="aring" horiz-adv-x="576" d="M239 94Q283 94 312 130T354 227L357 242Q325 241 297 240T244 233Q212 226 192 208T172 159Q172 127 190 111T239 94ZM76 377Q85 454 146 501T317 548Q381 548 424 531T493 484T524 413T521
321L490 159Q484 130 494 120T528 109L506 -1H461Q417 -1 388 13T349 68H346Q329 50 313 36T277 13T236 -1T183 -6Q150 -6 120 3T68 31T32 78T18 145Q18 269 158 308Q205 321 259 322T373 325L378 353Q386 398 369 422T310 446Q276 446 254 430T226 377H76ZM358
602Q332 602 309 609T269 630T242 664T232 712Q232 742 242 767T271 810T314 838T368 848Q431 848 463 817T496 737Q496 706 486 681T457 639T414 612T358 602ZM369 785Q342 785 327 766T311 715Q311 692 323 678T359 664Q385 664 401 682T417 732Q417 755 405
770T369 785Z" />
<glyph unicode="&#xe6;" glyph-name="ae" horiz-adv-x="905" d="M725 328Q733 386 716 418T649 450Q603 450 572 414T526 321H724L725 328ZM239 94Q284 94 312 129T354 227L357 242Q325 241 297 240T244 233Q212 226 192 208T172 159Q172 127 190 111T239 94ZM845
156Q828 71 763 31T599 -9Q518 -9 471 17T398 91H396Q379 71 361 54T317 23T260 2T186 -6Q151 -6 120 3T67 30T31 77T18 144Q18 269 158 308Q205 321 259 322T373 325L378 353Q386 398 369 422T309 446Q275 446 253 430T226 377H76Q85 459 148 503T320 548Q383
548 421 526T479 469H480Q511 505 554 527T657 549Q724 549 769 527T840 466T872 376T868 268L861 231H512Q511 225 511 219T511 206Q511 152 532 122T602 92Q642 92 665 111T694 156H845Z" />
<glyph unicode="&#xe7;" glyph-name="ccedilla" horiz-adv-x="591" d="M219 -225Q200 -225 182 -221T149 -207T126 -183T119 -147H196Q199 -167 225 -167Q243 -167 252 -157T262 -133Q262 -120 255 -112T234 -104Q215 -104 204 -117H142L199 -5Q126 13 81 66T36
214Q36 281 55 342T113 449T209 522T341 549Q395 549 438 535T511 495T556 430T570 344H414Q416 386 399 414T336 443Q299 443 273 421T229 365T204 289T196 208Q196 157 218 126T288 94Q336 94 363 124T399 199H550Q544 145 520 105T460 39T377 -1T281 -14Q273
-14 266 -14T251 -13L224 -66H226Q237 -58 248 -55T276 -51Q307 -51 326 -70T346 -120Q346 -167 314 -196T219 -225Z" />
<glyph unicode="&#xe8;" glyph-name="egrave" horiz-adv-x="589" d="M406 328Q414 386 396 418T330 450Q282 450 251 414T206 321H405L406 328ZM529 156Q520 113 498 81T442 28T366 -3T276 -14Q220 -14 176 1T100 46T52 117T35 212Q35 278 55 339T113 446T208
521T337 549Q405 549 451 526T523 464T555 374T552 268L545 231H193Q192 225 192 219T192 206Q192 156 213 125T284 93Q324 93 346 111T375 156H529ZM427 614H312L239 788H391L427 614Z" />
<glyph unicode="&#xe9;" glyph-name="eacute" horiz-adv-x="589" d="M381 788H537L417 614H299L381 788ZM406 328Q414 386 396 418T330 450Q282 450 251 414T206 321H405L406 328ZM529 156Q520 113 498 81T442 28T366 -3T276 -14Q220 -14 176 1T100 46T52 117T35
212Q35 278 55 339T113 446T208 521T337 549Q405 549 451 526T523 464T555 374T552 268L545 231H193Q192 225 192 219T192 206Q192 156 213 125T284 93Q324 93 346 111T375 156H529Z" />
<glyph unicode="&#xea;" glyph-name="ecircumflex" horiz-adv-x="589" d="M531 614H428L380 692L307 614H199L336 788H459L531 614ZM406 328Q414 386 396 418T330 450Q282 450 251 414T206 321H405L406 328ZM529 156Q520 113 498 81T442 28T366 -3T276 -14Q220
-14 176 1T100 46T52 117T35 212Q35 278 55 339T113 446T208 521T337 549Q405 549 451 526T523 464T555 374T552 268L545 231H193Q192 225 192 219T192 206Q192 156 213 125T284 93Q324 93 346 111T375 156H529Z" />
<glyph unicode="&#xeb;" glyph-name="edieresis" horiz-adv-x="589" d="M432 773H565L538 636H405L432 773ZM227 773H361L334 636H200L227 773ZM406 328Q414 386 396 418T330 450Q282 450 251 414T206 321H405L406 328ZM529 156Q520 113 498 81T442 28T366 -3T276
-14Q220 -14 176 1T100 46T52 117T35 212Q35 278 55 339T113 446T208 521T337 549Q405 549 451 526T523 464T555 374T552 268L545 231H193Q192 225 192 219T192 206Q192 156 213 125T284 93Q324 93 346 111T375 156H529Z" />
<glyph unicode="&#xec;" glyph-name="igrave" horiz-adv-x="289" d="M122 536H278L174 0H18L122 536ZM534 614H419L346 788H498L534 614Z" />
<glyph unicode="&#xed;" glyph-name="iacute" horiz-adv-x="289" d="M487 788H643L523 614H405L487 788ZM122 536H278L174 0H18L122 536Z" />
<glyph unicode="&#xee;" glyph-name="icircumflex" horiz-adv-x="289" d="M369 614H269L230 692L167 614H59L186 788H309L369 614ZM122 536H278L174 0H18L122 536Z" />
<glyph unicode="&#xef;" glyph-name="idieresis" horiz-adv-x="289" d="M275 773H389L362 636H249L275 773ZM103 773H216L189 636H76L103 773ZM122 536H278L174 0H18L122 536Z" />
<glyph unicode="&#xf0;" glyph-name="eth" horiz-adv-x="608" d="M276 -14Q223 -14 179 0T103 42T54 114T36 214Q36 274 54 333T106 439T192 515T310 545Q352 545 378 533T421 499H423Q412 537 391 568T342 628L190 573L172 634L286 676Q261 694 235 710T179 741L303
796Q371 766 422 726L532 766L552 705L475 677Q526 621 554 550T583 392Q583 287 561 210T497 84T400 10T276 -14ZM419 335Q419 357 415 377T400 412T374 437T334 446Q295 446 268 422T225 360T201 281T194 204Q194 155 214 124T282 93Q323 93 349 118T391 181T413
260T419 335Z" />
<glyph unicode="&#xf1;" glyph-name="ntilde" horiz-adv-x="632" d="M421 304Q429 339 429 363Q429 396 414 414T361 433Q308 433 275 393T227 280L174 0H18L122 536H272L253 442H255Q284 491 331 519T439 547Q525 547 563 492T581 327L518 0H363L421 304ZM201
614Q204 646 214 675T243 728T287 764T346 778Q368 778 384 770T415 753T442 735T470 727Q484 727 498 737T525 779H601Q598 746 588 717T559 664T516 628T457 614Q435 614 418 622T386 639T358 657T329 665Q315 665 301 655T276 614H201Z" />
<glyph unicode="&#xf2;" glyph-name="ograve" horiz-adv-x="606" d="M276 -14Q223 -14 179 0T103 42T54 113T36 212Q36 277 55 337T113 445T207 520T336 549Q390 549 434 534T511 489T560 419T578 324Q578 253 557 192T497 84T402 12T276 -14ZM419 335Q419 354
415 373T402 408T375 433T333 443Q294 443 268 419T225 358T201 281T194 204Q194 182 198 162T212 127T239 102T282 93Q323 93 349 119T391 182T413 261T419 335ZM427 614H312L239 788H391L427 614Z" />
<glyph unicode="&#xf3;" glyph-name="oacute" horiz-adv-x="606" d="M380 788H536L416 614H298L380 788ZM276 -14Q223 -14 179 0T103 42T54 113T36 212Q36 277 55 337T113 445T207 520T336 549Q390 549 434 534T511 489T560 419T578 324Q578 253 557 192T497 84T402
12T276 -14ZM419 335Q419 354 415 373T402 408T375 433T333 443Q294 443 268 419T225 358T201 281T194 204Q194 182 198 162T212 127T239 102T282 93Q323 93 349 119T391 182T413 261T419 335Z" />
<glyph unicode="&#xf4;" glyph-name="ocircumflex" horiz-adv-x="606" d="M531 614H428L380 692L307 614H199L336 788H459L531 614ZM276 -14Q223 -14 179 0T103 42T54 113T36 212Q36 277 55 337T113 445T207 520T336 549Q390 549 434 534T511 489T560 419T578
324Q578 253 557 192T497 84T402 12T276 -14ZM419 335Q419 354 415 373T402 408T375 433T333 443Q294 443 268 419T225 358T201 281T194 204Q194 182 198 162T212 127T239 102T282 93Q323 93 349 119T391 182T413 261T419 335Z" />
<glyph unicode="&#xf5;" glyph-name="otilde" horiz-adv-x="606" d="M276 -14Q223 -14 179 0T103 42T54 113T36 212Q36 277 55 337T113 445T207 520T336 549Q390 549 434 534T511 489T560 419T578 324Q578 253 557 192T497 84T402 12T276 -14ZM419 335Q419 354
415 373T402 408T375 433T333 443Q294 443 268 419T225 358T201 281T194 204Q194 182 198 162T212 127T239 102T282 93Q323 93 349 119T391 182T413 261T419 335ZM180 614Q183 646 193 675T222 728T266 764T325 778Q347 778 363 770T394 753T421 735T449 727Q463
727 477 737T504 779H580Q577 746 567 717T538 664T495 628T436 614Q414 614 397 622T365 639T337 657T308 665Q294 665 280 655T255 614H180Z" />
<glyph unicode="&#xf6;" glyph-name="odieresis" horiz-adv-x="606" d="M431 773H564L537 636H404L431 773ZM226 773H360L333 636H199L226 773ZM276 -14Q223 -14 179 0T103 42T54 113T36 212Q36 277 55 337T113 445T207 520T336 549Q390 549 434 534T511 489T560
419T578 324Q578 253 557 192T497 84T402 12T276 -14ZM419 335Q419 354 415 373T402 408T375 433T333 443Q294 443 268 419T225 358T201 281T194 204Q194 182 198 162T212 127T239 102T282 93Q323 93 349 119T391 182T413 261T419 335Z" />
<glyph unicode="&#xf7;" glyph-name="divide" horiz-adv-x="618" d="M307 635H457L429 492H279L307 635ZM104 416H575L553 300H82L104 416ZM199 78L227 222H376L348 78H199Z" />
<glyph unicode="&#xf8;" glyph-name="oslash" horiz-adv-x="606" d="M578 324Q578 253 557 192T497 84T402 12T276 -14Q230 -14 191 -4T120 29L54 -38H-39L74 76Q56 102 46 136T36 212Q36 277 55 337T113 445T207 520T336 549Q433 549 495 502L564 572H657L541
455Q578 401 578 324ZM333 447Q293 447 266 422T221 361T197 282T189 204V193L406 412Q395 428 378 437T333 447ZM282 89Q324 89 351 115T395 180T417 261T424 336L210 120Q221 106 238 98T282 89Z" />
<glyph unicode="&#xf9;" glyph-name="ugrave" horiz-adv-x="623" d="M212 230Q206 200 206 176Q205 138 222 121T273 104Q321 104 354 143T401 256L456 536H611L507 0H358L376 92H374Q345 46 301 18T200 -10Q109 -10 70 45T52 207L116 536H272L212 230ZM442 614H327L254
788H406L442 614Z" />
<glyph unicode="&#xfa;" glyph-name="uacute" horiz-adv-x="623" d="M395 788H551L431 614H313L395 788ZM212 230Q206 200 206 176Q205 138 222 121T273 104Q321 104 354 143T401 256L456 536H611L507 0H358L376 92H374Q345 46 301 18T200 -10Q109 -10 70 45T52
207L116 536H272L212 230Z" />
<glyph unicode="&#xfb;" glyph-name="ucircumflex" horiz-adv-x="623" d="M545 614H442L394 692L321 614H213L350 788H473L545 614ZM212 230Q206 200 206 176Q205 138 222 121T273 104Q321 104 354 143T401 256L456 536H611L507 0H358L376 92H374Q345 46 301 18T200
-10Q109 -10 70 45T52 207L116 536H272L212 230Z" />
<glyph unicode="&#xfc;" glyph-name="udieresis" horiz-adv-x="623" d="M446 773H579L552 636H419L446 773ZM241 773H375L348 636H214L241 773ZM212 230Q206 200 206 176Q205 138 222 121T273 104Q321 104 354 143T401 256L456 536H611L507 0H358L376 92H374Q345
46 301 18T200 -10Q109 -10 70 45T52 207L116 536H272L212 230Z" />
<glyph unicode="&#xfd;" glyph-name="yacute" horiz-adv-x="560" d="M70 536H227L260 255Q262 232 263 213T265 177V143H267Q272 158 279 175Q285 189 292 206T309 243L445 536H600L302 -32Q279 -76 256 -107T204 -159T139 -189T53 -199Q15 -199 -6 -195T-30 -189L-7
-75Q-2 -77 12 -79T45 -81Q87 -81 112 -67T154 -16L161 -1L70 536ZM372 788H528L408 614H290L372 788Z" />
<glyph unicode="&#xfe;" glyph-name="thorn" horiz-adv-x="633" d="M308 93Q344 93 370 115T413 171T438 247T446 329Q446 380 427 409T362 438Q314 438 278 403T231 309L219 244Q213 213 214 186T226 138T257 105T308 93ZM171 788H327L261 451H263Q289 494 330
520T430 547Q516 547 560 490T604 335Q604 277 589 216T542 103T460 20T337 -13Q286 -13 246 10T190 74H188L137 -188H-19L171 788Z" />
<glyph unicode="&#xff;" glyph-name="ydieresis" horiz-adv-x="560" d="M70 536H227L260 255Q262 232 263 213T265 177V143H267Q272 158 279 175Q285 189 292 206T309 243L445 536H600L302 -32Q279 -76 256 -107T204 -159T139 -189T53 -199Q15 -199 -6 -195T-30
-189L-7 -75Q-2 -77 12 -79T45 -81Q87 -81 112 -67T154 -16L161 -1L70 536ZM423 773H556L529 636H396L423 773ZM218 773H352L325 636H191L218 773Z" />
<glyph unicode="&#x100;" glyph-name="Amacron" horiz-adv-x="746" d="M428 627Q427 624 415 593T377 509L271 290H470L441 505Q437 533 435 555T432 594Q430 612 430 627H428ZM487 172H213L128 0H-31L366 765H546L675 0H513L487 172ZM323 942H659L638 838H303L323 942Z" />
<glyph unicode="&#x101;" glyph-name="amacron" horiz-adv-x="576" d="M239 94Q283 94 312 130T354 227L357 242Q325 241 297 240T244 233Q212 226 192 208T172 159Q172 127 190 111T239 94ZM76 377Q85 454 146 501T317 548Q381 548 424 531T493 484T524 413T521
321L490 159Q484 130 494 120T528 109L506 -1H461Q417 -1 388 13T349 68H346Q329 50 313 36T277 13T236 -1T183 -6Q150 -6 120 3T68 31T32 78T18 145Q18 269 158 308Q205 321 259 322T373 325L378 353Q386 398 369 422T310 446Q276 446 254 430T226 377H76ZM200
740H535L516 636H180L200 740Z" />
<glyph unicode="&#x102;" glyph-name="Abreve" horiz-adv-x="746" d="M428 627Q427 624 415 593T377 509L271 290H470L441 505Q437 533 435 555T432 594Q430 612 430 627H428ZM487 172H213L128 0H-31L366 765H546L675 0H513L487 172ZM423 968Q421 939 436 922T478
904Q506 904 526 921T556 968H656Q648 925 630 895T587 847T531 820T466 811Q434 811 407 821T360 850T332 899T329 968H423Z" />
<glyph unicode="&#x103;" glyph-name="abreve" horiz-adv-x="576" d="M239 94Q283 94 312 130T354 227L357 242Q325 241 297 240T244 233Q212 226 192 208T172 159Q172 127 190 111T239 94ZM76 377Q85 454 146 501T317 548Q381 548 424 531T493 484T524 413T521
321L490 159Q484 130 494 120T528 109L506 -1H461Q417 -1 388 13T349 68H346Q329 50 313 36T277 13T236 -1T183 -6Q150 -6 120 3T68 31T32 78T18 145Q18 269 158 308Q205 321 259 322T373 325L378 353Q386 398 369 422T310 446Q276 446 254 430T226 377H76ZM352
612Q316 612 287 623T238 656T211 711T213 788H311Q304 752 318 734T360 715Q389 715 409 733T437 788H540Q534 740 515 707T470 652T414 622T352 612Z" />
<glyph unicode="&#x104;" glyph-name="Aogonek" horiz-adv-x="746" d="M610 -188Q542 -188 512 -170T481 -113Q481 -77 503 -50T571 0H513L487 172H213L128 0H-31L366 765H546L673 5Q639 -15 624 -33T608 -70Q608 -83 619 -91T653 -99L636 -188H610ZM428 627Q427
624 415 593T377 509L271 290H470L441 505Q437 533 435 555T432 594Q430 612 430 627H428Z" />
<glyph unicode="&#x105;" glyph-name="aogonek" horiz-adv-x="576" d="M422 1Q392 9 375 23T349 68H346Q329 50 313 36T277 13T236 -1T183 -6Q150 -6 120 3T68 31T32 78T18 145Q18 269 158 308Q205 321 259 322T373 325L378 353Q386 398 369 422T310 446Q276 446
254 430T226 377H76Q85 455 147 501T318 548Q382 548 425 532T492 485T523 411T520 316L490 159Q484 129 493 119T528 109L506 3Q469 -19 455 -36T441 -72Q441 -99 486 -99L469 -188H440Q371 -188 343 -170T314 -110Q314 -72 345 -45T422 -2V1ZM239 94Q284 94 313
130T354 226L357 242Q325 241 297 240T244 233Q212 226 192 208T172 159Q172 127 190 111T239 94Z" />
<glyph unicode="&#x106;" glyph-name="Cacute" horiz-adv-x="760" d="M589 506Q591 576 562 616T466 655Q403 654 360 618T290 527T251 406T239 278Q239 245 246 214T270 158T315 120T384 105Q450 105 493 144T553 260H717Q706 195 677 144T605 57T504 3T379 -16Q307
-16 249 3T151 61T89 159T67 299Q67 388 92 474T168 627T295 735T473 776Q534 776 586 761T676 713T735 629T757 506H589ZM514 960H668L548 827H432L514 960Z" />
<glyph unicode="&#x107;" glyph-name="cacute" horiz-adv-x="591" d="M384 788H540L420 614H302L384 788ZM414 344Q416 386 399 414T336 443Q299 443 273 421T229 365T204 289T196 208Q196 157 218 126T288 94Q336 94 363 124T399 199H550Q544 145 520 105T460
39T377 -1T281 -14Q228 -14 184 -1T106 41T55 112T36 214Q36 281 55 342T113 449T209 522T341 549Q395 549 438 535T511 495T556 430T570 344H414Z" />
<glyph unicode="&#x108;" glyph-name="Ccircumflex" horiz-adv-x="760" d="M660 827H553L502 883H501L432 827H322L448 960H581L660 827ZM589 506Q591 576 562 616T466 655Q403 654 360 618T290 527T251 406T239 278Q239 245 246 214T270 158T315 120T384 105Q450
105 493 144T553 260H717Q706 195 677 144T605 57T504 3T379 -16Q307 -16 249 3T151 61T89 159T67 299Q67 388 92 474T168 627T295 735T473 776Q534 776 586 761T676 713T735 629T757 506H589Z" />
<glyph unicode="&#x109;" glyph-name="ccircumflex" horiz-adv-x="591" d="M534 614H431L383 692L310 614H202L339 788H462L534 614ZM414 344Q416 386 399 414T336 443Q299 443 273 421T229 365T204 289T196 208Q196 157 218 126T288 94Q336 94 363 124T399 199H550Q544
145 520 105T460 39T377 -1T281 -14Q228 -14 184 -1T106 41T55 112T36 214Q36 281 55 342T113 449T209 522T341 549Q395 549 438 535T511 495T556 430T570 344H414Z" />
<glyph unicode="&#x10a;" glyph-name="Cdotaccent" horiz-adv-x="760" d="M589 506Q591 576 562 616T466 655Q403 654 360 618T290 527T251 406T239 278Q239 245 246 214T270 158T315 120T384 105Q450 105 493 144T553 260H717Q706 195 677 144T605 57T504 3T379
-16Q307 -16 249 3T151 61T89 159T67 299Q67 388 92 474T168 627T295 735T473 776Q534 776 586 761T676 713T735 629T757 506H589ZM463 970H598L571 833H436L463 970Z" />
<glyph unicode="&#x10b;" glyph-name="cdotaccent" horiz-adv-x="591" d="M414 344Q416 386 399 414T336 443Q299 443 273 421T229 365T204 289T196 208Q196 157 218 126T288 94Q336 94 363 124T399 199H550Q544 145 520 105T460 39T377 -1T281 -14Q228 -14 184
-1T106 41T55 112T36 214Q36 281 55 342T113 449T209 522T341 549Q395 549 438 535T511 495T556 430T570 344H414ZM332 773H467L440 636H305L332 773Z" />
<glyph unicode="&#x10c;" glyph-name="Ccaron" horiz-adv-x="760" d="M335 960H443L495 904H496L566 960H679L549 827H416L335 960ZM589 506Q591 576 562 616T466 655Q403 654 360 618T290 527T251 406T239 278Q239 245 246 214T270 158T315 120T384 105Q450 105
493 144T553 260H717Q706 195 677 144T605 57T504 3T379 -16Q307 -16 249 3T151 61T89 159T67 299Q67 388 92 474T168 627T295 735T473 776Q534 776 586 761T676 713T735 629T757 506H589Z" />
<glyph unicode="&#x10d;" glyph-name="ccaron" horiz-adv-x="591" d="M234 788H337L383 711L459 788H566L429 614H306L234 788ZM414 344Q416 386 399 414T336 443Q299 443 273 421T229 365T204 289T196 208Q196 157 218 126T288 94Q336 94 363 124T399 199H550Q544
145 520 105T460 39T377 -1T281 -14Q228 -14 184 -1T106 41T55 112T36 214Q36 281 55 342T113 449T209 522T341 549Q395 549 438 535T511 495T556 430T570 344H414Z" />
<glyph unicode="&#x10e;" glyph-name="Dcaron" horiz-adv-x="758" d="M290 960H398L450 904H451L521 960H634L504 827H371L290 960ZM174 765H416Q489 765 549 746T652 688T718 591T742 457Q742 362 715 279T634 134T498 36T307 0H27L174 765ZM316 123Q386 123
435 153T514 231T558 342T572 469Q572 517 560 550T525 604T470 634T400 643H312L211 123H316Z" />
<glyph unicode="&#x10f;" glyph-name="dcaron" horiz-adv-x="638" d="M742 788H865L774 601H700L742 788ZM338 439Q302 439 276 418T232 362T206 286T197 202Q197 150 216 122T279 93Q327 93 364 128T412 224L424 288Q431 320 430 347T418 395T388 427T338 439ZM522
0H373L388 80H386Q360 42 321 14T222 -14Q177 -14 143 2T85 46T50 114T38 202Q38 262 55 323T105 434T189 515T307 547Q365 547 401 524T454 461H456L519 788H675L522 0Z" />
<glyph unicode="&#x110;" glyph-name="Dcroat" horiz-adv-x="764" d="M33 0L97 329H22L44 440H118L181 765H422Q495 765 555 746T658 688T724 591T748 457Q748 362 721 279T640 134T504 36T313 0H33ZM322 123Q393 123 442 153T521 231T564 342T578 469Q578 517
566 550T531 604T476 634T406 643H318L279 440H441L419 329H257L217 123H322Z" />
<glyph unicode="&#x111;" glyph-name="dcroat" horiz-adv-x="638" d="M338 439Q302 439 276 418T232 362T206 286T197 202Q197 150 216 122T279 93Q327 93 364 128T412 224L424 288Q431 320 430 347T418 395T388 427T338 439ZM386 80Q360 42 321 14T222 -14Q177
-14 143 2T85 46T50 114T38 202Q38 262 55 323T105 434T189 515T307 547Q365 547 401 524T454 461H456L484 607H337L354 700H502L519 788H675L658 700H734L716 607H640L522 0H373L388 80H386Z" />
<glyph unicode="&#x112;" glyph-name="Emacron" horiz-adv-x="636" d="M175 765H664L640 640H312L274 443H585L561 321H250L212 124H552L528 0H27L175 765ZM288 942H624L603 838H268L288 942Z" />
<glyph unicode="&#x113;" glyph-name="emacron" horiz-adv-x="589" d="M406 328Q414 386 396 418T330 450Q282 450 251 414T206 321H405L406 328ZM529 156Q520 113 498 81T442 28T366 -3T276 -14Q220 -14 176 1T100 46T52 117T35 212Q35 278 55 339T113 446T208
521T337 549Q405 549 451 526T523 464T555 374T552 268L545 231H193Q192 225 192 219T192 206Q192 156 213 125T284 93Q324 93 346 111T375 156H529ZM221 740H556L537 636H201L221 740Z" />
<glyph unicode="&#x114;" glyph-name="Ebreve" horiz-adv-x="636" d="M175 765H664L640 640H312L274 443H585L561 321H250L212 124H552L528 0H27L175 765ZM387 972Q385 943 400 926T442 908Q470 908 490 925T520 972H620Q612 929 594 899T551 851T495 824T430
815Q398 815 371 825T324 854T296 903T293 972H387Z" />
<glyph unicode="&#x115;" glyph-name="ebreve" horiz-adv-x="589" d="M406 328Q414 386 396 418T330 450Q282 450 251 414T206 321H405L406 328ZM529 156Q520 113 498 81T442 28T366 -3T276 -14Q220 -14 176 1T100 46T52 117T35 212Q35 278 55 339T113 446T208
521T337 549Q405 549 451 526T523 464T555 374T552 268L545 231H193Q192 225 192 219T192 206Q192 156 213 125T284 93Q324 93 346 111T375 156H529ZM374 612Q338 612 309 623T260 656T233 711T235 788H333Q326 752 340 734T382 715Q411 715 431 733T459 788H562Q556
740 537 707T492 652T436 622T374 612Z" />
<glyph unicode="&#x116;" glyph-name="Edotaccent" horiz-adv-x="636" d="M393 970H528L501 833H366L393 970ZM175 765H664L640 640H312L274 443H585L561 321H250L212 124H552L528 0H27L175 765Z" />
<glyph unicode="&#x117;" glyph-name="edotaccent" horiz-adv-x="589" d="M406 328Q414 386 396 418T330 450Q282 450 251 414T206 321H405L406 328ZM529 156Q520 113 498 81T442 28T366 -3T276 -14Q220 -14 176 1T100 46T52 117T35 212Q35 278 55 339T113 446T208
521T337 549Q405 549 451 526T523 464T555 374T552 268L545 231H193Q192 225 192 219T192 206Q192 156 213 125T284 93Q324 93 346 111T375 156H529ZM329 773H464L437 636H302L329 773Z" />
<glyph unicode="&#x118;" glyph-name="Eogonek" horiz-adv-x="636" d="M492 -188H463Q394 -188 366 -169T337 -110Q337 -76 361 -47T431 0H27L175 765H664L640 640H312L274 443H585L561 321H250L212 124H552L528 0Q494 -20 479 -37T464 -72Q464 -99 509 -99L492 -188Z" />
<glyph unicode="&#x119;" glyph-name="eogonek" horiz-adv-x="589" d="M406 328Q414 386 396 418T328 450Q281 450 251 414T206 321H405L406 328ZM369 -188H340Q271 -188 243 -170T214 -112Q214 -77 236 -54T297 -14V-12Q292 -13 286 -13T273 -14Q221 -14 178
0T103 43T53 114T35 212Q35 278 55 339T113 446T208 521T337 549Q406 549 452 526T524 464T556 374T552 268L545 231H193Q192 225 192 219T192 206Q192 156 213 125T284 93Q324 93 346 111T375 156H529Q520 113 495 77T414 12Q372 -9 356 -30T340 -69Q340 -99 386
-99L369 -188Z" />
<glyph unicode="&#x11a;" glyph-name="Ecaron" horiz-adv-x="636" d="M285 960H393L445 904H446L516 960H629L499 827H366L285 960ZM175 765H664L640 640H312L274 443H585L561 321H250L212 124H552L528 0H27L175 765Z" />
<glyph unicode="&#x11b;" glyph-name="ecaron" horiz-adv-x="589" d="M231 788H334L380 711L456 788H563L426 614H303L231 788ZM406 328Q414 386 396 418T330 450Q282 450 251 414T206 321H405L406 328ZM529 156Q520 113 498 81T442 28T366 -3T276 -14Q220 -14
176 1T100 46T52 117T35 212Q35 278 55 339T113 446T208 521T337 549Q405 549 451 526T523 464T555 374T552 268L545 231H193Q192 225 192 219T192 206Q192 156 213 125T284 93Q324 93 346 111T375 156H529Z" />
<glyph unicode="&#x11c;" glyph-name="Gcircumflex" horiz-adv-x="792" d="M675 827H568L517 883H516L447 827H337L463 960H596L675 827ZM594 533Q596 594 565 626T475 658Q430 658 395 640T334 592T289 523T259 442T242 359T237 281Q237 247 244 215T269 157T313
117T381 102Q422 102 453 115T506 151T544 206T569 275L573 291H406L429 408H756L677 0H549L570 108H567Q543 56 487 20T347 -16Q280 -16 228 5T140 65T86 161T67 288Q67 378 92 465T169 622T299 733T482 776Q543 776 594 761T682 716T740 641T761 533H594Z" />
<glyph unicode="&#x11d;" glyph-name="gcircumflex" horiz-adv-x="633" d="M545 614H442L394 692L321 614H213L350 788H473L545 614ZM425 294Q431 323 430 349T419 396T390 427T341 439Q303 439 276 418T232 365T207 294T198 217Q199 170 220 143T288 115Q312
115 333 124T370 151T398 190T414 239L425 294ZM154 -31Q155 -64 179 -80T240 -97Q300 -97 330 -64T372 30L386 97H384Q373 81 358 66T324 39T281 20T225 13Q138 13 89 63T39 213Q39 275 57 335T109 442T194 518T309 547Q370 547 407 522T459 454H461L477 536H627L530
38Q506 -86 432 -142T233 -199Q173 -199 130 -187T60 -152T20 -99T7 -31H154Z" />
<glyph unicode="&#x11e;" glyph-name="Gbreve" horiz-adv-x="792" d="M460 972Q458 943 473 926T515 908Q543 908 563 925T593 972H693Q685 929 667 899T624 851T568 824T503 815Q471 815 444 825T397 854T369 903T366 972H460ZM594 533Q596 594 565 626T475 658Q430
658 395 640T334 592T289 523T259 442T242 359T237 281Q237 247 244 215T269 157T313 117T381 102Q422 102 453 115T506 151T544 206T569 275L573 291H406L429 408H756L677 0H549L570 108H567Q543 56 487 20T347 -16Q280 -16 228 5T140 65T86 161T67 288Q67 378
92 465T169 622T299 733T482 776Q543 776 594 761T682 716T740 641T761 533H594Z" />
<glyph unicode="&#x11f;" glyph-name="gbreve" horiz-adv-x="633" d="M425 294Q431 323 430 349T419 396T390 427T341 439Q303 439 276 418T232 365T207 294T198 217Q199 170 220 143T288 115Q312 115 333 124T370 151T398 190T414 239L425 294ZM154 -31Q155 -64
179 -80T240 -97Q300 -97 330 -64T372 30L386 97H384Q373 81 358 66T324 39T281 20T225 13Q138 13 89 63T39 213Q39 275 57 335T109 442T194 518T309 547Q370 547 407 522T459 454H461L477 536H627L530 38Q506 -86 432 -142T233 -199Q173 -199 130 -187T60 -152T20
-99T7 -31H154ZM388 612Q352 612 323 623T274 656T247 711T249 788H347Q340 752 354 734T396 715Q425 715 445 733T473 788H576Q570 740 551 707T506 652T450 622T388 612Z" />
<glyph unicode="&#x120;" glyph-name="Gdotaccent" horiz-adv-x="792" d="M467 970H602L575 833H440L467 970ZM594 533Q596 594 565 626T475 658Q430 658 395 640T334 592T289 523T259 442T242 359T237 281Q237 247 244 215T269 157T313 117T381 102Q422 102 453
115T506 151T544 206T569 275L573 291H406L429 408H756L677 0H549L570 108H567Q543 56 487 20T347 -16Q280 -16 228 5T140 65T86 161T67 288Q67 378 92 465T169 622T299 733T482 776Q543 776 594 761T682 716T740 641T761 533H594Z" />
<glyph unicode="&#x121;" glyph-name="gdotaccent" horiz-adv-x="633" d="M425 294Q431 323 430 349T419 396T390 427T341 439Q303 439 276 418T232 365T207 294T198 217Q199 170 220 143T288 115Q312 115 333 124T370 151T398 190T414 239L425 294ZM154 -31Q155
-64 179 -80T240 -97Q300 -97 330 -64T372 30L386 97H384Q373 81 358 66T324 39T281 20T225 13Q138 13 89 63T39 213Q39 275 57 335T109 442T194 518T309 547Q370 547 407 522T459 454H461L477 536H627L530 38Q506 -86 432 -142T233 -199Q173 -199 130 -187T60
-152T20 -99T7 -31H154ZM343 773H478L451 636H316L343 773Z" />
<glyph unicode="&#x122;" glyph-name="Gcommaaccent" horiz-adv-x="792" d="M263 -64H414L312 -220H208L263 -64ZM594 533Q596 594 565 626T475 658Q430 658 395 640T334 592T289 523T259 442T242 359T237 281Q237 247 244 215T269 157T313 117T381 102Q422 102
453 115T506 151T544 206T569 275L573 291H406L429 408H756L677 0H549L570 108H567Q543 56 487 20T347 -16Q280 -16 228 5T140 65T86 161T67 288Q67 378 92 465T169 622T299 733T482 776Q543 776 594 761T682 716T740 641T761 533H594Z" />
<glyph unicode="&#x123;" glyph-name="gcommaaccent" horiz-adv-x="633" d="M445 617H291L401 782H503L445 617ZM425 294Q431 323 430 349T419 396T390 427T341 439Q303 439 276 418T232 365T207 294T198 217Q199 170 220 143T288 115Q312 115 333 124T370 151T398
190T414 239L425 294ZM154 -31Q155 -64 179 -80T240 -97Q300 -97 330 -64T372 30L386 97H384Q373 81 358 66T324 39T281 20T225 13Q138 13 89 63T39 213Q39 275 57 335T109 442T194 518T309 547Q370 547 407 522T459 454H461L477 536H627L530 38Q506 -86 432 -142T233
-199Q173 -199 130 -187T60 -152T20 -99T7 -31H154Z" />
<glyph unicode="&#x124;" glyph-name="Hcircumflex" horiz-adv-x="772" d="M188 0H27L175 765H336L274 445H573L635 765H797L649 0H487L549 319H250L188 0ZM663 827H556L505 883H504L435 827H325L451 960H584L663 827Z" />
<glyph unicode="&#x125;" glyph-name="hcircumflex" horiz-adv-x="628" d="M421 304Q425 322 427 336T429 363Q429 396 414 414T361 433Q308 433 275 393T228 281L174 0H18L171 788H327L260 447H262Q289 494 334 520T439 547Q525 547 564 492T581 326L518 0H363L421
304ZM599 827H492L441 883H440L371 827H261L387 960H520L599 827Z" />
<glyph unicode="&#x126;" glyph-name="Hbar" horiz-adv-x="772" d="M573 445L596 564H297L274 445H573ZM188 0H27L136 564H58L77 658H154L175 765H336L315 658H614L635 765H797L776 658H853L834 564H758L649 0H487L549 319H250L188 0Z" />
<glyph unicode="&#x127;" glyph-name="hbar" horiz-adv-x="628" d="M174 0H18L136 607H59L77 700H154L171 788H327L310 700H456L439 607H291L260 447H262Q289 494 334 520T439 547Q525 547 564 492T581 326L518 0H363L421 304Q425 322 427 336T429 363Q429 396
414 414T361 433Q308 433 275 393T228 281L174 0Z" />
<glyph unicode="&#x128;" glyph-name="Itilde" horiz-adv-x="312" d="M175 765H337L189 0H27L175 765ZM80 820Q83 848 94 875T123 925T168 960T227 974Q250 974 266 966T297 949T324 932T355 924Q373 924 386 934T407 975H484Q481 943 470 915T442 866T400 833T347
821Q320 821 301 829T267 846T238 863T210 871Q197 871 183 861T156 820H80Z" />
<glyph unicode="&#x129;" glyph-name="itilde" horiz-adv-x="289" d="M51 614Q55 646 65 675T91 728T131 764T184 778Q204 778 219 770T246 753T270 735T295 727Q308 727 321 737T347 779H414Q409 746 399 717T373 664T335 628T283 614Q263 614 247 622T217 639T191
657T166 665Q154 665 141 655T117 614H51ZM122 536H278L174 0H18L122 536Z" />
<glyph unicode="&#x12a;" glyph-name="Imacron" horiz-adv-x="312" d="M175 765H337L189 0H27L175 765ZM123 942H459L438 838H103L123 942Z" />
<glyph unicode="&#x12b;" glyph-name="imacron" horiz-adv-x="289" d="M102 740H375L356 636H82L102 740ZM122 536H278L174 0H18L122 536Z" />
<glyph unicode="&#x12c;" glyph-name="Ibreve" horiz-adv-x="312" d="M175 765H337L189 0H27L175 765ZM227 972Q225 943 240 926T282 908Q310 908 330 925T360 972H460Q452 929 434 899T391 851T335 824T270 815Q238 815 211 825T164 854T136 903T133 972H227Z" />
<glyph unicode="&#x12d;" glyph-name="ibreve" horiz-adv-x="289" d="M219 612Q186 612 160 623T118 656T97 711T102 788H190Q182 752 193 734T230 715Q256 715 276 733T304 788H396Q388 740 371 707T329 652T277 622T219 612ZM122 536H278L174 0H18L122 536Z" />
<glyph unicode="&#x12e;" glyph-name="Iogonek" horiz-adv-x="312" d="M175 765H337L189 4Q154 -17 139 -36T123 -72Q123 -99 168 -99L151 -188H122Q53 -188 25 -170T-4 -112Q-4 -79 20 -49T90 0H27L175 765Z" />
<glyph unicode="&#x12f;" glyph-name="iogonek" horiz-adv-x="289" d="M167 773H324L296 629H139L167 773ZM122 536H278L174 3Q139 -17 124 -35T108 -72Q108 -99 153 -99L136 -188H107Q38 -188 10 -170T-19 -112Q-19 -79 4 -50T75 0H18L122 536Z" />
<glyph unicode="&#x130;" glyph-name="Idotaccent" horiz-adv-x="312" d="M175 765H337L189 0H27L175 765ZM228 970H363L336 833H201L228 970Z" />
<glyph unicode="&#x131;" glyph-name="dotlessi" horiz-adv-x="289" d="M122 536H278L174 0H18L122 536Z" />
<glyph unicode="&#x132;" glyph-name="IJ" horiz-adv-x="709" d="M175 765H337L189 0H27L175 765ZM288 -3L313 127H335Q375 127 400 134T441 157T465 196T479 250L580 765H740L636 232Q623 167 602 122T545 49T459 9T339 -3H288Z" />
<glyph unicode="&#x133;" glyph-name="ij" horiz-adv-x="582" d="M167 773H324L296 629H139L167 773ZM122 536H278L174 0H18L122 536ZM460 773H617L589 629H432L460 773ZM249 -206Q210 -206 191 -201T168 -194L189 -86Q192 -87 203 -89T230 -91Q261 -91 279 -76T305
-23L414 536H570L459 -33Q449 -83 429 -116T382 -170T320 -198T249 -206Z" />
<glyph unicode="&#x134;" glyph-name="Jcircumflex" horiz-adv-x="436" d="M567 827H460L409 883H408L339 827H229L355 960H488L567 827ZM238 -3L264 127H318Q358 127 383 134T423 157T447 196T461 250L563 765H722L618 232Q605 167 584 122T527 49T441 9T321 -3H238Z" />
<glyph unicode="&#x135;" glyph-name="jcircumflex" horiz-adv-x="293" d="M373 614H272L234 692L171 614H63L190 788H313L373 614ZM-100 -86Q-97 -87 -86 -89T-59 -91Q-28 -91 -10 -76T16 -23L125 536H281L170 -33Q160 -83 140 -116T93 -170T31 -198T-40 -206Q-79
-206 -98 -201T-121 -194L-100 -86Z" />
<glyph unicode="&#x136;" glyph-name="Kcommaaccent" horiz-adv-x="721" d="M245 -64H396L294 -220H190L245 -64ZM188 0H27L175 765H336L270 423L602 765H787L452 433L652 0H479L330 325L232 228L188 0Z" />
<glyph unicode="&#x137;" glyph-name="kcommaaccent" horiz-adv-x="588" d="M180 -64H331L229 -220H125L180 -64ZM171 0H18L171 788H324L232 316L447 536H618L391 312L526 0H366L271 217L199 142L171 0Z" />
<glyph unicode="&#x138;" glyph-name="kgreenlandic" horiz-adv-x="596" d="M171 0H18L121 536H275L232 316L447 536H618L391 312L526 0H366L271 217L199 142L171 0Z" />
<glyph unicode="&#x139;" glyph-name="Lacute" horiz-adv-x="597" d="M295 960H449L329 827H213L295 960ZM175 765H336L213 128H536L511 0H27L175 765Z" />
<glyph unicode="&#x13a;" glyph-name="lacute" horiz-adv-x="289" d="M272 960H426L306 827H190L272 960ZM171 788H327L174 0H18L171 788Z" />
<glyph unicode="&#x13b;" glyph-name="Lcommaaccent" horiz-adv-x="597" d="M186 -64H337L235 -220H131L186 -64ZM175 765H336L213 128H536L511 0H27L175 765Z" />
<glyph unicode="&#x13c;" glyph-name="lcommaaccent" horiz-adv-x="289" d="M270 -64H421L319 -220H215L270 -64ZM171 788H327L174 0H18L171 788Z" />
<glyph unicode="&#x13d;" glyph-name="Lcaron" horiz-adv-x="597" d="M444 788H571L459 577H381L444 788ZM175 765H336L213 128H536L511 0H27L175 765Z" />
<glyph unicode="&#x13e;" glyph-name="lcaron" horiz-adv-x="289" d="M394 788H517L426 601H352L394 788ZM171 788H327L174 0H18L171 788Z" />
<glyph unicode="&#x13f;" glyph-name="Ldot" horiz-adv-x="597" d="M175 765H336L213 128H536L511 0H27L175 765ZM422 500H585L554 345H392L422 500Z" />
<glyph unicode="&#x140;" glyph-name="ldot" horiz-adv-x="463" d="M171 788H327L174 0H18L171 788ZM341 475H498L468 325H312L341 475Z" />
<glyph unicode="&#x141;" glyph-name="Lslash" horiz-adv-x="598" d="M79 267L-4 241L19 362L102 388L175 765H337L275 443L506 517L482 396L251 322L214 128H536L512 0H27L79 267Z" />
<glyph unicode="&#x142;" glyph-name="lslash" horiz-adv-x="291" d="M18 0L75 294L-8 250L16 371L99 415L171 788H327L272 507L355 551L331 430L249 386L174 0H18Z" />
<glyph unicode="&#x143;" glyph-name="Nacute" horiz-adv-x="765" d="M509 960H663L543 827H427L509 960ZM175 765H346L504 340Q513 315 519 295T529 259Q533 241 536 227H539L643 765H788L640 0H482L316 431Q306 457 300 478T289 515Q284 533 281 548H278L172
0H27L175 765Z" />
<glyph unicode="&#x144;" glyph-name="nacute" horiz-adv-x="632" d="M401 788H557L437 614H319L401 788ZM421 304Q429 339 429 363Q429 396 414 414T361 433Q308 433 275 393T227 280L174 0H18L122 536H272L253 442H255Q284 491 331 519T439 547Q525 547 563
492T581 327L518 0H363L421 304Z" />
<glyph unicode="&#x145;" glyph-name="Ncommaaccent" horiz-adv-x="765" d="M250 -64H401L299 -220H195L250 -64ZM175 765H346L504 340Q513 315 519 295T529 259Q533 241 536 227H539L643 765H788L640 0H482L316 431Q306 457 300 478T289 515Q284 533 281 548H278L172
0H27L175 765Z" />
<glyph unicode="&#x146;" glyph-name="ncommaaccent" horiz-adv-x="632" d="M183 -64H334L232 -220H128L183 -64ZM421 304Q429 339 429 363Q429 396 414 414T361 433Q308 433 275 393T227 280L174 0H18L122 536H272L253 442H255Q284 491 331 519T439 547Q525 547
563 492T581 327L518 0H363L421 304Z" />
<glyph unicode="&#x147;" glyph-name="Ncaron" horiz-adv-x="765" d="M345 960H453L505 904H506L576 960H689L559 827H426L345 960ZM175 765H346L504 340Q513 315 519 295T529 259Q533 241 536 227H539L643 765H788L640 0H482L316 431Q306 457 300 478T289 515Q284
533 281 548H278L172 0H27L175 765Z" />
<glyph unicode="&#x148;" glyph-name="ncaron" horiz-adv-x="632" d="M247 788H350L396 711L472 788H579L442 614H319L247 788ZM421 304Q429 339 429 363Q429 396 414 414T361 433Q308 433 275 393T227 280L174 0H18L122 536H272L253 442H255Q284 491 331 519T439
547Q525 547 563 492T581 327L518 0H363L421 304Z" />
<glyph unicode="&#x149;" glyph-name="napostrophe" horiz-adv-x="632" d="M138 775H289L187 619H83L138 775ZM421 304Q429 339 429 363Q429 396 414 414T361 433Q308 433 275 393T227 280L174 0H18L122 536H272L253 442H255Q284 491 331 519T439 547Q525 547
563 492T581 327L518 0H363L421 304Z" />
<glyph unicode="&#x14a;" glyph-name="Eng" horiz-adv-x="765" d="M289 -181L313 -61H349Q406 -61 436 -49T484 -4L316 431Q306 457 300 478T289 515Q284 533 281 548H278L172 0H27L175 765H346L504 340Q513 315 519 295T529 259Q533 241 536 227H539L643 765H788L669
147L667 138L666 132L650 54Q637 -11 615 -56T559 -129T474 -169T354 -181H289Z" />
<glyph unicode="&#x14b;" glyph-name="eng" horiz-adv-x="632" d="M302 -206Q263 -206 244 -201T221 -193L242 -85Q245 -87 256 -89T283 -91Q314 -91 332 -75T358 -23L385 116L421 304Q429 339 429 363Q429 396 414 414T361 433Q308 433 275 393T227 280L174 0H18L122
536H272L253 442H255Q284 491 331 519T439 547Q525 547 563 492T581 327L540 116H541L512 -33Q502 -83 482 -116T435 -169T373 -197T302 -206Z" />
<glyph unicode="&#x14c;" glyph-name="Omacron" horiz-adv-x="804" d="M363 942H699L678 838H343L363 942ZM67 294Q67 392 95 479T176 633T304 737T473 776Q538 776 595 757T694 698T759 599T783 461Q783 369 757 283T680 131T554 24T380 -16Q315 -16 258 2T159
57T92 153T67 294ZM613 481Q613 516 606 548T581 604T536 643T468 658Q425 658 392 641T332 593T288 524T259 443T242 358T237 277Q237 244 244 213T269 158T315 119T386 104Q426 104 458 121T516 168T560 235T590 316T607 400T613 481Z" />
<glyph unicode="&#x14d;" glyph-name="omacron" horiz-adv-x="606" d="M221 740H556L537 636H201L221 740ZM276 -14Q223 -14 179 0T103 42T54 113T36 212Q36 277 55 337T113 445T207 520T336 549Q390 549 434 534T511 489T560 419T578 324Q578 253 557 192T497
84T402 12T276 -14ZM419 335Q419 354 415 373T402 408T375 433T333 443Q294 443 268 419T225 358T201 281T194 204Q194 182 198 162T212 127T239 102T282 93Q323 93 349 119T391 182T413 261T419 335Z" />
<glyph unicode="&#x14e;" glyph-name="Obreve" horiz-adv-x="804" d="M467 972Q465 943 480 926T522 908Q550 908 570 925T600 972H700Q692 929 674 899T631 851T575 824T510 815Q478 815 451 825T404 854T376 903T373 972H467ZM67 294Q67 392 95 479T176 633T304
737T473 776Q538 776 595 757T694 698T759 599T783 461Q783 369 757 283T680 131T554 24T380 -16Q315 -16 258 2T159 57T92 153T67 294ZM613 481Q613 516 606 548T581 604T536 643T468 658Q425 658 392 641T332 593T288 524T259 443T242 358T237 277Q237 244 244
213T269 158T315 119T386 104Q426 104 458 121T516 168T560 235T590 316T607 400T613 481Z" />
<glyph unicode="&#x14f;" glyph-name="obreve" horiz-adv-x="606" d="M276 -14Q223 -14 179 0T103 42T54 113T36 212Q36 277 55 337T113 445T207 520T336 549Q390 549 434 534T511 489T560 419T578 324Q578 253 557 192T497 84T402 12T276 -14ZM419 335Q419 354
415 373T402 408T375 433T333 443Q294 443 268 419T225 358T201 281T194 204Q194 182 198 162T212 127T239 102T282 93Q323 93 349 119T391 182T413 261T419 335ZM374 612Q338 612 309 623T260 656T233 711T235 788H333Q326 752 340 734T382 715Q411 715 431 733T459
788H562Q556 740 537 707T492 652T436 622T374 612Z" />
<glyph unicode="&#x150;" glyph-name="Ohungarumlaut" horiz-adv-x="804" d="M599 964H722L629 831H539L599 964ZM424 964H547L466 831H377L424 964ZM67 294Q67 392 95 479T176 633T304 737T473 776Q538 776 595 757T694 698T759 599T783 461Q783 369 757 283T680
131T554 24T380 -16Q315 -16 258 2T159 57T92 153T67 294ZM613 481Q613 516 606 548T581 604T536 643T468 658Q425 658 392 641T332 593T288 524T259 443T242 358T237 277Q237 244 244 213T269 158T315 119T386 104Q426 104 458 121T516 168T560 235T590 316T607
400T613 481Z" />
<glyph unicode="&#x151;" glyph-name="ohungarumlaut" horiz-adv-x="606" d="M474 788H599L480 614H389L474 788ZM301 788H426L320 614H229L301 788ZM276 -14Q223 -14 179 0T103 42T54 113T36 212Q36 277 55 337T113 445T207 520T336 549Q390 549 434 534T511
489T560 419T578 324Q578 253 557 192T497 84T402 12T276 -14ZM419 335Q419 354 415 373T402 408T375 433T333 443Q294 443 268 419T225 358T201 281T194 204Q194 182 198 162T212 127T239 102T282 93Q323 93 349 119T391 182T413 261T419 335Z" />
<glyph unicode="&#x152;" glyph-name="OE" horiz-adv-x="1139" d="M387 104Q424 104 457 119T516 162T562 229T591 317L613 428Q621 467 620 508T603 582T555 637T470 658Q427 658 394 641T334 593T290 524T261 443T244 358T239 277Q239 244 246 213T270 158T316
119T387 104ZM542 78Q510 38 462 11T343 -16Q292 -16 243 0T154 53T91 149T67 293Q67 395 96 483T176 636T300 738T462 775Q533 775 583 748T658 672H660L678 765H1167L1143 640H815L777 443H1088L1065 321H753L715 124H1055L1031 0H530L545 78H542Z" />
<glyph unicode="&#x153;" glyph-name="oe" horiz-adv-x="961" d="M778 328Q786 386 769 418T702 450Q656 450 625 414T579 321H777L778 328ZM419 335Q419 356 415 375T402 410T375 434T333 443Q294 443 268 419T225 358T201 281T194 204Q194 182 198 162T212 127T239
102T282 93Q323 93 349 119T391 182T413 261T419 335ZM901 156Q892 114 870 83T815 30T740 -3T648 -14Q512 -14 463 73Q430 33 382 10T268 -14Q217 -14 174 0T101 42T53 113T36 212Q36 277 55 337T113 445T207 520T336 549Q405 549 448 526T514 458Q548 499 596
524T710 549Q776 549 822 526T894 465T927 375T924 268L917 231H565Q564 225 564 219T564 206Q564 156 585 124T655 92Q695 92 718 111T747 156H901Z" />
<glyph unicode="&#x154;" glyph-name="Racute" horiz-adv-x="699" d="M458 960H612L492 827H376L458 960ZM385 408Q452 408 491 443T530 551Q530 602 502 626T409 651H313L266 408H385ZM188 0H27L174 765H426Q515 765 579 736Q630 713 661 670T692 554Q692 470
651 408T516 317V315L641 0H473L362 291H244L188 0Z" />
<glyph unicode="&#x155;" glyph-name="racute" horiz-adv-x="419" d="M316 788H472L352 614H234L316 788ZM122 536H269L246 420H248Q283 483 333 514T443 545H450L422 396H412Q373 396 341 389T285 364T244 316T218 238L172 0H18L122 536Z" />
<glyph unicode="&#x156;" glyph-name="Rcommaaccent" horiz-adv-x="699" d="M241 -64H392L290 -220H186L241 -64ZM385 408Q452 408 491 443T530 551Q530 602 502 626T409 651H313L266 408H385ZM188 0H27L174 765H426Q515 765 579 736Q630 713 661 670T692 554Q692
470 651 408T516 317V315L641 0H473L362 291H244L188 0Z" />
<glyph unicode="&#x157;" glyph-name="rcommaaccent" horiz-adv-x="419" d="M265 -64H416L314 -220H210L265 -64ZM122 536H269L246 420H248Q283 483 333 514T443 545H450L422 396H412Q373 396 341 389T285 364T244 316T218 238L172 0H18L122 536Z" />
<glyph unicode="&#x158;" glyph-name="Rcaron" horiz-adv-x="699" d="M280 960H388L440 904H441L511 960H624L494 827H361L280 960ZM385 408Q452 408 491 443T530 551Q530 602 502 626T409 651H313L266 408H385ZM188 0H27L174 765H426Q515 765 579 736Q630 713
661 670T692 554Q692 470 651 408T516 317V315L641 0H473L362 291H244L188 0Z" />
<glyph unicode="&#x159;" glyph-name="rcaron" horiz-adv-x="419" d="M166 788H269L315 711L391 788H498L361 614H238L166 788ZM122 536H269L246 420H248Q283 483 333 514T443 545H450L422 396H412Q373 396 341 389T285 364T244 316T218 238L172 0H18L122 536Z" />
<glyph unicode="&#x15a;" glyph-name="Sacute" horiz-adv-x="673" d="M196 222Q194 165 224 135T324 105Q352 105 377 112T422 134T452 168T463 215Q463 252 441 271T371 305L277 332Q184 359 144 409T103 535Q103 593 126 637T190 713T283 760T397 776Q455 776
504 762T589 720T642 651T658 554H495Q498 602 471 629T390 657Q338 657 303 631T268 556Q268 521 292 504T359 474L454 447Q549 420 588 371T628 249Q628 189 605 140T541 57T443 3T318 -16Q250 -16 195 -1T102 44T44 118T28 222H196ZM440 960H594L474 827H358L440
960Z" />
<glyph unicode="&#x15b;" glyph-name="sacute" horiz-adv-x="525" d="M328 788H484L364 614H246L328 788ZM359 384Q361 418 338 433T282 448Q249 448 228 433T206 390Q206 367 222 356T271 336L337 321Q413 304 443 269T473 174Q473 128 455 93T406 33T331 -3T236
-15Q188 -15 147 -5T75 28T29 82T14 159H156Q154 121 177 104T241 86Q276 86 302 100T329 149Q329 168 316 181T269 203L206 217Q138 232 102 268T65 369Q65 414 83 447T132 503T203 537T289 549Q334 549 373 539T440 507T483 455T495 384H359Z" />
<glyph unicode="&#x15c;" glyph-name="Scircumflex" horiz-adv-x="673" d="M589 827H482L431 883H430L361 827H251L377 960H510L589 827ZM196 222Q194 165 224 135T324 105Q352 105 377 112T422 134T452 168T463 215Q463 252 441 271T371 305L277 332Q184 359
144 409T103 535Q103 593 126 637T190 713T283 760T397 776Q455 776 504 762T589 720T642 651T658 554H495Q498 602 471 629T390 657Q338 657 303 631T268 556Q268 521 292 504T359 474L454 447Q549 420 588 371T628 249Q628 189 605 140T541 57T443 3T318 -16Q250
-16 195 -1T102 44T44 118T28 222H196Z" />
<glyph unicode="&#x15d;" glyph-name="scircumflex" horiz-adv-x="525" d="M478 614H375L327 692L254 614H146L283 788H406L478 614ZM359 384Q361 418 338 433T282 448Q249 448 228 433T206 390Q206 367 222 356T271 336L337 321Q413 304 443 269T473 174Q473
128 455 93T406 33T331 -3T236 -15Q188 -15 147 -5T75 28T29 82T14 159H156Q154 121 177 104T241 86Q276 86 302 100T329 149Q329 168 316 181T269 203L206 217Q138 232 102 268T65 369Q65 414 83 447T132 503T203 537T289 549Q334 549 373 539T440 507T483 455T495
384H359Z" />
<glyph unicode="&#x15e;" glyph-name="Scedilla" horiz-adv-x="673" d="M263 -225Q244 -225 226 -221T193 -207T170 -183T163 -147H240Q243 -167 269 -167Q287 -167 296 -157T306 -133Q306 -120 299 -112T278 -104Q259 -104 248 -117H186L240 -10Q189 -2 149 16T81
64T39 133T28 222H196Q194 165 224 135T324 105Q352 105 377 112T422 134T452 168T463 215Q463 252 441 271T371 305L277 332Q184 359 144 409T103 535Q103 593 126 637T190 713T283 760T397 776Q455 776 504 762T589 720T642 651T658 554H495Q498 602 471 629T390
657Q338 657 303 631T268 556Q268 521 292 504T359 474L454 447Q549 420 588 371T628 249Q628 189 605 140T541 57T443 3T318 -16Q312 -16 306 -16T293 -15L268 -66H270Q281 -58 292 -55T320 -51Q351 -51 370 -70T390 -120Q390 -167 358 -196T263 -225Z" />
<glyph unicode="&#x15f;" glyph-name="scedilla" horiz-adv-x="525" d="M181 -225Q162 -225 144 -221T111 -207T88 -183T81 -147H158Q161 -167 187 -167Q205 -167 214 -157T224 -133Q224 -120 217 -112T196 -104Q177 -104 166 -117H104L160 -8Q93 6 52 47T14 159H156Q154
121 177 104T241 86Q276 86 302 100T329 149Q329 168 316 181T269 203L206 217Q138 232 102 268T65 369Q65 414 83 447T132 503T203 537T289 549Q334 549 373 539T440 507T483 455T495 384H359Q361 418 338 433T282 448Q249 448 228 433T206 390Q206 367 222 356T271
336L337 321Q413 304 443 269T473 174Q473 128 455 93T406 33T331 -3T236 -15Q230 -15 224 -15T212 -14L186 -66H188Q199 -58 210 -55T238 -51Q269 -51 288 -70T308 -120Q308 -167 276 -196T181 -225Z" />
<glyph unicode="&#x160;" glyph-name="Scaron" horiz-adv-x="673" d="M272 960H380L432 904H433L503 960H616L486 827H353L272 960ZM196 222Q194 165 224 135T324 105Q352 105 377 112T422 134T452 168T463 215Q463 252 441 271T371 305L277 332Q184 359 144 409T103
535Q103 593 126 637T190 713T283 760T397 776Q455 776 504 762T589 720T642 651T658 554H495Q498 602 471 629T390 657Q338 657 303 631T268 556Q268 521 292 504T359 474L454 447Q549 420 588 371T628 249Q628 189 605 140T541 57T443 3T318 -16Q250 -16 195
-1T102 44T44 118T28 222H196Z" />
<glyph unicode="&#x161;" glyph-name="scaron" horiz-adv-x="525" d="M173 788H276L322 711L398 788H505L368 614H245L173 788ZM359 384Q361 418 338 433T282 448Q249 448 228 433T206 390Q206 367 222 356T271 336L337 321Q413 304 443 269T473 174Q473 128 455
93T406 33T331 -3T236 -15Q188 -15 147 -5T75 28T29 82T14 159H156Q154 121 177 104T241 86Q276 86 302 100T329 149Q329 168 316 181T269 203L206 217Q138 232 102 268T65 369Q65 414 83 447T132 503T203 537T289 549Q334 549 373 539T440 507T483 455T495 384H359Z"
/>
<glyph unicode="&#x162;" glyph-name="Tcommaaccent" horiz-adv-x="644" d="M191 -64H342L240 -220H136L191 -64ZM354 0H192L315 636H96L121 765H720L695 636H477L354 0Z" />
<glyph unicode="&#x163;" glyph-name="tcommaaccent" horiz-adv-x="393" d="M101 -64H252L150 -220H46L101 -64ZM334 687L305 536H421L399 426H284L238 189Q229 142 240 126T293 109Q301 109 309 109T324 111Q331 112 337 114L315 0Q304 -2 282 -4T237 -7Q147
-7 106 37T84 179L132 426H55L77 535H93Q117 535 133 539T161 555T181 589T197 647L205 687H334Z" />
<glyph unicode="&#x164;" glyph-name="Tcaron" horiz-adv-x="644" d="M286 960H394L446 904H447L517 960H630L500 827H367L286 960ZM354 0H192L315 636H96L121 765H720L695 636H477L354 0Z" />
<glyph unicode="&#x165;" glyph-name="tcaron" horiz-adv-x="393" d="M428 788H551L460 601H386L428 788ZM334 687L305 536H421L399 426H284L238 189Q229 142 240 126T293 109Q301 109 309 109T324 111Q331 112 337 114L315 0Q304 -2 282 -4T237 -7Q147 -7 106
37T84 179L132 426H55L77 535H93Q117 535 133 539T161 555T181 589T197 647L205 687H334Z" />
<glyph unicode="&#x166;" glyph-name="Tbar" horiz-adv-x="644" d="M354 0H192L264 372H91L110 472H283L315 636H96L121 765H720L695 636H477L445 472H617L598 372H426L354 0Z" />
<glyph unicode="&#x167;" glyph-name="tbar" horiz-adv-x="393" d="M315 0Q304 -2 282 -4T237 -7Q147 -7 106 37T84 179L94 230H16L35 328H113L132 426H55L77 535H93Q117 535 133 539T161 555T181 589T197 647L205 687H334L305 536H421L399 426H284L265 328H381L362
230H246L238 189Q229 142 240 126T293 109Q301 109 309 109T324 111Q331 112 337 114L315 0Z" />
<glyph unicode="&#x168;" glyph-name="Utilde" horiz-adv-x="744" d="M167 765H328L238 304Q229 258 230 220T247 159Q264 135 292 125T360 114Q436 114 477 158Q499 182 507 213T524 285L617 765H776L678 258Q651 118 570 51T353 -16Q194 -16 120 64T76 295L167
765ZM293 820Q296 848 307 875T336 925T381 960T440 974Q463 974 479 966T510 949T537 932T568 924Q586 924 599 934T620 975H697Q694 943 683 915T655 866T613 833T560 821Q533 821 514 829T480 846T451 863T423 871Q410 871 396 861T369 820H293Z" />
<glyph unicode="&#x169;" glyph-name="utilde" horiz-adv-x="623" d="M212 230Q206 200 206 176Q205 138 222 121T273 104Q321 104 354 143T401 256L456 536H611L507 0H358L376 92H374Q345 46 301 18T200 -10Q109 -10 70 45T52 207L116 536H272L212 230ZM194 614Q197
646 207 675T236 728T280 764T339 778Q361 778 377 770T408 753T435 735T463 727Q477 727 491 737T518 779H594Q591 746 581 717T552 664T509 628T450 614Q428 614 411 622T379 639T351 657T322 665Q308 665 294 655T269 614H194Z" />
<glyph unicode="&#x16a;" glyph-name="Umacron" horiz-adv-x="744" d="M167 765H328L238 304Q229 258 230 220T247 159Q264 135 292 125T360 114Q436 114 477 158Q499 182 507 213T524 285L617 765H776L678 258Q651 118 570 51T353 -16Q194 -16 120 64T76 295L167
765ZM335 942H671L650 838H315L335 942Z" />
<glyph unicode="&#x16b;" glyph-name="umacron" horiz-adv-x="623" d="M212 230Q206 200 206 176Q205 138 222 121T273 104Q321 104 354 143T401 256L456 536H611L507 0H358L376 92H374Q345 46 301 18T200 -10Q109 -10 70 45T52 207L116 536H272L212 230ZM235
740H570L551 636H215L235 740Z" />
<glyph unicode="&#x16c;" glyph-name="Ubreve" horiz-adv-x="744" d="M167 765H328L238 304Q229 258 230 220T247 159Q264 135 292 125T360 114Q436 114 477 158Q499 182 507 213T524 285L617 765H776L678 258Q651 118 570 51T353 -16Q194 -16 120 64T76 295L167
765ZM439 972Q437 943 452 926T494 908Q522 908 542 925T572 972H672Q664 929 646 899T603 851T547 824T482 815Q450 815 423 825T376 854T348 903T345 972H439Z" />
<glyph unicode="&#x16d;" glyph-name="ubreve" horiz-adv-x="623" d="M212 230Q206 200 206 176Q205 138 222 121T273 104Q321 104 354 143T401 256L456 536H611L507 0H358L376 92H374Q345 46 301 18T200 -10Q109 -10 70 45T52 207L116 536H272L212 230ZM387 612Q351
612 322 623T273 656T246 711T248 788H346Q339 752 353 734T395 715Q424 715 444 733T472 788H575Q569 740 550 707T505 652T449 622T387 612Z" />
<glyph unicode="&#x16e;" glyph-name="Uring" horiz-adv-x="744" d="M167 765H328L238 304Q229 258 230 220T247 159Q264 135 292 125T360 114Q436 114 477 158Q499 182 507 213T524 285L617 765H776L678 258Q651 118 570 51T353 -16Q194 -16 120 64T76 295L167
765ZM493 796Q467 796 444 803T404 824T377 859T367 907Q367 937 377 962T405 1004T448 1032T503 1042Q566 1042 598 1011T630 931Q630 869 592 833T493 796ZM504 979Q476 979 461 960T445 910Q445 887 457 873T494 858Q519 858 535 877T551 927Q551 950 540 964T504
979Z" />
<glyph unicode="&#x16f;" glyph-name="uring" horiz-adv-x="623" d="M394 602Q368 602 345 609T305 630T278 664T268 712Q268 742 278 767T307 810T350 838T404 848Q467 848 499 817T532 737Q532 706 522 681T493 639T450 612T394 602ZM405 785Q378 785 363 766T347
715Q347 692 359 678T395 664Q421 664 437 682T453 732Q453 755 441 770T405 785ZM212 230Q206 200 206 176Q205 138 222 121T273 104Q321 104 354 143T401 256L456 536H611L507 0H358L376 92H374Q345 46 301 18T200 -10Q109 -10 70 45T52 207L116 536H272L212
230Z" />
<glyph unicode="&#x170;" glyph-name="Uhungarumlaut" horiz-adv-x="744" d="M575 964H698L605 831H515L575 964ZM400 964H523L442 831H353L400 964ZM167 765H328L238 304Q229 258 230 220T247 159Q264 135 292 125T360 114Q436 114 477 158Q499 182 507 213T524
285L617 765H776L678 258Q651 118 570 51T353 -16Q194 -16 120 64T76 295L167 765Z" />
<glyph unicode="&#x171;" glyph-name="uhungarumlaut" horiz-adv-x="623" d="M212 230Q206 200 206 176Q205 138 222 121T273 104Q321 104 354 143T401 256L456 536H611L507 0H358L376 92H374Q345 46 301 18T200 -10Q109 -10 70 45T52 207L116 536H272L212 230ZM488
788H613L494 614H403L488 788ZM315 788H440L334 614H243L315 788Z" />
<glyph unicode="&#x172;" glyph-name="Uogonek" horiz-adv-x="744" d="M280 -9Q229 -4 186 16T113 74T73 166T76 295L167 765H328L238 304Q229 258 230 220T248 158Q265 135 293 125T360 114Q395 114 422 123T470 152Q495 176 505 209T524 285L617 765H776L678
258Q665 192 642 146T587 68T515 19T428 -7Q374 -17 354 -32T334 -69Q334 -99 380 -99L362 -188H333Q264 -188 236 -170T208 -112Q208 -94 214 -79T231 -50T254 -27T280 -10V-9Z" />
<glyph unicode="&#x173;" glyph-name="uogonek" horiz-adv-x="623" d="M376 92H374Q345 46 301 18T200 -10Q109 -10 70 45T52 207L116 536H272L212 230Q206 200 206 176Q205 138 222 121T273 104Q321 104 354 143T401 256L456 536H611L508 3Q442 -37 442 -72Q442
-99 488 -99L470 -188H441Q372 -188 344 -170T316 -112Q316 -79 339 -50T408 0H358L376 92Z" />
<glyph unicode="&#x174;" glyph-name="Wcircumflex" horiz-adv-x="1035" d="M798 827H691L640 883H639L570 827H460L586 960H719L798 827ZM168 0L117 765H278L298 339Q300 307 300 281T299 237Q298 216 297 200H299Q304 216 311 235Q317 252 325 275T347 326L545
765H691L723 337Q725 305 726 280T727 237Q727 216 726 200H728Q732 217 738 236Q743 253 751 275T772 326L960 765H1111L769 0H612L583 448Q581 480 580 504T579 545Q579 564 580 578H578Q573 564 567 546Q562 531 554 509T533 460L329 0H168Z" />
<glyph unicode="&#x175;" glyph-name="wcircumflex" horiz-adv-x="831" d="M644 614H541L493 692L420 614H312L449 788H572L644 614ZM63 536H205L224 280Q226 256 226 232T227 189Q227 167 226 147H228Q234 167 242 188Q249 206 257 227T275 269L401 536H531L557
273Q559 253 559 231T561 190Q562 168 562 146H565Q570 166 577 187Q582 205 590 226T606 266L725 536H862L617 0H468L446 220Q443 246 442 274T439 326Q438 353 438 380H436Q426 354 415 328Q406 305 396 280T374 231L267 0H119L63 536Z" />
<glyph unicode="&#x176;" glyph-name="Ycircumflex" horiz-adv-x="683" d="M276 330L110 765H280L383 464H385L602 765H771L434 313L373 0H212L276 330ZM622 827H515L464 883H463L394 827H284L410 960H543L622 827Z" />
<glyph unicode="&#x177;" glyph-name="ycircumflex" horiz-adv-x="560" d="M70 536H227L260 255Q262 232 263 213T265 177V143H267Q272 158 279 175Q285 189 292 206T309 243L445 536H600L302 -32Q279 -76 256 -107T204 -159T139 -189T53 -199Q15 -199 -6 -195T-30
-189L-7 -75Q-2 -77 12 -79T45 -81Q87 -81 112 -67T154 -16L161 -1L70 536ZM522 614H419L371 692L298 614H190L327 788H450L522 614Z" />
<glyph unicode="&#x178;" glyph-name="Ydieresis" horiz-adv-x="683" d="M276 330L110 765H280L383 464H385L602 765H771L434 313L373 0H212L276 330ZM521 965H654L627 828H494L521 965ZM309 965H443L416 828H283L309 965Z" />
<glyph unicode="&#x179;" glyph-name="Zacute" horiz-adv-x="644" d="M445 960H599L479 827H363L445 960ZM152 765H699L677 653L207 128H580L556 0H-14L8 112L478 638H127L152 765Z" />
<glyph unicode="&#x17a;" glyph-name="zacute" horiz-adv-x="535" d="M354 788H510L390 614H272L354 788ZM110 536H548L527 432L206 117H470L448 0H-5L14 104L336 421H87L110 536Z" />
<glyph unicode="&#x17b;" glyph-name="Zdotaccent" horiz-adv-x="644" d="M152 765H699L677 653L207 128H580L556 0H-14L8 112L478 638H127L152 765ZM389 970H524L497 833H362L389 970Z" />
<glyph unicode="&#x17c;" glyph-name="zdotaccent" horiz-adv-x="535" d="M110 536H548L527 432L206 117H470L448 0H-5L14 104L336 421H87L110 536ZM302 773H437L410 636H275L302 773Z" />
<glyph unicode="&#x17d;" glyph-name="Zcaron" horiz-adv-x="644" d="M281 960H389L441 904H442L512 960H625L495 827H362L281 960ZM152 765H699L677 653L207 128H580L556 0H-14L8 112L478 638H127L152 765Z" />
<glyph unicode="&#x17e;" glyph-name="zcaron" horiz-adv-x="535" d="M204 788H307L353 711L429 788H536L399 614H276L204 788ZM110 536H548L527 432L206 117H470L448 0H-5L14 104L336 421H87L110 536Z" />
<glyph unicode="&#x192;" glyph-name="florin" horiz-adv-x="461" d="M180 -189H30L151 348H39L59 459H176L204 583Q217 645 239 685T291 749T356 782T432 792Q460 792 481 790T506 786L493 670Q490 671 480 672T452 674Q435 674 421 671T394 657T372 627T356
577L329 459H441L421 348H303L180 -189Z" />
<glyph unicode="&#x1fa;" glyph-name="Aringacute" horiz-adv-x="746" d="M428 627Q427 624 415 593T377 509L271 290H470L441 505Q437 533 435 555T432 594Q430 612 430 627H428ZM487 172H213L128 0H-31L366 765H546L675 0H513L487 172ZM529 1196H683L563 1063H447L529
1196ZM478 794Q452 794 429 801T389 822T362 857T352 905Q352 935 362 960T390 1002T433 1030T488 1040Q551 1040 583 1009T615 929Q615 867 577 831T478 794ZM489 977Q461 977 446 958T430 908Q430 885 442 871T479 856Q504 856 520 875T536 925Q536 948 525 962T489
977Z" />
<glyph unicode="&#x1fb;" glyph-name="aringacute" horiz-adv-x="576" d="M239 94Q283 94 312 130T354 227L357 242Q325 241 297 240T244 233Q212 226 192 208T172 159Q172 127 190 111T239 94ZM76 377Q85 454 146 501T317 548Q381 548 424 531T493 484T524 413T521
321L490 159Q484 130 494 120T528 109L506 -1H461Q417 -1 388 13T349 68H346Q329 50 313 36T277 13T236 -1T183 -6Q150 -6 120 3T68 31T32 78T18 145Q18 269 158 308Q205 321 259 322T373 325L378 353Q386 398 369 422T310 446Q276 446 254 430T226 377H76ZM355
843Q329 843 306 850T266 871T239 905T229 953Q229 983 239 1008T268 1051T311 1079T365 1089Q428 1089 460 1058T493 978Q493 947 483 922T454 880T411 853T355 843ZM366 1026Q339 1026 324 1007T308 956Q308 933 320 919T356 905Q382 905 398 923T414 973Q414
996 402 1011T366 1026ZM406 997H560L440 864H324L406 997Z" />
<glyph unicode="&#x1fc;" glyph-name="AEacute" horiz-adv-x="1055" d="M724 960H878L758 827H642L724 960ZM568 640H514Q497 608 479 577T446 522L311 303H503L568 640ZM479 183H237L124 0H-52L436 765H1083L1059 640H729L691 443H1004L980 321H667L629 124H969L946
0H444L479 183Z" />
<glyph unicode="&#x1fd;" glyph-name="aeacute" horiz-adv-x="905" d="M538 788H694L574 614H456L538 788ZM725 328Q733 386 716 418T649 450Q603 450 572 414T526 321H724L725 328ZM239 94Q284 94 312 129T354 227L357 242Q325 241 297 240T244 233Q212 226 192
208T172 159Q172 127 190 111T239 94ZM845 156Q828 71 763 31T599 -9Q518 -9 471 17T398 91H396Q379 71 361 54T317 23T260 2T186 -6Q151 -6 120 3T67 30T31 77T18 144Q18 269 158 308Q205 321 259 322T373 325L378 353Q386 398 369 422T309 446Q275 446 253 430T226
377H76Q85 459 148 503T320 548Q383 548 421 526T479 469H480Q511 505 554 527T657 549Q724 549 769 527T840 466T872 376T868 268L861 231H512Q511 225 511 219T511 206Q511 152 532 122T602 92Q642 92 665 111T694 156H845Z" />
<glyph unicode="&#x1fe;" glyph-name="Oslashacute" horiz-adv-x="804" d="M468 659Q424 659 390 641T329 591T284 520T253 438T236 354T231 277Q231 268 231 260T233 243L588 605Q571 630 542 644T468 659ZM386 103Q427 103 460 121T520 170T565 239T596 321T613
404T619 481Q619 503 616 523L260 160Q277 134 307 119T386 103ZM783 461Q783 369 757 283T680 131T554 24T380 -16Q314 -16 258 1T159 57L78 -25H-29L110 117Q90 152 79 195T67 294Q67 392 95 479T176 633T304 737T473 776Q536 776 589 758T685 705L770 791H879L736
645Q759 609 771 564T783 461ZM523 960H677L557 827H441L523 960Z" />
<glyph unicode="&#x1ff;" glyph-name="oslashacute" horiz-adv-x="606" d="M578 324Q578 253 557 192T497 84T402 12T276 -14Q230 -14 191 -4T120 29L54 -38H-39L74 76Q56 102 46 136T36 212Q36 277 55 337T113 445T207 520T336 549Q433 549 495 502L564 572H657L541
455Q578 401 578 324ZM333 447Q293 447 266 422T221 361T197 282T189 204V193L406 412Q395 428 378 437T333 447ZM282 89Q324 89 351 115T395 180T417 261T424 336L210 120Q221 106 238 98T282 89ZM378 788H534L414 614H296L378 788Z" />
<glyph unicode="&#x218;" glyph-name="Scommaaccent" horiz-adv-x="673" d="M220 -64H371L269 -220H165L220 -64ZM196 222Q194 165 224 135T324 105Q352 105 377 112T422 134T452 168T463 215Q463 252 441 271T371 305L277 332Q184 359 144 409T103 535Q103 593
126 637T190 713T283 760T397 776Q455 776 504 762T589 720T642 651T658 554H495Q498 602 471 629T390 657Q338 657 303 631T268 556Q268 521 292 504T359 474L454 447Q549 420 588 371T628 249Q628 189 605 140T541 57T443 3T318 -16Q250 -16 195 -1T102 44T44
118T28 222H196Z" />
<glyph unicode="&#x219;" glyph-name="scommaaccent" horiz-adv-x="525" d="M140 -64H291L189 -220H85L140 -64ZM359 384Q361 418 338 433T282 448Q249 448 228 433T206 390Q206 367 222 356T271 336L337 321Q413 304 443 269T473 174Q473 128 455 93T406 33T331
-3T236 -15Q188 -15 147 -5T75 28T29 82T14 159H156Q154 121 177 104T241 86Q276 86 302 100T329 149Q329 168 316 181T269 203L206 217Q138 232 102 268T65 369Q65 414 83 447T132 503T203 537T289 549Q334 549 373 539T440 507T483 455T495 384H359Z" />
<glyph unicode="&#x21a;" glyph-name="uni021A" horiz-adv-x="644" d="M191 -64H342L240 -220H136L191 -64ZM354 0H192L315 636H96L121 765H720L695 636H477L354 0Z" />
<glyph unicode="&#x21b;" glyph-name="uni021B" horiz-adv-x="393" d="M101 -64H252L150 -220H46L101 -64ZM334 687L305 536H421L399 426H284L238 189Q229 142 240 126T293 109Q301 109 309 109T324 111Q331 112 337 114L315 0Q304 -2 282 -4T237 -7Q147 -7 106
37T84 179L132 426H55L77 535H93Q117 535 133 539T161 555T181 589T197 647L205 687H334Z" />
<glyph unicode="&#x237;" glyph-name="uni0237" horiz-adv-x="293" d="M-100 -86Q-97 -87 -86 -89T-59 -91Q-28 -91 -10 -76T16 -23L125 536H281L170 -33Q160 -83 140 -116T93 -170T31 -198T-40 -206Q-79 -206 -98 -201T-121 -194L-100 -86Z" />
<glyph unicode="&#x2c6;" glyph-name="circumflex" horiz-adv-x="362" d="M419 614H316L268 692L195 614H87L224 788H347L419 614Z" />
<glyph unicode="&#x2c7;" glyph-name="caron" horiz-adv-x="350" d="M110 788H213L259 711L335 788H442L305 614H182L110 788Z" />
<glyph unicode="&#x2d8;" glyph-name="breve" horiz-adv-x="363" d="M259 612Q223 612 194 623T145 656T118 711T120 788H218Q211 752 225 734T267 715Q296 715 316 733T344 788H447Q441 740 422 707T377 652T321 622T259 612Z" />
<glyph unicode="&#x2d9;" glyph-name="dotaccent" horiz-adv-x="299" d="M185 773H320L293 636H158L185 773Z" />
<glyph unicode="&#x2da;" glyph-name="ring" horiz-adv-x="366" d="M263 602Q237 602 214 609T174 630T147 664T137 712Q137 742 147 767T176 810T219 838T273 848Q336 848 368 817T401 737Q401 706 391 681T362 639T319 612T263 602ZM274 785Q247 785 232 766T216
715Q216 692 228 678T264 664Q290 664 306 682T322 732Q322 755 310 770T274 785Z" />
<glyph unicode="&#x2db;" glyph-name="ogonek" horiz-adv-x="367" d="M209 3Q175 -17 160 -35T144 -72Q144 -99 189 -99L172 -188H143Q74 -188 46 -170T17 -112Q17 -74 48 -41T138 9L209 3Z" />
<glyph unicode="&#x2dc;" glyph-name="tilde" horiz-adv-x="363" d="M64 614Q67 646 77 675T106 728T150 764T209 778Q231 778 247 770T278 753T305 735T333 727Q347 727 361 737T388 779H464Q461 746 451 717T422 664T379 628T320 614Q298 614 281 622T249 639T221
657T192 665Q178 665 164 655T139 614H64Z" />
<glyph unicode="&#x2dd;" glyph-name="hungarumlaut" horiz-adv-x="398" d="M351 788H476L357 614H266L351 788ZM178 788H303L197 614H106L178 788Z" />
</font>
</defs>
</svg>
