<svg width="400" height="50" xmlns="http://www.w3.org/2000/svg">

 <g>
  <title>background</title>
  <rect fill="none" id="canvas_background" height="50" width="400" y="-1" x="-1"/>
 </g>
 <g>
  <title>Layer 1</title>
  <g stroke="null" id="svg_1">
   <path stroke="null" id="svg_2" d="m369.180105,36.781278c1.647119,6.313469 7.137518,9.99918 13.254271,9.99918c5.256494,0 10.826165,-2.763794 10.826165,-8.368698c0,-10.213511 -25.179494,-13.334523 -25.179494,-25.747129c0,-5.888721 5.959186,-10.286912 13.958921,-10.286912c6.590435,0 7.925356,1.774348 10.670555,1.774348c0.627334,0 0.941491,-0.142887 1.410279,-0.710522l1.256626,0l1.330027,9.009734l-1.330027,0c-2.197138,-5.106755 -7.216791,-8.370655 -12.629873,-8.370655c-5.178199,0 -8.783658,2.695286 -8.783658,6.66873c0,10.071602 25.179494,12.76591 25.179494,25.816616c0,6.952547 -6.828255,12.131725 -16.003385,12.131725c-4.315003,0 -9.80638,-1.917235 -10.903481,-1.917235c-0.706607,0 -1.25369,0.357218 -1.567846,0.781966l-1.333942,0l-1.647119,-10.781145l1.492488,0zm-15.592339,-20.995635c3.923531,-2.058165 6.040417,-4.539121 6.040417,-7.093477c0,-0.852431 -0.313178,-1.490531 -1.097101,-1.490531c-0.706607,0 -1.019785,0.213352 -1.884939,0.213352c-2.037613,0 -3.529122,-1.347643 -3.529122,-3.191477c0,-1.914299 1.881024,-3.477252 4.236708,-3.477252c3.138629,0 5.489419,2.482913 5.489419,5.888721c0,4.399169 -3.528144,8.653494 -8.7083,10.425884l-0.547082,-1.275221zm-12.081812,15.817436l-1.488573,0c-0.628313,-5.03629 -2.118843,-5.603925 -5.333809,-5.603925l-13.25525,0l0,15.108871c0,3.262921 1.331006,3.901021 4.232794,3.901021l12.079855,0c5.490398,0 7.137518,-1.915278 9.097815,-8.01833l1.415172,0l-1.256626,10.570729l-41.648732,0l0,-1.345686l2.195181,0c6.276279,0 7.368486,-1.563932 7.368486,-5.818256l0,-29.931967c0,-3.972465 -1.016849,-5.675369 -6.272364,-5.675369l-1.726393,0l0,-1.347643l37.650821,0l0.627334,9.861186l-1.411257,0c-1.020764,-6.03063 -2.981061,-7.305851 -5.802597,-7.305851l-16.549489,0l0,17.448896l14.037216,0c2.82643,0 4.156457,-1.205734 4.550865,-5.322065l1.488573,0l0,13.478389l0.000979,0zm-39.905701,15.959345l-19.061762,0l0,-1.345686c4.864043,-0.214331 5.883828,-1.349601 5.883828,-6.101095l0,-30.217742c0,-3.830556 -1.490531,-4.894382 -5.883828,-5.107734l0,-1.347643l19.061762,0l0,1.347643c-4.942337,0 -6.666772,0.993361 -6.666772,5.746812l0,30.075834c0,4.185817 1.252711,5.604904 6.666772,5.604904l0,1.344707zm-45.867824,-6.525842c0,3.830556 1.410279,5.180156 6.193091,5.180156l2.905703,0l0,1.345686l-24.709728,0l0,-1.345686l2.902767,0c4.784769,0 6.197006,-1.349601 6.197006,-5.180156l0,-35.038723l-13.646722,0c-3.139607,0 -4.549886,1.628525 -5.729196,7.870549l-1.4093,0l1.25369,-11.48971l1.490531,0c0.077316,0.424747 0.390494,0.710522 0.86026,0.850473c0.470745,0.141909 1.0237,0.213352 1.571761,0.213352l37.729116,0c1.097101,0 2.274454,-0.213352 2.431043,-1.063826l1.487595,0l1.254669,11.48971l-1.4093,0c-1.177353,-6.242025 -2.589589,-7.870549 -5.725282,-7.870549l-13.647701,0l0,35.038723zm-60.162433,-4.255303c1.647119,6.313469 7.138496,9.99918 13.256229,9.99918c5.255515,0 10.824207,-2.763794 10.824207,-8.368698c0,-10.213511 -25.178516,-13.334523 -25.178516,-25.747129c0,-5.888721 5.961144,-10.286912 13.963815,-10.286912c6.58652,0 7.920462,1.774348 10.665661,1.774348c0.627334,0 0.940512,-0.142887 1.4093,-0.710522l1.25369,0l1.33492,9.009734l-1.33492,0c-2.195181,-5.106755 -7.214833,-8.370655 -12.625958,-8.370655c-5.17722,0 -8.784637,2.695286 -8.784637,6.66873c0,10.071602 25.176558,12.76591 25.176558,25.816616c0,6.952547 -6.82434,12.131725 -15.99947,12.131725c-4.314024,0 -9.804422,-1.917235 -10.902502,-1.917235c-0.707586,0 -1.254669,0.357218 -1.569804,0.781966l-1.332963,0l-1.647119,-10.781145l1.491509,0zm-8.454822,10.781145l-19.058826,0l0,-1.345686c4.860128,-0.214331 5.88187,-1.349601 5.88187,-6.101095l0,-30.217742c0,-3.830556 -1.489552,-4.894382 -5.88187,-5.107734l0,-1.347643l19.058826,0l0,1.347643c-4.942337,0 -6.666772,0.993361 -6.666772,5.746812l0,30.075834c0,4.185817 1.255647,5.604904 6.666772,5.604904l0,1.344707zm-57.725518,-20.569909c1.018807,0.212374 2.74422,0.567635 4.23573,0.567635c8.545839,0 14.040152,-5.250621 14.040152,-12.414563c0,-5.531503 -2.433,-10.993519 -12.864756,-10.993519c-1.804687,0 -3.529122,0 -5.411125,0.28186l0,22.558588zm0,1.347643l0,12.413585c0,3.972465 1.331006,5.462995 6.274321,5.462995l2.587632,0l0,1.345686l-21.727688,0l0,-1.345686l1.099058,0c4.078162,0 5.255515,-0.781966 5.255515,-4.117309l0,-33.549171c0,-2.624821 -0.941491,-3.760091 -3.68669,-3.760091l-3.922552,0l0,-1.347643c2.197138,-0.071444 6.041395,-0.282839 9.885653,-0.424747c3.8423,-0.143866 7.607284,-0.214331 9.725149,-0.214331c16.393879,0 20.157884,7.094456 20.157884,12.554515c0,8.30019 -7.293128,11.352695 -9.254404,11.988837l9.333677,12.768846c1.097101,1.488573 3.060334,3.618182 4.312067,4.89536c1.100037,0.992382 2.119822,1.560017 4.394276,2.198117l0,1.277178l-1.020764,0c-7.607284,0 -12.158149,-3.475295 -20.237157,-15.53264c-1.412236,-2.131566 -2.352748,-3.193435 -3.29326,-4.187774c-0.000979,-0.000979 -5.646987,0.49717 -9.882717,-0.425726m-62.282255,-1.844813l0,13.476432c0,4.612522 1.019785,6.244961 6.274321,6.244961l0.234883,0l0,1.345686l-19.687139,0l0,-1.345686l0.470745,0c4.628181,0 6.197006,-1.135269 6.197006,-5.180156l0,-31.210124c0,-3.687669 -1.332963,-4.752473 -5.647966,-5.03629l0,-1.347643l18.666375,0l0,1.347643c-5.566735,0 -6.509205,1.348622 -6.509205,6.810638l0,12.340184l30.74623,0l0,-13.972623c0,-3.760091 -1.331984,-5.179178 -6.195048,-5.179178l-1.489552,0l0,-1.347643l20.158863,0l0,1.347643c-4.707454,0.142887 -5.963101,1.419087 -5.963101,5.817277l0,29.437734c0,5.03629 1.569804,6.172539 6.276279,6.172539l0.782944,0l0,1.345686l-22.195497,0l0,-1.345686l2.430064,0c5.097947,0 6.195048,-1.632439 6.195048,-5.322065l0,-14.399328l-30.745251,0zm-20.219541,-11.420224c-2.589589,-6.596307 -9.334656,-10.922075 -17.883431,-10.922075c-13.09964,0 -21.256943,8.58205 -21.256943,20.499444c0,12.836375 10.195894,22.273792 22.120139,22.273792c6.195048,0 13.80429,-1.915278 19.13712,-10.500264l1.490531,0c-1.017828,3.191477 -3.136671,7.590647 -5.019653,10.354441c-5.018674,-0.634185 -8.472438,1.917235 -17.725863,1.917235c-15.924112,0 -27.376632,-9.505925 -27.376632,-22.626117c0,-13.762207 11.764719,-23.692879 28.159577,-23.692879c9.883695,0 14.120404,2.838174 16.550468,2.838174c0.862218,0 1.252711,-0.213352 1.411257,-0.426705l1.177353,0l0.706607,10.284954l-1.490531,0z"/>
  </g>
 </g>
</svg>
